<svg xmlns="http://www.w3.org/2000/svg" viewBox="0 0 405.99 440.8"><defs><style>.cls-1{fill:#fff;}</style></defs><g id="Layer_2" data-name="Layer 2"><g id="Layer_7" data-name="Layer 7"><path d="M389.88,133.28c22.81-24.5,10.14-24.22,10.14-24.22C414.38,93,398.33,84,398.33,84c2.25-5.06-2.82-10.13-2.82-10.13-45.05-21.12-65.32,26.75-84.75,40a130,130,0,0,1-32.9,16.5c1.39,1.06,2.74,2.13,4,3.21l-.66.75c-1.39-1.21-2.91-2.42-4.5-3.6-.72.22-1.11.31-1.11.31s-36,2.26-46.18,3.1-62.22,15.21-89.53-13.23c-21.4-36.6-33.51-54.62-33.51-54.62-26-34-43.64-28.35-43.64-28.35l7.88-3.38a7.46,7.46,0,0,1,5.26-4.88c6.76-3.75,0-7.69,0-7.69-.75-12-4.51-7.7-4.51-7.7C69.66,6.76,66.09,7.7,66.09,7.7,60.83,14.83,58,11.83,58,11.83s-.38-8.26-2.63-9.38-7.51,12.2-7.51,12.2c-.94-7.7-6-22.9-7.88-9s-4.51,11.63-4.51,11.63S32.87,4.14,29.67,3.57s-5.44,18-5.44,18-5.26-10.13-9-8.82.38,17.08.38,17.08C.58,17.65,6,33.79,6,33.79l-3.38,1.5c1.13,6.39-1.31,9-1.31,9-5.26,10.14,6.76,21,6.76,21C-1.3,70.77.58,82.22.58,82.22,8.46,78.47,21,75.65,21,75.65,14.66,106.81,37.37,113,37.37,113c-11.91,23.42-9.4,51.79-.54,78.88,2-.19,4-.41,5.89-.65l.12,1c-1.86.22-3.78.43-5.69.62,16.86,50.67,55.61,96.6,63.29,97,11.82.57,33.22,17.18,33.22,17.18,7.32,1.41,22,18.86,20.84,33.51s22,23.93,22,23.93l-25.9,37.45a16.31,16.31,0,0,0-9.86,13.23c-12.67,3.66-45.33,6.19-45.33,6.19C79.89,421.59,83,431.73,83,431.73c3.38-4.79,6.76-6.19,6.76-6.19,1.13,7.88,10.14,2.53,10.14,2.53l45.15.46c-19,16.41,7.5,3.48,7.5,3.48l6.19-10.13,4.23-.57,8.44,7c9.58-3.38,12.11,1.13,12.11,1.13,1.41-5.63-8.17-8.73-8.17-8.73L166,414c2.54-1.12,1.69-9,1.69-9L199,358.24c13.23-3.66,15.2-13.51,15.2-13.51,6.76,4.79,34.07,8.45,34.07,8.45,3.38,9.57,23.65,5.06,23.65,5.06,5.63,12.11,8.73,59.69,8.73,59.69-8.73,4.51-44.77,6.76-44.77,6.76-16.05.28-11,9.57-11,9.57,4.79-7,6.47-5.06,6.47-5.06-.28,6.47,9,2.81,9,2.81l45.25-1c-12.76,18.77,6.19,4.88,6.19,4.88l9.38-18.48c12.12,2,19.43-.84,19.43-.84l-21.4-9.29c-8.45-9.86-12.39-66.17-12.39-66.17,78.28-49,55.19-81.94,55.19-81.94,20.83-11,9.29-17.45,9.29-17.45l5.07-5.63c16.89-.28-1.41-28.44-1.41-28.44,22.81-3.94,12.67-16.61,12.67-16.61,6.48-6.48,4.22-12.67,4.22-12.67,43.08-29.85,22.25-31.54,22.25-31.54C418.88,126.8,389.88,133.28,389.88,133.28ZM54.12,190.57l-.18-1c3.78-.66,7.5-1.42,11-2.26l.23,1C61.65,189.15,57.91,189.91,54.12,190.57Zm22-5.24-.29-1c3.67-1.14,7.24-2.41,10.6-3.77l.38.93C83.43,182.91,79.84,184.18,76.14,185.33ZM300.85,199.6v.4a37.63,37.63,0,0,1-.65,6l-1-.17a41.77,41.77,0,0,0,.63-5.48c-1.77-.42-3.6-.83-5.44-1.23l.21-1c2,.43,4,.87,5.86,1.33Zm-3.92-34.43a36.91,36.91,0,0,1-3.22,11.68l-.91-.41a35.57,35.57,0,0,0,3.13-11.36Zm-26.47,28.89q4.07.56,8,1.17l0,0a57.44,57.44,0,0,0,8.18-8.63l.79.61a61.24,61.24,0,0,1-7.7,8.25l2.82.46-.17,1c-3.86-.65-7.9-1.26-12-1.82ZM97.13,176.8l-.46-.89a98.14,98.14,0,0,0,9.64-5.75l.56.82A100.24,100.24,0,0,1,97.13,176.8Zm31.94-10.18a99.81,99.81,0,0,0-9.35-6.4q-1.86,1.93-3.9,3.77l-.67-.74a72.88,72.88,0,0,0,7.75-8.11l.77.63c-1,1.26-2.11,2.49-3.25,3.7a101,101,0,0,1,9.25,6.36Zm1-20.23-.88-.49a61.8,61.8,0,0,0,4.62-10.21l.94.33A63.3,63.3,0,0,1,130.1,146.39ZM137.45,125l-1-.13a35.68,35.68,0,0,0,.38-5.89l1-.05A34.93,34.93,0,0,1,137.45,125Zm.8,49.34.67-.74c2.94,2.67,5.83,5.51,8.58,8.45l-.73.68C144,179.77,141.17,176.94,138.25,174.29Zm7.91,39.12.9.43a35.43,35.43,0,0,0-3.39,11.46l-1-.12A36.47,36.47,0,0,1,146.16,213.41Zm2.22,35.32a41.58,41.58,0,0,1-4.83-11.29l1-.25a41,41,0,0,0,4.72,11Zm5.26-44.94-.77-.64a69.33,69.33,0,0,1,5.76-6.13c-1.3-1.79-2.65-3.57-4-5.3l.78-.62c1.37,1.71,2.71,3.48,4,5.26a26.11,26.11,0,0,1,2.26-1.79l.57.82a25.33,25.33,0,0,0-2.24,1.78l0,0-.46.33a2.29,2.29,0,0,0-.23.21A67.54,67.54,0,0,0,153.64,203.79Zm2.43,133.39-.51-.86a64.74,64.74,0,0,0,9.58-7l.66.75A65.71,65.71,0,0,1,156.07,337.18Zm11.87-74.68a26.4,26.4,0,0,1-11.41-4.58l.58-.82a25.28,25.28,0,0,0,11,4.41ZM176,189.85c3-.08,6.15-.15,9.32-.2v1c-3.16,0-6.29.12-9.3.2a26.44,26.44,0,0,0-2.8.24l-.14-1A25.77,25.77,0,0,1,176,189.85Zm-2,131.31-.8-.6a62.34,62.34,0,0,0,6.2-10.14l.9.44A62.08,62.08,0,0,1,174,321.16Zm10.6-21.58-1-.28A79.07,79.07,0,0,0,186,287.63l1,.12A79.67,79.67,0,0,1,184.59,299.58Zm7.66-35c-1.77-.08-3.58-.18-5.4-.29a79.53,79.53,0,0,1,.87,11.42h-1a77.79,77.79,0,0,0-.89-11.5q-2.87-.18-5.75-.43l.08-1c4.11.36,8.19.62,12.13.79Zm5.26-74v-1c4.06,0,8.16.06,12.19.14l0,1C205.65,190.64,201.56,190.59,197.51,190.58Zm6.94,74.2v-1c4.14,0,8.22-.2,12.12-.48l.07,1C212.71,264.58,208.61,264.74,204.45,264.78Zm17.43-74.7c4.1.15,8.19.35,12.18.58l-.06,1c-4-.23-8.07-.43-12.16-.58Zm8.08,128a47.92,47.92,0,0,1-1.12-10c0-.69,0-1.36,0-2l1,.05c0,.64,0,1.3,0,2a47.27,47.27,0,0,0,1.1,9.82Zm1.67-23.83a30.68,30.68,0,0,1,7.05-9.85l.68.72a29.94,29.94,0,0,0-6.82,9.54Zm7,46.25a108.74,108.74,0,0,1-5.14-10.9l.93-.37a105.58,105.58,0,0,0,5.09,10.79ZM228.77,263l-.15-1c4.12-.59,8.12-1.35,11.92-2.24l.22,1C236.94,261.65,232.91,262.41,228.77,263Zm16.83,89-.77-1.16.84-.55.76,1.16Zm.54-159.53.08-1c4.12.33,8.2.7,12.13,1.12l-.1,1C254.33,193.2,250.25,192.82,246.14,192.5Zm13.77,86.84c-1.92-.89-4-1.74-6-2.52a32.8,32.8,0,0,0-4.7,1.78l-.41-.91a31.12,31.12,0,0,1,5-1.88l.15,0,.14.05c2.17.8,4.28,1.68,6.27,2.61Zm-7.42-22-.33-.95a91.85,91.85,0,0,0,11.13-4.72l.45.89A94.81,94.81,0,0,1,252.49,257.34ZM279,293.26a48.09,48.09,0,0,0-8.75-8l.59-.81a49.3,49.3,0,0,1,8.92,8.15Zm-4.74-47-.58-.81a68.24,68.24,0,0,0,9.15-7.87l.71.7A68.92,68.92,0,0,1,274.21,246.23Zm12.25,92.2-.93-.38a48.06,48.06,0,0,0,2.75-11.52l1,.12A48.31,48.31,0,0,1,286.46,338.43Zm1.83-23.75a41.39,41.39,0,0,0-3.09-11.41l.92-.4a42.28,42.28,0,0,1,3.16,11.68Zm1.81-172.3a36.7,36.7,0,0,1,5.57,10.75l-1,.29A35.41,35.41,0,0,0,289.29,143Zm13.78,87.41c-5.15-2.69-9.12-4.5-10.37-5.06-.75,1.35-1.52,2.67-2.36,4l-.84-.55a61.35,61.35,0,0,0,5.57-10.69l.93.37a61.17,61.17,0,0,1-2.82,6c1.36.61,5.29,2.41,10.35,5.05Zm20.47,12.43c-3-2.18-6.38-4.38-10-6.57l.51-.86c3.66,2.2,7,4.43,10.09,6.62Zm15.22,14.48a44,44,0,0,0-6-6.91l.69-.72a45.18,45.18,0,0,1,6.13,7.07Z"/><path class="cls-1" d="M136.83,118.93a35.68,35.68,0,0,1-.38,5.89l1,.13a34.93,34.93,0,0,0,.38-6.07Z"/><path class="cls-1" d="M75.85,184.38l.29,1c3.7-1.15,7.29-2.42,10.69-3.79l-.38-.93C83.09,182,79.52,183.24,75.85,184.38Z"/><path class="cls-1" d="M53.94,189.59l.18,1c3.79-.66,7.53-1.42,11.09-2.26l-.23-1C61.44,188.17,57.72,188.93,53.94,189.59Z"/><path class="cls-1" d="M129.22,145.9l.88.49A63.3,63.3,0,0,0,134.78,136l-.94-.33A61.8,61.8,0,0,1,129.22,145.9Z"/><path class="cls-1" d="M96.67,175.91l.46.89a100.24,100.24,0,0,0,9.74-5.82l-.56-.82A98.14,98.14,0,0,1,96.67,175.91Z"/><path class="cls-1" d="M119.68,159l.74.43c1.14-1.21,2.23-2.44,3.25-3.7l-.77-.63a72.88,72.88,0,0,1-7.75,8.11l.67.74q2-1.83,3.9-3.77l-.52-.31Z"/><path class="cls-1" d="M42.72,191.24c-1.93.24-3.91.46-5.89.65h-.06l.09,1,.29,0c1.91-.19,3.83-.4,5.69-.62Z"/><path class="cls-1" d="M294.4,199.16c1.84.4,3.67.81,5.44,1.23a41.77,41.77,0,0,1-.63,5.48l1,.17a37.63,37.63,0,0,0,.65-6v-.4l-.38-.09c-1.9-.46-3.88-.9-5.86-1.33Z"/><path class="cls-1" d="M258.35,192.62c-3.93-.42-8-.79-12.13-1.12l-.08,1c4.11.32,8.19.7,12.11,1.11Z"/><path class="cls-1" d="M176,190.85c3-.08,6.14-.15,9.3-.2v-1c-3.17,0-6.31.12-9.32.2a25.77,25.77,0,0,0-2.91.25l.14,1A26.44,26.44,0,0,1,176,190.85Z"/><path class="cls-1" d="M180.08,263.79q2.88.25,5.75.43l-.07-.37,1-.18s0,.23.1.62c1.82.11,3.63.21,5.4.29l0-1c-3.94-.17-8-.43-12.13-.79Z"/><path class="cls-1" d="M252.16,256.39l.33.95a94.81,94.81,0,0,0,11.25-4.78l-.45-.89A91.85,91.85,0,0,1,252.16,256.39Z"/><path class="cls-1" d="M228.62,262l.15,1c4.14-.6,8.17-1.36,12-2.26l-.22-1C236.74,260.67,232.74,261.43,228.62,262Z"/><path class="cls-1" d="M204.44,263.78v1c4.16,0,8.26-.2,12.18-.48l-.07-1C212.66,263.58,208.58,263.74,204.44,263.78Z"/><path class="cls-1" d="M209.7,189.72c-4-.08-8.13-.13-12.19-.14v1c4.05,0,8.14.06,12.17.14Z"/><path class="cls-1" d="M234.06,190.66c-4-.23-8.08-.43-12.18-.58l0,1c4.09.15,8.18.35,12.16.58Z"/><path class="cls-1" d="M162.22,195.39l-.57-.82a26.11,26.11,0,0,0-2.26,1.79l.59.81A25.33,25.33,0,0,1,162.22,195.39Z"/><path class="cls-1" d="M143.55,237.44a41.58,41.58,0,0,0,4.83,11.29l.85-.52a41,41,0,0,1-4.72-11Z"/><path class="cls-1" d="M147.06,213.84l-.9-.43a36.47,36.47,0,0,0-3.49,11.77l1,.12A35.43,35.43,0,0,1,147.06,213.84Z"/><path class="cls-1" d="M282.52,195.88l-2.82-.46-.64.55-.6-.74q-3.93-.61-8-1.17l-.13,1c4.12.56,8.16,1.17,12,1.82Z"/><path class="cls-1" d="M156.53,257.92a26.4,26.4,0,0,0,11.41,4.58l.15-1a25.28,25.28,0,0,1-11-4.41Z"/><path class="cls-1" d="M273.63,245.42l.58.81a68.92,68.92,0,0,0,9.28-8l-.71-.7A68.24,68.24,0,0,1,273.63,245.42Z"/><path class="cls-1" d="M293.48,223.63l.51.22a61.17,61.17,0,0,0,2.82-6l-.93-.37a61.35,61.35,0,0,1-5.57,10.69l.84.55c.84-1.29,1.61-2.61,2.36-4l-.43-.19Z"/><path class="cls-1" d="M159.33,197.75a2.29,2.29,0,0,1,.23-.21l-.36.25-.57-.77a69.33,69.33,0,0,0-5.76,6.13l.77.64A67.54,67.54,0,0,1,159.33,197.75Z"/><path class="cls-1" d="M147.5,182c-2.75-2.94-5.64-5.78-8.58-8.45l-.67.74c2.92,2.65,5.79,5.48,8.52,8.39Z"/><path class="cls-1" d="M119.68,159l-.48.87.52.31a99.81,99.81,0,0,1,9.35,6.4l.6-.79a101,101,0,0,0-9.25-6.36Z"/><path class="cls-1" d="M159.56,197.54l.46-.33,0,0-.59-.81c-1.3-1.78-2.64-3.55-4-5.26l-.78.62c1.38,1.73,2.73,3.51,4,5.3l.57.77Z"/><path class="cls-1" d="M295.67,153.13a36.7,36.7,0,0,0-5.57-10.75l-.81.59a35.41,35.41,0,0,1,5.42,10.45Z"/><path class="cls-1" d="M293.71,176.85a36.91,36.91,0,0,0,3.22-11.68l-1-.09a35.57,35.57,0,0,1-3.13,11.36Z"/><path class="cls-1" d="M281.84,133.56c-1.24-1.08-2.59-2.15-4-3.21l-1.14-.87-.59.81.55.42c1.59,1.18,3.11,2.39,4.5,3.6Z"/><path class="cls-1" d="M279.7,195.42a61.24,61.24,0,0,0,7.7-8.25l-.79-.61a57.44,57.44,0,0,1-8.18,8.63l0,0,.6.74Z"/><path class="cls-1" d="M244.83,350.87l.77,1.16.83-.55-.76-1.16Z"/><path class="cls-1" d="M229.89,306.11l-1-.05c0,.66,0,1.33,0,2a47.92,47.92,0,0,0,1.12,10l1-.21a47.27,47.27,0,0,1-1.1-9.82C229.84,307.41,229.85,306.75,229.89,306.11Z"/><path class="cls-1" d="M239.36,285.15l-.68-.72a30.68,30.68,0,0,0-7.05,9.85l.91.41A29.94,29.94,0,0,1,239.36,285.15Z"/><path class="cls-1" d="M253.93,275.78l-.15,0a31.12,31.12,0,0,0-5,1.88l.41.91a32.8,32.8,0,0,1,4.7-1.78c2.09.78,4.12,1.63,6,2.52l.43-.9c-2-.93-4.1-1.81-6.27-2.61Z"/><path class="cls-1" d="M233.53,329.63a108.74,108.74,0,0,0,5.14,10.9l.88-.48a105.58,105.58,0,0,1-5.09-10.79Z"/><path class="cls-1" d="M285.2,303.27a41.39,41.39,0,0,1,3.09,11.41l1-.13a42.28,42.28,0,0,0-3.16-11.68Z"/><path class="cls-1" d="M285.53,338.05l.93.38a48.31,48.31,0,0,0,2.81-11.78l-1-.12A48.06,48.06,0,0,1,285.53,338.05Z"/><path class="cls-1" d="M270.79,284.47l-.59.81a48.09,48.09,0,0,1,8.75,8l.76-.64A49.3,49.3,0,0,0,270.79,284.47Z"/><path class="cls-1" d="M183.62,299.3l1,.28A79.67,79.67,0,0,0,187,287.75l-1-.12A79.07,79.07,0,0,1,183.62,299.3Z"/><path class="cls-1" d="M173.19,320.56l.8.6a62.08,62.08,0,0,0,6.3-10.3l-.9-.44A62.34,62.34,0,0,1,173.19,320.56Z"/><path class="cls-1" d="M155.56,336.32l.51.86A65.71,65.71,0,0,0,165.8,330l-.66-.75A64.74,64.74,0,0,1,155.56,336.32Z"/><path class="cls-1" d="M185.76,263.85l.07.37a77.79,77.79,0,0,1,.89,11.5h1a79.53,79.53,0,0,0-.87-11.42c-.06-.39-.1-.61-.1-.62Z"/><path class="cls-1" d="M314.34,235.65c3.63,2.19,7,4.39,10,6.57l.59-.81c-3-2.19-6.43-4.42-10.09-6.62Z"/><path class="cls-1" d="M333.58,249.79a44,44,0,0,1,6,6.91l.83-.56a45.18,45.18,0,0,0-6.13-7.07Z"/><path class="cls-1" d="M293.48,223.63l-.4.91.43.19c1.25.56,5.22,2.37,10.37,5.06l.46-.89c-5.06-2.64-9-4.44-10.35-5.05Z"/></g></g></svg>