<?xml version="1.0" encoding="utf-8"?>
<!-- Generator: Adobe Illustrator 26.0.2, SVG Export Plug-In . SVG Version: 6.00 Build 0)  -->
<svg version="1.1" id="Layer_1" xmlns="http://www.w3.org/2000/svg" xmlns:xlink="http://www.w3.org/1999/xlink" x="0px" y="0px"
	 viewBox="0 0 126.7 337.4" style="enable-background:new 0 0 126.7 337.4;" xml:space="preserve">
<style type="text/css">
	.st0{fill:#8C8C8C;}
	.st1{fill:#CC8F89;}
	.st2{fill:#D1814A;}
	.st3{fill:#FFC8BD;}
	.st4{fill:#BF0000;}
	.st5{fill:#FDB376;}
	.st6{fill:#FCA054;}
	.st7{fill:#3F2222;}
	.st8{fill:#EFADA3;}
</style>
<rect x="38.6" class="st0" width="7.2" height="70.2"/>
<g>
	<path class="st1" d="M78.6,173.2l-17.1-2.8c-5.7-0.9-11.2,0.9-15.3,4.5l-0.1-0.1l-44.3,33c-2.2,1.6-1.1,4.8,1.7,5.1
		c17.6,1.8,31.2,2,47.5-9l33.9,5.6c5.8,1,11.3-3.3,12.2-9.4v0C99,187.3,90.7,175.2,78.6,173.2z"/>
	<path class="st2" d="M70.8,256.1l-10.5-5.5l-21.5,44.9c-1.9,0-3.6,0.1-5,0.1c-9,0.5-12.5,1.9-14.4,2.8c-0.8,0.4-6.2,2.9-5.8,4.3
		c0.3,1.1,4.4,1.6,20.6-0.8c-2.8,2.9-5.6,5.7-8.4,8.6c-3.2,4-4.6,6.4-4,7.1c0.8,1.1,6.6-2.2,17.1-10c-3.8,13.2-3.5,16.2-2.6,16.6
		c1.5,0.6,5.9-5.1,8.2-11c0.7-1.9,1.2-3.7,1.5-5.5C54.2,290.5,62.5,273.3,70.8,256.1z"/>
	<path class="st1" d="M94.6,237c4.9-12-1-25.7-13-30.5C70,201.8,57,207,51.7,218.1l-0.2-0.1c-0.5,1.2-1.3,2.9-1.9,5.2
		c-2.6,9.1-0.8,16.6-0.2,20.5c0.7,5-1.4,20-5.3,32c-1.4,4.3,0.8,9,5,10.6c4.3,1.7,9-0.3,10.9-4.5c5.2-11.6,14.7-23.5,18.6-26.6
		c3-2.4,9.1-6.2,13.7-14C93.2,240,93.9,238.6,94.6,237z"/>
	<path class="st3" d="M61.1,274.8l-10.3,0.1c-23.9,0.1-43.4-19.1-43.5-43l-0.2-40.4c-0.2-24.7,19.8-44.9,44.5-45.1l8.8-0.1
		c28.3-0.2,51.4,22.6,51.6,51l0.2,25.9C112.2,251.5,89.4,274.6,61.1,274.8z"/>
	<path class="st3" d="M96.3,69.4c-0.7-1.3-1.5-2.5-2.3-3.7c-2.2-3.1-4.9-5.7-8-7.7c-1.8-1.1-3.7-2.1-5.8-2.8
		c-1.1-0.4-2.1-0.7-3.3-0.9c-16.8-3.6-33.7,9.3-37.8,28.8l-17.6,83c-4.1,19.4,6.1,38.1,22.9,41.6c16.8,3.6,33.7-9.3,37.8-28.8
		l17.6-83C101.9,86.4,100.4,76.9,96.3,69.4z"/>
	<path class="st4" d="M48.8,91.9c-0.5-1-1.3-1.9-2.3-2.5c0-1.6-0.3-3.3-1.1-4.9c-2.7-5.5-9.5-7.6-15.2-4.8c-5.7,2.8-8.1,9.6-5.4,15
		c0.1,0.2,0.2,0.4,0.3,0.6c-2.5,3.1-3.3,6.5-2,9.3c2.3,4.5,9.8,5.4,16.9,1.8C47.2,103,51.1,96.5,48.8,91.9z"/>
	<path class="st4" d="M112.2,94.9c0.2-1.6-0.4-3.1-1.4-4.6c0-0.2,0.1-0.5,0.2-0.7c1-0.4,1.9-0.7,2.7-1.1c4.7-2,14-7.5,12.8-13.3
		c-0.4-2.2-2.3-3.9-4.7-5.2c2.5-5.4,2.1-12.3-1.5-15.5c-2.7-2.4-7.1-2.5-10.9-1.3c-1.1-5.5-7.5-10.3-12.3-9.3
		c-3.6,0.8-5.9,4.7-6.2,8.5c-0.5-0.1-1.1-0.1-1.8,0c-3.5,0.6-6.5,4.8-6.5,9c0,5,4.3,7.9,4.7,8.2c-0.5,2.7-0.1,5.3,1.5,7.3
		c1.4,1.7,3.6,2.6,5.9,2.8c-0.1,1.6,0.2,3.4,1,5.1c0.4,0.9,1,1.8,1.6,2.5c0.3,0.8,0.5,1.7,0.6,2.7c0.1,1.4,0,2.7-0.3,3.7
		c0,0,0,0.1,0,0.1c-0.2,0.4-0.5,0.9-0.7,1.3c-0.1,0.1-0.2,0.3-0.2,0.4c-0.9,1.5,3.1,4.6,2,5.9c1.6,0.8,3.8,0.1,4.8,0.4
		C108.6,102.9,111.5,99.8,112.2,94.9z"/>
	<g>
		<path class="st5" d="M49.8,100c6-2.3,8.8-19.7,1-29.5c-4.9-6.3-14.2-9.7-18.7-6.3c1.8,5.2,4.1,11,7.1,17.2
			C42.8,88.5,46.4,94.7,49.8,100z"/>
		<path class="st6" d="M39.3,81.3c-3-6.2-5.3-12-7.1-17.2c-0.3,0.2-0.6,0.5-0.8,0.7c-3.8,4.3-0.5,13.7,0.3,16.1
			c3.4,9.7,12.1,20.4,17.6,19.2c0.2,0,0.4-0.1,0.6-0.2C46.4,94.7,42.8,88.5,39.3,81.3z"/>
	</g>
	<path class="st7" d="M64.7,69.2l5.6,2.5c0.8,0.4,1.8,0,2.3-0.7c0.4-0.8,0.1-1.7-0.7-2.1l-4.5-2l3.7-3.3c0.7-0.6,0.7-1.6,0.1-2.2
		c-0.6-0.6-1.7-0.6-2.4,0l-4.6,4.1L58.4,63c-0.8-0.4-1.8,0-2.3,0.7C56,64,56,64.3,56,64.6c0.1,0.5,0.4,0.9,0.9,1.1l4.5,2l-3.7,3.3
		c-0.4,0.4-0.6,0.9-0.5,1.4c0,0.3,0.2,0.6,0.4,0.8c0.6,0.6,1.7,0.6,2.4,0L64.7,69.2z"/>
	<path class="st7" d="M73.1,93.9l6.1,3.3c0.9,0.5,2,0.2,2.5-0.7c0.5-0.9,0.2-2-0.7-2.5l-4.9-2.7l4.2-3.7c0.8-0.7,0.8-1.8,0.2-2.6
		c-0.7-0.8-1.8-0.8-2.6-0.2l-5.2,4.5L66.6,86c-0.9-0.5-2-0.2-2.5,0.7c-0.2,0.3-0.3,0.7-0.2,1.1c0.1,0.6,0.4,1.1,0.9,1.4l4.9,2.7
		l-4.2,3.7c-0.5,0.4-0.7,1-0.6,1.6c0,0.4,0.2,0.7,0.4,1c0.7,0.8,1.8,0.8,2.6,0.2L73.1,93.9z"/>
	<path class="st6" d="M70.3,270.7L60,264.8l-23.6,43.9c-1.9-0.1-3.6-0.1-5-0.1c-9,0.1-12.7,1.4-14.7,2.2c-0.8,0.3-6.3,2.7-6,4.1
		c0.3,1.1,4.4,1.8,20.8,0.1c-3,2.7-5.9,5.5-8.9,8.2c-3.4,3.9-4.9,6.2-4.4,6.9c0.8,1.1,6.7-2,17.7-9.3c-4.4,13-4.2,16-3.3,16.5
		c1.5,0.7,6.2-4.9,8.7-10.7c0.8-1.9,1.4-3.7,1.8-5.5C52.2,304.4,61.3,287.6,70.3,270.7z"/>
	<path class="st8" d="M102.2,246.2c5.8-11.6,1-25.7-10.6-31.4c-11.1-5.5-24.6-1.4-30.7,9.2l-0.2-0.1c-0.6,1.1-1.5,2.8-2.3,5
		c-3.3,8.9-2.1,16.5-1.8,20.5c0.3,5-2.9,19.8-7.8,31.5c-1.7,4.2,0.1,9,4.1,11c4.1,2,9,0.4,11.2-3.6c6.1-11.2,16.5-22.3,20.6-25
		c3.2-2.1,9.6-5.4,14.7-12.9C100.5,249.1,101.4,247.7,102.2,246.2z"/>
	<path class="st8" d="M83.9,163.7l-18.4-3.2c-6.1-1.1-12,1-16.5,5l-0.1-0.1l-47.7,37c-2.4,1.8-1.2,5.4,1.9,5.7
		c18.9,2,33.6,2.2,51.1-10.1l36.5,6.3c6.2,1.1,12.1-3.7,13.1-10.5v0C105.8,179.5,96.9,165.9,83.9,163.7z"/>
</g>
<path class="st0" d="M16.1,84.6c-1.9,5.9,0,12.2,4.4,15c3.8,2.5,9,1.9,12.7-1.6c0.3-2.1,0.5-4.3,0.8-6.4c-0.5,0.6-4.1,4.3-8.8,3.8
	C20.6,94.9,16.8,90.6,16.1,84.6z"/>
</svg>
