<svg xmlns="http://www.w3.org/2000/svg" viewBox="0 0 405.99 440.8"><defs><style>.cls-1{fill:#fff;}</style></defs><g id="Layer_2" data-name="Layer 2"><g id="Layer_8" data-name="Layer 8"><path d="M221.51,156.17a1.56,1.56,0,0,0,.68-1.46,1.51,1.51,0,0,0-.9-1.55,6.56,6.56,0,0,0-2-.26h-3.67v3.69h4.1A3.39,3.39,0,0,0,221.51,156.17Z"/><path d="M222.54,161.42a1.79,1.79,0,0,0-1.07-1.79,4.38,4.38,0,0,0-1.69-.28h-4.16v4.45h4.1a4.08,4.08,0,0,0,1.71-.29A2.11,2.11,0,0,0,222.54,161.42Z"/><polygon points="111.53 253.88 114.4 248 108.62 251.11 111.53 253.88"/><path d="M93.74,230.19a2,2,0,0,0,.64-2.07,3.54,3.54,0,0,0-1-1.31l-2.79-2.66-2.94,3.09,2.72,2.59a4.35,4.35,0,0,0,1.39,1A1.78,1.78,0,0,0,93.74,230.19Z"/><path d="M77.66,220.27l-2.86-2.72-2.91,3.06,2.82,2.69a3.72,3.72,0,0,0,1.37.91,2,2,0,0,0,2.13-.7,1.72,1.72,0,0,0,.43-1.94A4,4,0,0,0,77.66,220.27Z"/><path d="M82.36,218.66a1.43,1.43,0,0,0,.39-1.66,6.38,6.38,0,0,0-1.2-1.48L79,213.12l-2.41,2.53,2.82,2.68a3.3,3.3,0,0,0,1.51.89A1.48,1.48,0,0,0,82.36,218.66Z"/><polygon points="235.71 153.82 233.55 160.39 237.79 160.39 235.71 153.82"/><path d="M389.88,133.28c22.81-24.5,10.14-24.22,10.14-24.22C414.38,93,398.33,84,398.33,84c2.25-5.06-2.82-10.13-2.82-10.13-45.05-21.12-65.32,26.75-84.75,40a130,130,0,0,1-32.9,16.5c1.39,1.06,2.74,2.13,4,3.21l-.66.75c-1.39-1.21-2.91-2.42-4.5-3.6-.72.22-1.11.31-1.11.31s-36,2.26-46.18,3.1-62.22,15.21-89.53-13.23c-21.4-36.6-33.51-54.62-33.51-54.62-26-34-43.64-28.35-43.64-28.35l7.88-3.38a7.46,7.46,0,0,1,5.26-4.88c6.76-3.75,0-7.69,0-7.69-.75-12-4.51-7.7-4.51-7.7C69.66,6.76,66.09,7.7,66.09,7.7,60.83,14.83,58,11.83,58,11.83s-.38-8.26-2.63-9.38-7.51,12.2-7.51,12.2c-.94-7.7-6-22.9-7.88-9s-4.51,11.63-4.51,11.63S32.87,4.14,29.67,3.57s-5.44,18-5.44,18-5.26-10.13-9-8.82.38,17.08.38,17.08C.58,17.65,6,33.79,6,33.79l-3.38,1.5c1.13,6.39-1.31,9-1.31,9-5.26,10.14,6.76,21,6.76,21C-1.3,70.77.58,82.22.58,82.22,8.46,78.47,21,75.65,21,75.65,14.66,106.81,37.37,113,37.37,113c-11.91,23.42-9.4,51.79-.54,78.88,2-.19,4-.41,5.89-.65l.12,1c-1.86.22-3.78.43-5.69.62,16.86,50.67,55.61,96.6,63.29,97,11.82.57,33.22,17.18,33.22,17.18,7.32,1.41,22,18.86,20.84,33.51s22,23.93,22,23.93l-25.9,37.45a16.31,16.31,0,0,0-9.86,13.23c-12.67,3.66-45.33,6.19-45.33,6.19C79.89,421.59,83,431.73,83,431.73c3.38-4.79,6.76-6.19,6.76-6.19,1.13,7.88,10.14,2.53,10.14,2.53l45.15.46c-19,16.41,7.5,3.48,7.5,3.48l6.19-10.13,4.23-.57,8.44,7c9.58-3.38,12.11,1.13,12.11,1.13,1.41-5.63-8.17-8.73-8.17-8.73L166,414c2.54-1.12,1.69-9,1.69-9L199,358.24c13.23-3.66,15.2-13.51,15.2-13.51,6.76,4.79,34.07,8.45,34.07,8.45,3.38,9.57,23.65,5.06,23.65,5.06,5.63,12.11,8.73,59.69,8.73,59.69-8.73,4.51-44.77,6.76-44.77,6.76-16.05.28-11,9.57-11,9.57,4.79-7,6.47-5.06,6.47-5.06-.28,6.47,9,2.81,9,2.81l45.25-1c-12.76,18.77,6.19,4.88,6.19,4.88l9.38-18.48c12.12,2,19.43-.84,19.43-.84l-21.4-9.29c-8.45-9.86-12.39-66.17-12.39-66.17,78.28-49,55.19-81.94,55.19-81.94,20.83-11,9.29-17.45,9.29-17.45l5.07-5.63c16.89-.28-1.41-28.44-1.41-28.44,22.81-3.94,12.67-16.61,12.67-16.61,6.48-6.48,4.22-12.67,4.22-12.67,43.08-29.85,22.25-31.54,22.25-31.54C418.88,126.8,389.88,133.28,389.88,133.28ZM304.34,228.9l-.46.89c-5.15-2.69-9.12-4.5-10.37-5.06-.75,1.35-1.52,2.67-2.36,4l-.84-.55a61.35,61.35,0,0,0,5.57-10.69l.93.37a61.17,61.17,0,0,1-2.82,6C295.35,224.46,299.28,226.26,304.34,228.9Zm-3.49-29.3v.4a37.63,37.63,0,0,1-.65,6l-1-.17a41.77,41.77,0,0,0,.63-5.48c-1.77-.42-3.6-.83-5.44-1.23l.21-1c2,.42,4,.86,5.86,1.32Zm-3.92-34.43a36.91,36.91,0,0,1-3.22,11.68l-.91-.41a35.57,35.57,0,0,0,3.13-11.36Zm-6.83-22.79a36.7,36.7,0,0,1,5.57,10.75l-1,.29A35.41,35.41,0,0,0,289.29,143Zm-3.49,44.18.79.61a61.24,61.24,0,0,1-7.7,8.25l2.82.46-.17,1c-3.86-.65-7.9-1.26-12-1.82l.13-1q4.07.56,8,1.17l0,0A57.44,57.44,0,0,0,286.61,186.56Zm-3.12,51.69a68.92,68.92,0,0,1-9.28,8l-.58-.81a68.24,68.24,0,0,0,9.15-7.87ZM262.55,150H266v6.88l6.44-6.88h4.51l-6.84,6.88,7.19,9.82H272.8l-5.16-7.29L266,161.12v5.58h-3.43Zm-15.19,1.75a7,7,0,0,1,5.19-2.06c2.8,0,4.86.92,6.16,2.76a6,6,0,0,1,1.15,3.12h-3.49a4.61,4.61,0,0,0-.87-1.82,3.55,3.55,0,0,0-2.82-1.08,3.49,3.49,0,0,0-3,1.53,7.38,7.38,0,0,0-1.1,4.34,6.49,6.49,0,0,0,1.16,4.21,3.69,3.69,0,0,0,2.95,1.4,3.37,3.37,0,0,0,2.8-1.2,5.09,5.09,0,0,0,.88-1.94h3.46a7.49,7.49,0,0,1-2.31,4.44,6.81,6.81,0,0,1-4.78,1.71,7.19,7.19,0,0,1-5.66-2.31,10.82,10.82,0,0,1,.28-13.1ZM249.79,236a7.78,7.78,0,0,1-4.11,1,8.54,8.54,0,0,1-6.57-2.78,10.61,10.61,0,0,1-2.67-7.64,11.24,11.24,0,0,1,2.69-7.86,9.21,9.21,0,0,1,7.14-3,9.34,9.34,0,0,1,6.18,1.95,7.24,7.24,0,0,1,2.68,4.87H251a4,4,0,0,0-2.34-2.89,5.82,5.82,0,0,0-2.32-.45,5,5,0,0,0-4,1.84c-1,1.23-1.57,3.07-1.57,5.54s.57,4.24,1.7,5.27a5.58,5.58,0,0,0,3.86,1.55,5,5,0,0,0,3.48-1.23,5.33,5.33,0,0,0,1.67-3.21h-4.67v-3.37h8.41V236.5h-2.8L252,234A9.52,9.52,0,0,1,249.79,236Zm4,39.8.15,0,.14.05c2.17.8,4.28,1.68,6.27,2.61l-.43.9c-1.92-.89-4-1.74-6-2.52a32.8,32.8,0,0,0-4.7,1.78l-.41-.91A31.12,31.12,0,0,1,253.78,275.81Zm-7.64-83.31.08-1c4.12.33,8.2.7,12.13,1.12l-.1,1C254.33,193.2,250.25,192.82,246.14,192.5ZM233.77,150h3.94l5.91,16.7h-3.78l-1.08-3.43h-6.15l-1.15,3.43h-3.65Zm.29,40.66-.06,1c-4-.23-8.07-.43-12.16-.58l0-1C226,190.23,230.07,190.43,234.06,190.66ZM212.29,150h8.11q3.07.06,4.35,1.78a4.19,4.19,0,0,1,.77,2.55,3.7,3.7,0,0,1-.77,2.46,3.9,3.9,0,0,1-1.27,1,3.75,3.75,0,0,1,1.94,1.47,4.45,4.45,0,0,1,.65,2.45,4.83,4.83,0,0,1-.75,2.66,4.53,4.53,0,0,1-1.19,1.31,4.63,4.63,0,0,1-1.9.84,11.76,11.76,0,0,1-2.37.23h-7.57Zm.94,66.32V236.5H209V216.32Zm-15.72-26.74c4.06,0,8.16.06,12.19.14l0,1c-4-.08-8.12-.13-12.17-.14Zm-58.59-16c2.94,2.67,5.83,5.51,8.58,8.45l-.73.68c-2.73-2.91-5.6-5.74-8.52-8.39Zm8.14,40.29a35.43,35.43,0,0,0-3.39,11.46l-1-.12a36.47,36.47,0,0,1,3.49-11.77Zm-10.23-94.91,1-.05a34.93,34.93,0,0,1-.38,6.07l-1-.13A35.68,35.68,0,0,0,136.83,118.93Zm-3,16.76.94.33a63.3,63.3,0,0,1-4.68,10.37l-.88-.49A61.8,61.8,0,0,0,133.84,135.69ZM122.9,155.14l.77.63c-1,1.26-2.11,2.49-3.25,3.7a101,101,0,0,1,9.25,6.36l-.6.79a99.81,99.81,0,0,0-9.35-6.4q-1.86,1.93-3.9,3.77l-.67-.74A72.88,72.88,0,0,0,122.9,155.14Zm-16,15.84a100.24,100.24,0,0,1-9.74,5.82l-.46-.89a98.14,98.14,0,0,0,9.64-5.75ZM89.44,125.21H92.1v5.33l5-5.33h3.5l-5.31,5.33,5.58,7.63H97.39l-4-5.67-1.29,1.33v4.34H89.44Zm-11.79,1.35a6.15,6.15,0,0,1,8.81.55,4.69,4.69,0,0,1,.9,2.42H84.65a3.63,3.63,0,0,0-.68-1.41,2.75,2.75,0,0,0-2.19-.84,2.71,2.71,0,0,0-2.33,1.19,5.76,5.76,0,0,0-.85,3.37,5,5,0,0,0,.9,3.26,2.84,2.84,0,0,0,2.29,1.09,2.62,2.62,0,0,0,2.17-.93,4,4,0,0,0,.69-1.51h2.68a5.86,5.86,0,0,1-1.79,3.45,5.32,5.32,0,0,1-3.71,1.33,5.58,5.58,0,0,1-4.4-1.8,8.43,8.43,0,0,1,.22-10.17Zm9.18,55c-3.4,1.37-7,2.64-10.69,3.79l-.29-1c3.67-1.14,7.24-2.41,10.6-3.77ZM64.47,125.21H74v2.29H67.11v2.75h6.3v2.25h-6.3v3.34h7.18v2.33H64.47Zm-10.6,13H51.35v-13h2.84l5.15,9v-9h2.53v13H59.16L53.87,129Zm.25,52.4-.18-1c3.78-.66,7.5-1.42,11-2.26l.23,1C61.65,189.15,57.91,189.91,54.12,190.57Zm22.42,36.87a4.44,4.44,0,0,1-1.86-.66,11.59,11.59,0,0,1-1.78-1.4l-5.2-5,10.93-11.48,5.58,5.31q2.08,2,1.83,4.07a4,4,0,0,1-1.14,2.26,3.56,3.56,0,0,1-2.14,1.19,3.8,3.8,0,0,1-1.5-.18,3.51,3.51,0,0,1,.37,2.28A4.21,4.21,0,0,1,80.47,226a4.64,4.64,0,0,1-2.25,1.34A4.35,4.35,0,0,1,76.54,227.44Zm12.74,11.74a1.34,1.34,0,0,0-.19,1.07l-.27.28L86.18,238c.17-.32.31-.58.43-.76a6.74,6.74,0,0,1,.84-1.09l1-1.08a2.85,2.85,0,0,0,1-1.85,2.92,2.92,0,0,0-1.09-1.74l-2.48-2.36-4.29,4.5-2.34-2.23,10.93-11.48,5.63,5.36a7.29,7.29,0,0,1,1.58,2.06,4.13,4.13,0,0,1,.34,1.86,5.11,5.11,0,0,1-.33,1.53,4.31,4.31,0,0,1-.93,1.41,4.77,4.77,0,0,1-1.95,1.22,3.22,3.22,0,0,1-2.42-.18,3,3,0,0,1,.26,2A5.31,5.31,0,0,1,91,237.28l-.74.77A8.49,8.49,0,0,0,89.28,239.18Zm10.2,11.5-8.71-8.28,10.94-11.49,8.42,8-1.94,2-6.07-5.78-2.32,2.44,5.57,5.31-1.89,2-5.58-5.31-2.81,2.95,6.35,6.06Zm9.33,8.89,1.51-3.07-4.23-4-3,1.61-2.51-2.39,15-7.58,2.71,2.58L111.41,262ZM121.24,270a7,7,0,0,1-4.39-2.19,7.57,7.57,0,0,1-2.55-4.39,4.68,4.68,0,0,1,1.39-4l2.29,2.18a3.29,3.29,0,0,0-.69,1.59,3.39,3.39,0,0,0,1.33,2.61,5.72,5.72,0,0,0,1.55,1.13,1.85,1.85,0,0,0,2.28-.38,1.36,1.36,0,0,0,.34-1.35,7.22,7.22,0,0,0-1.06-2l-1-1.43a10.48,10.48,0,0,1-1.64-3.24,3.87,3.87,0,0,1,1.2-3.59,4.6,4.6,0,0,1,3.57-1.5,6.59,6.59,0,0,1,4.26,2.12,6.9,6.9,0,0,1,2.18,3.91,4.71,4.71,0,0,1-1.31,4.07l-2.31-2.19a2.27,2.27,0,0,0,.5-2.33,4.13,4.13,0,0,0-1.12-1.62,3.66,3.66,0,0,0-1.84-1,1.63,1.63,0,0,0-1.54.52,1.37,1.37,0,0,0-.33,1.44,8.89,8.89,0,0,0,1,1.9l1.53,2.36a7,7,0,0,1,1.17,2.7,3.89,3.89,0,0,1-1.21,3.33A4.59,4.59,0,0,1,121.24,270Zm19.61,2.08-3.43-3.27-9,9.45-2.42-2.3,9-9.45-3.45-3.29,1.94-2,9.3,8.86Zm7.53-23.33a41.58,41.58,0,0,1-4.83-11.29l1-.25a41,41,0,0,0,4.72,11Zm5.26-44.94-.77-.64a69.33,69.33,0,0,1,5.76-6.13c-1.3-1.79-2.65-3.57-4-5.3l.78-.62c1.37,1.71,2.71,3.48,4,5.26a26.11,26.11,0,0,1,2.26-1.79l.57.82a25.33,25.33,0,0,0-2.24,1.78l0,0-.46.33a2.29,2.29,0,0,0-.23.21A67.54,67.54,0,0,0,153.64,203.79Zm2.43,133.39-.51-.86a64.74,64.74,0,0,0,9.58-7l.66.75A65.71,65.71,0,0,1,156.07,337.18Zm11.87-74.68a26.4,26.4,0,0,1-11.41-4.58l.58-.82a25.28,25.28,0,0,0,11,4.41ZM176,189.85c3-.08,6.15-.15,9.32-.2v1c-3.16,0-6.29.12-9.3.2a26.44,26.44,0,0,0-2.8.24l-.14-1A25.77,25.77,0,0,1,176,189.85Zm-2,131.32-.8-.61a62.34,62.34,0,0,0,6.2-10.14l.9.44A62.59,62.59,0,0,1,174,321.17Zm10.6-21.59-1-.28A79.07,79.07,0,0,0,186,287.63l1,.12A79.67,79.67,0,0,1,184.59,299.58Zm7.66-35c-1.77-.08-3.58-.18-5.4-.29a79.53,79.53,0,0,1,.87,11.42h-1a77.79,77.79,0,0,0-.89-11.5q-2.87-.18-5.75-.43l.08-1c4.11.36,8.19.62,12.13.79Zm4.86-28.08-2.43-11.8-.72-3.9-.71,3.9-2.44,11.8H186.9l-5.72-20.18h4.47l2.67,11.56.58,3.21.59-3.15,2.27-11.62h4.45l2.4,11.56.61,3.21.62-3.09,2.7-11.68h4.28l-5.68,20.18Zm7.34,28.28v-1c4.14,0,8.22-.2,12.12-.48l.07,1C212.71,264.58,208.61,264.74,204.45,264.78ZM221,236.5h-3.93V216.32h4.42l8,14.09V216.32h3.93V236.5h-4.22L221,222.17ZM230,318.11a47.92,47.92,0,0,1-1.12-10c0-.69,0-1.36,0-2l1,.05c0,.64,0,1.3,0,2a47.27,47.27,0,0,0,1.1,9.82Zm1.67-23.83a30.68,30.68,0,0,1,7.05-9.85l.68.72a29.94,29.94,0,0,0-6.82,9.54Zm7,46.25a108.74,108.74,0,0,1-5.14-10.9l.93-.37a105.58,105.58,0,0,0,5.09,10.79ZM228.77,263l-.15-1c4.12-.59,8.12-1.35,11.92-2.24l.22,1C236.94,261.65,232.91,262.41,228.77,263Zm16.83,89-.77-1.16.84-.55.76,1.16Zm6-31.89h-9.13V307.19h2.71v10.63h6.42Zm11.76,0h-9.81V307.19H263v2.29h-6.86v2.75h6.3v2.25h-6.3v3.34h7.17Zm-10.83-62.8-.33-.95a91.85,91.85,0,0,0,11.13-4.72l.45.89A94.81,94.81,0,0,1,252.49,257.34Zm24.36,62.8h-1.79l-.27-1.61a6.61,6.61,0,0,1-1.41,1.3,5,5,0,0,1-2.64.66,5.5,5.5,0,0,1-4.22-1.79,6.8,6.8,0,0,1-1.71-4.9,7.23,7.23,0,0,1,1.73-5.05,6.68,6.68,0,0,1,8.55-.64,4.64,4.64,0,0,1,1.72,3.12h-2.67a2.51,2.51,0,0,0-1.5-1.85,3.56,3.56,0,0,0-1.48-.29,3.23,3.23,0,0,0-2.58,1.18,5.38,5.38,0,0,0-1,3.56,4.4,4.4,0,0,0,1.09,3.38,3.57,3.57,0,0,0,2.48,1,3.23,3.23,0,0,0,2.23-.78,3.41,3.41,0,0,0,1.07-2.07h-3v-2.16h5.4Zm2.1-26.88a48.09,48.09,0,0,0-8.75-8l.59-.81a49.3,49.3,0,0,1,8.92,8.15Zm3.73-24.79-2.72.9-.53-1.59,7.31-2.43.53,1.59-2.7.9,2.47,7.43-1.9.63Zm3.78,70-.93-.38a48.06,48.06,0,0,0,2.75-11.52l1,.12A48.31,48.31,0,0,1,286.46,338.43Zm1.83-23.75a41.39,41.39,0,0,0-3.09-11.41l.92-.4a42.65,42.65,0,0,1,3.17,11.68Zm7.93-42.46-1.33-4-3.53,1.17,1.34,4-1.87.62-3-9,1.87-.62,1.14,3.44,3.53-1.17-1.14-3.44,1.87-.62,3,9Zm3.53-1.18-3-9,1.87-.62,3,9Zm10.33-3.43-.56-1.06a4.68,4.68,0,0,1-.68,1.23,3.62,3.62,0,0,1-1.68,1.07,4,4,0,0,1-3.35-.27,5,5,0,0,1-2.33-3,5.21,5.21,0,0,1,0-3.91,4.32,4.32,0,0,1,2.75-2.39,4.39,4.39,0,0,1,3.05,0,3.4,3.4,0,0,1,1.92,1.78l-1.86.61a1.83,1.83,0,0,0-1.47-.94,2.65,2.65,0,0,0-1.1.14,2.36,2.36,0,0,0-1.52,1.42,4,4,0,0,0,.12,2.71A3.22,3.22,0,0,0,305,267a2.58,2.58,0,0,0,2,.12,2.33,2.33,0,0,0,1.37-1.06,2.43,2.43,0,0,0,.27-1.69l-2.08.7-.5-1.51,3.75-1.25,1.61,4.84Zm8.43-2.8-1.33-4L313.65,262l1.34,4-1.87.62-3-9L312,257l1.14,3.44,3.53-1.18-1.14-3.44,1.87-.62,3,9Zm5.84-22.59c-3-2.18-6.38-4.38-10-6.57l.51-.86c3.66,2.2,7,4.43,10.09,6.62Zm15.22,14.48a44,44,0,0,0-6-6.91l.69-.72a45.18,45.18,0,0,1,6.13,7.07Z"/><path class="cls-1" d="M137.45,125a34.93,34.93,0,0,0,.38-6.07l-1,.05a35.68,35.68,0,0,1-.38,5.89Z"/><path class="cls-1" d="M53.94,189.59l.18,1c3.79-.66,7.53-1.42,11.09-2.26l-.23-1C61.44,188.17,57.72,188.93,53.94,189.59Z"/><path class="cls-1" d="M76.14,185.33c3.7-1.15,7.29-2.42,10.69-3.79l-.38-.93c-3.36,1.36-6.93,2.63-10.6,3.77Z"/><path class="cls-1" d="M119.72,160.22l-.52-.3.48-.88.74.43c1.14-1.21,2.23-2.44,3.25-3.7l-.77-.63a72.88,72.88,0,0,1-7.75,8.11l.67.74Q117.86,162.16,119.72,160.22Z"/><path class="cls-1" d="M97.13,176.8a100.24,100.24,0,0,0,9.74-5.82l-.56-.82a98.14,98.14,0,0,1-9.64,5.75Z"/><path class="cls-1" d="M134.78,136l-.94-.33a61.8,61.8,0,0,1-4.62,10.21l.88.49A63.3,63.3,0,0,0,134.78,136Z"/><path class="cls-1" d="M42.72,191.24c-1.93.24-3.91.46-5.89.65h-.06l.09,1,.29,0c1.91-.19,3.83-.4,5.69-.62Z"/><path class="cls-1" d="M294.4,199.16c1.84.4,3.67.81,5.44,1.23a41.77,41.77,0,0,1-.63,5.48l1,.17a37.63,37.63,0,0,0,.65-6v-.4l-.38-.09c-1.9-.46-3.88-.9-5.86-1.32Z"/><path class="cls-1" d="M221.84,191.08c4.09.15,8.18.35,12.16.58l.06-1c-4-.23-8.08-.43-12.18-.58Z"/><path class="cls-1" d="M228.62,262l.15,1c4.14-.6,8.17-1.36,12-2.26l-.22-1C236.74,260.67,232.74,261.43,228.62,262Z"/><path class="cls-1" d="M142.67,225.18l1,.12a35.43,35.43,0,0,1,3.39-11.46l-.9-.43A36.47,36.47,0,0,0,142.67,225.18Z"/><path class="cls-1" d="M258.35,192.62c-3.93-.42-8-.79-12.13-1.12l-.08,1c4.11.32,8.19.7,12.11,1.11Z"/><path class="cls-1" d="M209.7,189.72c-4-.08-8.13-.13-12.19-.14v1c4.05,0,8.14.06,12.17.14Z"/><path class="cls-1" d="M252.16,256.39l.33.95a94.81,94.81,0,0,0,11.25-4.78l-.45-.89A91.85,91.85,0,0,1,252.16,256.39Z"/><path class="cls-1" d="M278.46,195.23q-3.93-.61-8-1.17l-.13,1c4.12.56,8.16,1.17,12,1.82l.17-1-2.82-.46-.64.55Z"/><path class="cls-1" d="M176,190.85c3-.08,6.14-.15,9.3-.2v-1c-3.17,0-6.31.12-9.32.2a25.77,25.77,0,0,0-2.91.25l.14,1A26.44,26.44,0,0,1,176,190.85Z"/><path class="cls-1" d="M156.53,257.92a26.4,26.4,0,0,0,11.41,4.58l.15-1a25.28,25.28,0,0,1-11-4.41Z"/><path class="cls-1" d="M162.22,195.39l-.57-.82a26.11,26.11,0,0,0-2.26,1.79l.59.81A25.33,25.33,0,0,1,162.22,195.39Z"/><path class="cls-1" d="M159.33,197.75a2.29,2.29,0,0,1,.23-.21l-.36.25-.57-.77a69.33,69.33,0,0,0-5.76,6.13l.77.64A67.54,67.54,0,0,1,159.33,197.75Z"/><path class="cls-1" d="M274.21,246.23a68.92,68.92,0,0,0,9.28-8l-.71-.7a68.24,68.24,0,0,1-9.15,7.87Z"/><path class="cls-1" d="M204.44,263.78v1c4.16,0,8.26-.2,12.18-.48l-.07-1C212.66,263.58,208.58,263.74,204.44,263.78Z"/><path class="cls-1" d="M143.55,237.44a41.58,41.58,0,0,0,4.83,11.29l.85-.52a41,41,0,0,1-4.72-11Z"/><path class="cls-1" d="M180.08,263.79q2.88.25,5.75.43l-.07-.37,1-.18s0,.23.1.62c1.82.11,3.63.21,5.4.29l0-1c-3.94-.17-8-.43-12.13-.79Z"/><path class="cls-1" d="M295.88,217.45a61.35,61.35,0,0,1-5.57,10.69l.84.55c.84-1.29,1.61-2.61,2.36-4l-.43-.19.4-.91.51.22a61.17,61.17,0,0,0,2.82-6Z"/><path class="cls-1" d="M146.77,182.68l.73-.68c-2.75-2.94-5.64-5.78-8.58-8.45l-.67.74C141.17,176.94,144,179.77,146.77,182.68Z"/><path class="cls-1" d="M119.2,159.92l.52.3a99.81,99.81,0,0,1,9.35,6.4l.6-.79a101,101,0,0,0-9.25-6.36l-.74-.43Z"/><path class="cls-1" d="M159.56,197.54l.46-.33,0,0-.59-.81c-1.3-1.78-2.64-3.55-4-5.26l-.78.62c1.38,1.73,2.73,3.51,4,5.3l.57.77Z"/><path class="cls-1" d="M281.84,133.56c-1.24-1.08-2.59-2.15-4-3.21l-1.14-.87-.59.81.55.42c1.59,1.18,3.11,2.39,4.5,3.6Z"/><path class="cls-1" d="M293.71,176.85a36.91,36.91,0,0,0,3.22-11.68l-1-.09a35.57,35.57,0,0,1-3.13,11.36Z"/><path class="cls-1" d="M295.67,153.13a36.7,36.7,0,0,0-5.57-10.75l-.81.59a35.41,35.41,0,0,1,5.42,10.45Z"/><path class="cls-1" d="M279.06,196l.64-.55a61.24,61.24,0,0,0,7.7-8.25l-.79-.61a57.44,57.44,0,0,1-8.18,8.63l0,0Z"/><path class="cls-1" d="M270.79,284.47l-.59.81a48.09,48.09,0,0,1,8.75,8l.76-.64A49.3,49.3,0,0,0,270.79,284.47Z"/><path class="cls-1" d="M249.17,278.6a32.8,32.8,0,0,1,4.7-1.78c2.09.78,4.12,1.63,6,2.52l.43-.9c-2-.93-4.1-1.81-6.27-2.61l-.14-.05-.15,0a31.12,31.12,0,0,0-5,1.88Z"/><path class="cls-1" d="M285.53,338.05l.93.38a48.31,48.31,0,0,0,2.81-11.78l-1-.12A48.06,48.06,0,0,1,285.53,338.05Z"/><path class="cls-1" d="M233.53,329.63a108.74,108.74,0,0,0,5.14,10.9l.88-.48a105.58,105.58,0,0,1-5.09-10.79Z"/><path class="cls-1" d="M229.89,306.11l-1-.05c0,.66,0,1.33,0,2a47.92,47.92,0,0,0,1.12,10l1-.21a47.27,47.27,0,0,1-1.1-9.82C229.84,307.41,229.85,306.75,229.89,306.11Z"/><path class="cls-1" d="M244.83,350.87l.77,1.16.83-.55-.76-1.16Z"/><path class="cls-1" d="M239.36,285.15l-.68-.72a30.68,30.68,0,0,0-7.05,9.85l.91.41A29.94,29.94,0,0,1,239.36,285.15Z"/><path class="cls-1" d="M285.2,303.27a41.39,41.39,0,0,1,3.09,11.41l1-.13a42.65,42.65,0,0,0-3.17-11.68Z"/><path class="cls-1" d="M155.56,336.32l.51.86A65.71,65.71,0,0,0,165.8,330l-.66-.75A64.74,64.74,0,0,1,155.56,336.32Z"/><path class="cls-1" d="M183.62,299.3l1,.28A79.67,79.67,0,0,0,187,287.75l-1-.12A79.07,79.07,0,0,1,183.62,299.3Z"/><path class="cls-1" d="M173.19,320.56l.8.61a62.59,62.59,0,0,0,6.3-10.31l-.9-.44A62.34,62.34,0,0,1,173.19,320.56Z"/><path class="cls-1" d="M185.76,263.85l.07.37a77.79,77.79,0,0,1,.89,11.5h1a79.53,79.53,0,0,0-.87-11.42c-.06-.39-.1-.61-.1-.62Z"/><path class="cls-1" d="M333.58,249.79a44,44,0,0,1,6,6.91l.83-.56a45.18,45.18,0,0,0-6.13-7.07Z"/><path class="cls-1" d="M314.34,235.65c3.63,2.19,7,4.39,10,6.57l.59-.81c-3-2.19-6.43-4.42-10.09-6.62Z"/><path class="cls-1" d="M293.08,224.54l.43.19c1.25.56,5.22,2.37,10.37,5.06l.46-.89c-5.06-2.64-9-4.44-10.35-5.05l-.51-.22Z"/><polygon class="cls-1" points="61.87 138.16 61.87 125.21 59.34 125.21 59.34 134.25 54.19 125.21 51.35 125.21 51.35 138.16 53.87 138.16 53.87 128.96 59.16 138.16 61.87 138.16"/><polygon class="cls-1" points="74.29 135.84 67.11 135.84 67.11 132.5 73.41 132.5 73.41 130.25 67.11 130.25 67.11 127.5 73.97 127.5 73.97 125.21 64.47 125.21 64.47 138.16 74.29 138.16 74.29 135.84"/><path class="cls-1" d="M81.83,138.53a5.32,5.32,0,0,0,3.71-1.33,5.86,5.86,0,0,0,1.79-3.45H84.65a4,4,0,0,1-.69,1.51,2.62,2.62,0,0,1-2.17.93,2.84,2.84,0,0,1-2.29-1.09,5,5,0,0,1-.9-3.26,5.76,5.76,0,0,1,.85-3.37,2.71,2.71,0,0,1,2.33-1.19,2.75,2.75,0,0,1,2.19.84,3.63,3.63,0,0,1,.68,1.41h2.71a4.69,4.69,0,0,0-.9-2.42,6.15,6.15,0,0,0-8.81-.55,8.43,8.43,0,0,0-.22,10.17A5.58,5.58,0,0,0,81.83,138.53Z"/><polygon class="cls-1" points="92.1 133.83 93.39 132.5 97.39 138.16 100.87 138.16 95.29 130.54 100.6 125.21 97.1 125.21 92.1 130.54 92.1 125.21 89.44 125.21 89.44 138.16 92.1 138.16 92.1 133.83"/><polygon class="cls-1" points="284.57 267.84 287.27 266.94 286.74 265.35 279.43 267.77 279.96 269.37 282.68 268.47 285.14 275.9 287.04 275.27 284.57 267.84"/><polygon class="cls-1" points="293.23 263.19 294.37 266.63 290.84 267.8 289.7 264.36 287.83 264.98 290.83 274.01 292.7 273.39 291.36 269.36 294.88 268.19 296.22 272.21 298.1 271.59 295.1 262.57 293.23 263.19"/><rect class="cls-1" x="298.2" y="261.47" width="1.97" height="9.51" transform="translate(-68.69 107.94) rotate(-18.38)"/><path class="cls-1" d="M306,263.6l.5,1.51,2.08-.7a2.43,2.43,0,0,1-.27,1.69,2.33,2.33,0,0,1-1.37,1.06,2.58,2.58,0,0,1-2-.12,3.22,3.22,0,0,1-1.54-2.1,4,4,0,0,1-.12-2.71,2.36,2.36,0,0,1,1.52-1.42,2.65,2.65,0,0,1,1.1-.14,1.83,1.83,0,0,1,1.47.94l1.86-.61a3.4,3.4,0,0,0-1.92-1.78,4.39,4.39,0,0,0-3.05,0,4.32,4.32,0,0,0-2.75,2.39,5.21,5.21,0,0,0,0,3.91,5,5,0,0,0,2.33,3,4,4,0,0,0,3.35.27,3.62,3.62,0,0,0,1.68-1.07,4.68,4.68,0,0,0,.68-1.23l.56,1.06,1.25-.42-1.61-4.84Z"/><polygon class="cls-1" points="315.52 255.78 316.66 259.22 313.13 260.4 311.99 256.95 310.12 257.58 313.12 266.6 314.99 265.98 313.65 261.95 317.18 260.78 318.51 264.81 320.39 264.19 317.39 255.16 315.52 255.78"/><polygon class="cls-1" points="245.14 307.19 242.43 307.19 242.43 320.14 251.56 320.14 251.56 317.81 245.14 317.81 245.14 307.19"/><polygon class="cls-1" points="256.15 314.48 262.44 314.48 262.44 312.23 256.15 312.23 256.15 309.48 263.01 309.48 263.01 307.19 253.51 307.19 253.51 320.14 263.32 320.14 263.32 317.81 256.15 317.81 256.15 314.48"/><path class="cls-1" d="M271.45,315.35h3a3.41,3.41,0,0,1-1.07,2.07,3.23,3.23,0,0,1-2.23.78,3.57,3.57,0,0,1-2.48-1,4.4,4.4,0,0,1-1.09-3.38,5.38,5.38,0,0,1,1-3.56,3.23,3.23,0,0,1,2.58-1.18,3.56,3.56,0,0,1,1.48.29,2.51,2.51,0,0,1,1.5,1.85h2.67a4.64,4.64,0,0,0-1.72-3.12,6.68,6.68,0,0,0-8.55.64,7.23,7.23,0,0,0-1.73,5.05,6.8,6.8,0,0,0,1.71,4.9,5.5,5.5,0,0,0,4.22,1.79,5,5,0,0,0,2.64-.66,6.61,6.61,0,0,0,1.41-1.3l.27,1.61h1.79v-6.95h-5.4Z"/><path class="cls-1" d="M81.63,223.87a3.51,3.51,0,0,0-.37-2.28,3.8,3.8,0,0,0,1.5.18,3.56,3.56,0,0,0,2.14-1.19A4,4,0,0,0,86,218.32q.25-2-1.83-4.07l-5.58-5.31L67.7,220.42l5.2,5a11.59,11.59,0,0,0,1.78,1.4,4.44,4.44,0,0,0,1.86.66,4.35,4.35,0,0,0,1.68-.12A4.64,4.64,0,0,0,80.47,226,4.21,4.21,0,0,0,81.63,223.87Zm-3.42-.36a2,2,0,0,1-2.13.7,3.72,3.72,0,0,1-1.37-.91l-2.82-2.69,2.91-3.06,2.86,2.72a4,4,0,0,1,1,1.3A1.72,1.72,0,0,1,78.21,223.51Zm-1.6-7.86L79,213.12l2.53,2.4a6.38,6.38,0,0,1,1.2,1.48,1.43,1.43,0,0,1-.39,1.66,1.48,1.48,0,0,1-1.42.56,3.3,3.3,0,0,1-1.51-.89Z"/><path class="cls-1" d="M92.35,235.17a3,3,0,0,0-.26-2,3.22,3.22,0,0,0,2.42.18,4.77,4.77,0,0,0,1.95-1.22,4.31,4.31,0,0,0,.93-1.41,5.11,5.11,0,0,0,.33-1.53,4.13,4.13,0,0,0-.34-1.86,7.29,7.29,0,0,0-1.58-2.06l-5.63-5.36L79.24,231.41l2.34,2.23,4.29-4.5,2.48,2.36a2.92,2.92,0,0,1,1.09,1.74,2.85,2.85,0,0,1-1,1.85l-1,1.08a6.74,6.74,0,0,0-.84,1.09c-.12.18-.26.44-.43.76l2.64,2.51.27-.28a1.34,1.34,0,0,1,.19-1.07,8.49,8.49,0,0,1,1-1.13l.74-.77A5.31,5.31,0,0,0,92.35,235.17Zm-4.67-7.93,2.94-3.09,2.79,2.66a3.54,3.54,0,0,1,1,1.31,2,2,0,0,1-.64,2.07,1.78,1.78,0,0,1-1.95.61,4.35,4.35,0,0,1-1.39-1Z"/><polygon class="cls-1" points="95.09 242.56 97.9 239.61 103.47 244.92 105.37 242.93 99.8 237.62 102.12 235.18 108.19 240.96 110.13 238.93 101.71 230.91 90.78 242.4 99.48 250.68 101.44 248.62 95.09 242.56"/><path class="cls-1" d="M115.57,244.11l-15,7.58,2.51,2.39,3-1.61,4.23,4-1.51,3.07,2.6,2.47,6.87-15.35Zm-4,9.78-2.91-2.78L114.4,248Z"/><path class="cls-1" d="M126.14,265.19a7,7,0,0,0-1.17-2.7l-1.53-2.36a8.89,8.89,0,0,1-1-1.9,1.37,1.37,0,0,1,.33-1.44,1.63,1.63,0,0,1,1.54-.52,3.66,3.66,0,0,1,1.84,1,4.13,4.13,0,0,1,1.12,1.62,2.27,2.27,0,0,1-.5,2.33l2.31,2.19a4.71,4.71,0,0,0,1.31-4.07,6.9,6.9,0,0,0-2.18-3.91,6.59,6.59,0,0,0-4.26-2.12,4.6,4.6,0,0,0-3.57,1.5,3.87,3.87,0,0,0-1.2,3.59,10.48,10.48,0,0,0,1.64,3.24l1,1.43a7.22,7.22,0,0,1,1.06,2,1.36,1.36,0,0,1-.34,1.35,1.85,1.85,0,0,1-2.28.38,5.72,5.72,0,0,1-1.55-1.13,3.39,3.39,0,0,1-1.33-2.61,3.29,3.29,0,0,1,.69-1.59l-2.29-2.18a4.68,4.68,0,0,0-1.39,4,7.57,7.57,0,0,0,2.55,4.39,7,7,0,0,0,4.39,2.19,4.59,4.59,0,0,0,3.69-1.46A3.89,3.89,0,0,0,126.14,265.19Z"/><polygon class="cls-1" points="131.55 263.2 135 266.49 126 275.94 128.42 278.24 137.42 268.79 140.85 272.06 142.79 270.03 133.49 261.17 131.55 263.2"/><polygon class="cls-1" points="202.53 216.32 199.84 228 199.22 231.09 198.61 227.88 196.21 216.32 191.76 216.32 189.49 227.94 188.9 231.09 188.32 227.88 185.65 216.32 181.18 216.32 186.9 236.5 190.81 236.5 193.25 224.7 193.96 220.8 194.68 224.7 197.11 236.5 201.14 236.5 206.82 216.32 202.53 216.32"/><rect class="cls-1" x="209.04" y="216.32" width="4.19" height="20.18"/><polygon class="cls-1" points="233.48 236.5 233.48 216.32 229.55 216.32 229.55 230.41 221.51 216.32 217.09 216.32 217.09 236.5 221.02 236.5 221.02 222.17 229.26 236.5 233.48 236.5"/><path class="cls-1" d="M255.2,236.5V225.67h-8.41V229h4.67a5.33,5.33,0,0,1-1.67,3.21,5,5,0,0,1-3.48,1.23,5.58,5.58,0,0,1-3.86-1.55q-1.69-1.55-1.7-5.27c0-2.47.52-4.31,1.57-5.54a5,5,0,0,1,4-1.84,5.82,5.82,0,0,1,2.32.45,4,4,0,0,1,2.34,2.89h4.15a7.24,7.24,0,0,0-2.68-4.87,9.34,9.34,0,0,0-6.18-1.95,9.21,9.21,0,0,0-7.14,3,11.24,11.24,0,0,0-2.69,7.86,10.61,10.61,0,0,0,2.67,7.64,8.54,8.54,0,0,0,6.57,2.78,7.78,7.78,0,0,0,4.11-1,9.52,9.52,0,0,0,2.19-2l.42,2.52Z"/><path class="cls-1" d="M222.23,166.47a4.63,4.63,0,0,0,1.9-.84,4.53,4.53,0,0,0,1.19-1.31,4.83,4.83,0,0,0,.75-2.66,4.45,4.45,0,0,0-.65-2.45,3.75,3.75,0,0,0-1.94-1.47,3.9,3.9,0,0,0,1.27-1,3.7,3.7,0,0,0,.77-2.46,4.19,4.19,0,0,0-.77-2.55q-1.27-1.72-4.35-1.78h-8.11v16.7h7.57A11.76,11.76,0,0,0,222.23,166.47Zm-6.61-13.57h3.67a6.56,6.56,0,0,1,2,.26,1.51,1.51,0,0,1,.9,1.55,1.56,1.56,0,0,1-.68,1.46,3.39,3.39,0,0,1-1.79.42h-4.1Zm0,10.9v-4.45h4.16a4.38,4.38,0,0,1,1.69.28,1.79,1.79,0,0,1,1.07,1.79,2.11,2.11,0,0,1-1.11,2.09,4.08,4.08,0,0,1-1.71.29Z"/><path class="cls-1" d="M232.61,163.27h6.15l1.08,3.43h3.78L237.71,150h-3.94l-6,16.7h3.65Zm3.09-9.45,2.09,6.57h-4.24Z"/><path class="cls-1" d="M252.74,167.16a6.81,6.81,0,0,0,4.78-1.71,7.49,7.49,0,0,0,2.31-4.44h-3.46a5.09,5.09,0,0,1-.88,1.94,3.37,3.37,0,0,1-2.8,1.2,3.69,3.69,0,0,1-2.95-1.4,6.49,6.49,0,0,1-1.16-4.21,7.38,7.38,0,0,1,1.1-4.34,3.49,3.49,0,0,1,3-1.53,3.55,3.55,0,0,1,2.82,1.08,4.61,4.61,0,0,1,.87,1.82h3.49a6,6,0,0,0-1.15-3.12c-1.3-1.84-3.36-2.76-6.16-2.76a7,7,0,0,0-5.19,2.06,10.82,10.82,0,0,0-.28,13.1A7.19,7.19,0,0,0,252.74,167.16Z"/><polygon class="cls-1" points="265.98 161.12 267.64 159.41 272.8 166.7 277.28 166.7 270.09 156.88 276.93 150 272.42 150 265.98 156.88 265.98 150 262.55 150 262.55 166.7 265.98 166.7 265.98 161.12"/></g></g></svg>