<?xml version="1.0" encoding="utf-8"?>
<!-- Generator: Adobe Illustrator 26.0.2, SVG Export Plug-In . SVG Version: 6.00 Build 0)  -->
<svg version="1.1" id="Layer_4" xmlns="http://www.w3.org/2000/svg" xmlns:xlink="http://www.w3.org/1999/xlink" x="0px" y="0px"
	 viewBox="0 0 120 283.5" style="enable-background:new 0 0 120 283.5;" xml:space="preserve">
<style type="text/css">
	.st0{fill:#8C8C8C;}
	.st1{fill:#D6D1BA;}
	.st2{fill:#FFFBE9;}
	.st3{fill:#E55C5C;}
	.st4{fill:#FF9292;}
	.st5{fill:#FF7D7D;}
	.st6{fill:#EA5C5C;}
	.st7{fill:#FF9C9C;}
</style>
<rect x="77.2" y="-2.6" transform="matrix(0.9972 7.526917e-02 -7.526917e-02 0.9972 1.6945 -5.9217)" class="st0" width="4.4" height="44.3"/>
<g>
	<path class="st1" d="M68.3,42.7l1-6.2c0,0,0.1,0,0.1,0c3.3,0.5,6.4-1.7,6.9-5c0.5-3.3-1.7-6.4-5-6.9c-1.4-0.2-2.7,0.1-3.9,0.7
		c-0.9-1-2.1-1.6-3.5-1.9c-3.3-0.5-6.4,1.7-6.9,5c-0.5,3.3,1.7,6.4,5,6.9c0,0,0.1,0,0.1,0l-1,6.2c0.8,0.4,2,0.8,3.3,1
		C66.1,42.9,67.3,42.8,68.3,42.7z"/>
	<path class="st1" d="M95.4,267.8l3.9,4.9c0,0-0.1,0.1-0.1,0.1c-2.6,2.1-3,5.9-0.9,8.4c2.1,2.6,5.9,3,8.4,0.9
		c1.1-0.9,1.8-2.1,2.1-3.3c1.3,0,2.6-0.4,3.7-1.3c2.6-2.1,3-5.9,0.9-8.4c-2.1-2.6-5.9-3-8.4-0.9c0,0-0.1,0.1-0.1,0.1l-3.9-4.9
		c-0.8,0.4-1.9,0.9-3,1.8C96.8,266,96,267,95.4,267.8z"/>
	<path class="st2" d="M100.4,268l4.2,4.7c0,0-0.1,0.1-0.1,0.1c-2.5,2.2-2.6,6-0.4,8.5c2.2,2.5,6,2.6,8.5,0.4c1-0.9,1.7-2.2,1.9-3.5
		c1.3-0.1,2.6-0.6,3.6-1.5c2.5-2.2,2.6-6,0.4-8.5c-2.2-2.5-6-2.6-8.5-0.4c0,0-0.1,0.1-0.1,0.1l-4.2-4.7c-0.8,0.4-1.8,1-2.9,2
		C101.6,266.2,100.9,267.2,100.4,268z"/>
	<path class="st2" d="M73.5,41.3l1-6.2c0,0,0.1,0,0.1,0c3.3,0.5,6.4-1.7,6.9-5c0.5-3.3-1.7-6.4-5-6.9c-1.4-0.2-2.7,0.1-3.9,0.7
		c-0.9-1-2.1-1.6-3.5-1.9c-3.3-0.5-6.4,1.7-6.9,5c-0.5,3.3,1.7,6.4,5,6.9c0,0,0.1,0,0.1,0l-1,6.2c0.8,0.4,2,0.8,3.3,1
		C71.3,41.4,72.6,41.4,73.5,41.3z"/>
	<path class="st3" d="M54.1,110.1L54.1,110.1c7.2,1.1,14-4,15.2-11.5l3.4-21.7l5.5-35.2l-26-4l-5.5,35.2l-3.4,21.8
		C42.1,102.1,47,109,54.1,110.1z"/>
	<path class="st3" d="M46.3,202.8L46.3,202.8c-5.5,4.5-5.3,13.8,0.4,20.6l16.5,19.9l26.7,32.3l19.8-16.4l-26.7-32.3l-16.6-20
		C60.7,200.1,51.7,198.3,46.3,202.8z"/>
	<g>
		<path class="st4" d="M58.9,159.7c5.5-20.1-5.5-36.8-12-51.8c-4.5-10.1-5.9-22.7-5.3-36c-2.6,0.6-4.7,1.2-6,1.6
			C25.3,76.8,11,83.2,3.9,95.8C-3,108,0.8,119,3.4,133.4c10.2,56.2-13.4,77.6,8.1,113.1c7.6,12.5,14,15.6,16.8,16.7
			c10.8,4.3,25.1,1.9,38.3-4.3c-3.8-16-10.5-31.2-13.9-47.6C49,193.6,53.4,179.8,58.9,159.7z"/>
		<g>
			<path class="st5" d="M74,75.5c-10.1-7.1-23.9-5.5-32.4-3.6c-0.6,13.4,0.9,25.9,5.3,36c6.6,14.9,17.5,31.7,12,51.8
				c-5.5,20.1-9.8,33.9-6.2,51.4c3.4,16.5,10.1,31.6,13.9,47.6c11.2-5.3,21.7-13.5,28.5-22.9c1.7-2.2,2.6-4.2,3.2-5.3
				c-11.7-35.9-23.5-126.3-24-154.8C74.2,75.7,74.1,75.6,74,75.5z"/>
			<path class="st6" d="M87.7,132.6c-6.1-35.4-1.9-48.4-13.4-56.8c0.5,28.5,12.3,118.9,24,154.8c0.1-0.1,0.1-0.2,0.2-0.3
				C112.1,203.5,96.1,181.5,87.7,132.6z"/>
		</g>
	</g>
	<g>
		<g>
			<path class="st2" d="M16.7,221c-1.5,0-2.6-1.2-2.6-2.7c0-16.5,1.2-27,2.2-35.4c0.7-6,1.3-11.2,1.3-17.1c0-2.2,0-4.1,0-5.9
				c0-16.6,0-19.2-4.2-45.9c-0.2-1.5,0.7-2.9,2.2-3.2c1.4-0.2,2.8,0.8,3,2.3c4.3,27.2,4.3,29.8,4.2,46.8c0,1.8,0,3.7,0,5.9
				c0,6.2-0.6,11.6-1.4,17.8c-1,8.7-2.2,18.6-2.2,34.8C19.3,219.7,18.1,221,16.7,221C16.7,221,16.7,221,16.7,221z"/>
		</g>
		<g>
			<path class="st2" d="M17.5,126.4c-1,0-1.8-0.8-1.9-1.8c-0.1-1.1,0.7-2.1,1.7-2.2c11.3-1.1,25.2-14.1,25.3-14.2
				c0.8-0.7,2-0.7,2.7,0.1c0.7,0.8,0.6,2.1-0.1,2.8c-0.6,0.6-14.9,13.9-27.5,15.2C17.6,126.4,17.6,126.4,17.5,126.4z"/>
		</g>
		<g>
			<path class="st2" d="M21,141c-1.2,0.1-2.2-0.7-2.4-1.9c-0.2-1.2,0.7-2.3,2-2.5c13.8-1.9,30.1-16.9,30.3-17c0.9-0.9,2.4-0.9,3.3,0
				c0.9,0.9,0.9,2.2,0,3.1c-0.7,0.7-17.6,16.1-32.9,18.3C21.2,141,21.1,141,21,141z"/>
		</g>
		<g>
			<path class="st2" d="M21,153.3c-1.2,0-2.2-0.8-2.3-2c-0.1-1.2,0.8-2.3,2.1-2.4c13.9-1.3,30.9-15.4,31-15.6c1-0.8,2.4-0.7,3.3,0.2
				c0.9,0.9,0.8,2.3-0.2,3.1c-0.7,0.6-18.3,15.3-33.7,16.7C21.1,153.3,21,153.3,21,153.3z"/>
		</g>
		<g>
			<path class="st2" d="M20.5,163c-1-0.2-1.7-1-1.6-2.1c0.1-1.1,1-1.9,2-1.8c11.4,0.7,27.2-9.7,27.3-9.8c0.9-0.6,2.1-0.3,2.7,0.6
				c0.6,0.9,0.3,2.1-0.6,2.7c-0.7,0.5-17,11.2-29.7,10.4C20.6,163.1,20.5,163.1,20.5,163z"/>
		</g>
		<g>
			<path class="st2" d="M22.4,178c-1.2-0.1-2.1-1-2.2-2.2c0-1.2,1-2.2,2.3-2.2c13.9-0.1,31.9-12.8,32.1-13c1-0.7,2.5-0.5,3.3,0.4
				c0.8,1,0.6,2.3-0.4,3.1c-0.8,0.6-19.4,13.7-34.9,13.9C22.5,178,22.5,178,22.4,178z"/>
		</g>
		<g>
			<path class="st2" d="M18.3,212.8c-0.9-0.3-1.6-1.2-1.4-2.1c0.2-1,1.1-1.7,2.2-1.5c11.1,2,27.4-5.9,27.6-6
				c0.9-0.5,2.1-0.1,2.6,0.8c0.5,0.9,0.1,2-0.8,2.5c-0.7,0.3-17.6,8.5-29.9,6.3C18.5,212.8,18.4,212.8,18.3,212.8z"/>
		</g>
		<g>
			<path class="st2" d="M19,202c-1-0.3-1.7-1.4-1.5-2.7c0.2-1.3,1.3-2.2,2.5-2c12.5,2,31.2-9,31.4-9.1c1.1-0.6,2.3-0.2,2.9,1
				c0.5,1.2,0.1,2.6-1,3.3c-0.8,0.5-20.2,11.9-34.1,9.7C19.1,202,19.1,202,19,202z"/>
		</g>
		<g>
			<path class="st2" d="M20.4,190.7c-1.2-0.2-2-1.4-1.8-2.7c0.1-1.4,1.3-2.5,2.6-2.3c13.7,1.3,33.3-11.8,33.5-11.9
				c1.1-0.7,2.5-0.4,3.2,0.8c0.6,1.2,0.3,2.8-0.8,3.5c-0.9,0.6-21.1,14.1-36.4,12.7C20.6,190.7,20.5,190.7,20.4,190.7z"/>
		</g>
	</g>
	<path class="st7" d="M61.6,216.4L61.6,216.4c-5.5,4.5-6.3,12.6-1.8,18l13,15.7l21.1,25.5l19.8-16.4l-21.1-25.5L79.5,218
		C75,212.6,67,211.9,61.6,216.4z"/>
	<path class="st7" d="M59.5,107.7L59.5,107.7c7.1,1.1,13.9-4,15-11.4l3.3-21.5l5.4-34.9l-25.8-4l-5.4,34.9l-3.3,21.6
		C47.6,99.8,52.4,106.6,59.5,107.7z"/>
</g>
<path class="st0" d="M60.9,39c-0.5,4.5,1.9,8.7,5.4,10.1c3.1,1.2,6.7,0,8.9-3.1c-0.1-1.6-0.3-3.2-0.4-4.7c-0.3,0.5-2.3,3.7-5.7,4
	C65.7,45.7,62.3,43.1,60.9,39z"/>
</svg>
