<svg xmlns="http://www.w3.org/2000/svg" viewBox="0 0 499.96 320.44"><defs><style>.cls-1{fill:#fff;}</style></defs><g id="Layer_2" data-name="Layer 2"><g id="Layer_3" data-name="Layer 3"><path d="M499.88,175.59c-4.7-21.45-8.08-43.68-8.46-46.14,0-.16,0-.31,0-.47C486.05,72.44,485.22,56.83,483,53a2.85,2.85,0,0,1-.32-2c4.31-21.09-16.42-24.52-19-24.86a2.68,2.68,0,0,0-.49,0C438.88,27.4,416.6,28.34,396.17,29a96,96,0,0,1,3.64,11.31l-1,.26a93.69,93.69,0,0,0-3.66-11.35l.45-.2c-16.15.52-31.13.88-45,1.09.56,1.78,1.63,5.37,2.84,10.37l-1,.23c-1.28-5.27-2.4-8.95-2.91-10.58-19,.28-36,.29-51.17.11.25.82,1.5,4.91,3.06,11.49l-1,.23c-1.73-7.3-3.08-11.53-3.1-11.57l.48-.15c-34.66-.43-59.93-1.87-78.58-3.51.2.29.41.58.6.88l-.84.55c-.26-.41-.53-.81-.81-1.21l.41-.28c-27.57-2.45-40.5-5.32-48-5.83a50.17,50.17,0,0,1,.42,5.94l-1,0a44.11,44.11,0,0,0-.43-5.91l.5-.08h0c-18-1-34.92,8.65-34.92,8.65,5.84-2.92,3.47-10.45,2.81-12.25a2.86,2.86,0,0,0-.37-.69c-9.94-13.43-22.31-5-26.17-1.77a2.81,2.81,0,0,1-3,.37c-4.71-2.27-14.84-8.94-14.84-8.94C78.2-5.57,63.84,2.67,60.71,4.74a2.56,2.56,0,0,0-.83.87C57.56,9.84,45.2,16.86,41.11,19.1a2.79,2.79,0,0,1-2.63,0C5.8,2.21.79,19.89,0,25.11a2.81,2.81,0,0,0,.7,2.28C17.84,45.9,31.88,41.6,37.19,38.85a2.8,2.8,0,0,1,4,1.65c2.72,9,3.21,34,3.28,39.21a2.82,2.82,0,0,1-.53,1.68c-3,4.06-15.74,24.22,15.18,32.87,11.71,3.27,20.3-5,23.2-8.32a2.83,2.83,0,0,1,2.89-.89c7.4,2.08,15.31,7.73,23,15l-.24-.45c1.75-1,3.5-2,5.19-3l.51.85c-1.65,1-3.36,2-5.08,2.93,9.07,8.63,17.83,19.48,25.09,29.42l0-.5,3.76-.39.1,1-3.47.37c10,13.76,17.12,25.66,18.08,27.28.07.13.13.26.19.4,9.29,25.33,26.48,30.25,33.76,31.18l-.27-.42a87.73,87.73,0,0,1,10.59-5.83l.42.91a89.38,89.38,0,0,0-10.08,5.51,2.79,2.79,0,0,1,1.8,2.73c-.37,9.8,9.84,42.57,11.89,49.06a2.62,2.62,0,0,1-.09,1.91c-3.57,7.82.14,41.08-7.86,40.44-8.32-.66-27.94,8-12.31,12.55s36.91,10.06,34.25-8.89c-2.38-17,1.93-41.27,2.83-46.05a2.75,2.75,0,0,1,.64-1.3c4.82-5.54,4.45-31.95,2.52-47.42-2-16,2-17,4.65-16,2.46.93,7.48,22.32,8.23,25.54a2.81,2.81,0,0,1,.05.82A58.49,58.49,0,0,0,241,257.7a3.21,3.21,0,0,0,.89.87c8.37,5.56,8.84,30.06,8.8,36.84a2.73,2.73,0,0,1-1.55,2.47c-9.42,4.63-23,13.78,1.53,17.56,15.85,2.44,21-3.32,22.65-8.16A9.59,9.59,0,0,0,272,299c-13.6-20.4-11-82.26-10-99.44a2.8,2.8,0,0,1,3.75-2.47c5,1.84,14.2,2.84,25.4,3.29l-.46-.2c.71-1.63,1.4-3.3,2.06-5l.93.37c-.64,1.62-1.31,3.24-2,4.82,36.05,1.4,92.47-2.76,99.16-3.27a2.7,2.7,0,0,1,1.23.19c2.67,1.07,14.73,5.42,37.64,6.85a17.72,17.72,0,0,0,2.52,0l0-.5c.05,0,4.8.38,12,.59l0,1c-6.54-.19-11.06-.52-11.87-.58l4.46,21.9c-4.94,36.7-18.85,56.81-18.85,56.81-14.2,2.69-28.76,14.83-8,19.37,15.13,3.29,25.83-7,30.54-12.82a8.57,8.57,0,0,0,1.52-7.76c6.16-27.24,15-54.58,20.56-70.54l10,22.61a3,3,0,0,1,.24.94c2.49,31.83-4.16,52.93-5.94,57.9a2.77,2.77,0,0,1-1.48,1.6c-12.84,6-23.31,20.15-2.6,20.15,16.1,0,24.4-13.32,27.48-19.81a7.12,7.12,0,0,0-.19-6.48,2.92,2.92,0,0,1-.35-1.38c.37-39,5.82-79.2,6.82-86.29a4.41,4.41,0,0,0-.49-2c-7.35-21.14-12.67-47.08-17-74.63-.55-3.52,3-47.27,2.63-39.29-1,22.84,9,79,12.7,92.08C495.41,180.48,500.65,179.14,499.88,175.59ZM124.13,110.64l-.58-.81c3.41-2.44,6.7-5,9.76-7.64l.65.76C130.88,105.6,127.57,108.19,124.13,110.64Zm18.16-17a110.28,110.28,0,0,0,8-9.42l.8.61a113.77,113.77,0,0,1-8.1,9.5Zm7.13,55.11-.09-1c4-.36,8-.69,12-1l.07,1C157.43,148.1,153.4,148.43,149.42,148.78Zm8.65-74.3-.86-.51a96,96,0,0,0,5.56-11l.92.4A97.93,97.93,0,0,1,158.07,74.48Zm9.76-23-1-.27a89.89,89.89,0,0,0,2.49-12.12l1,.14A92.16,92.16,0,0,1,167.83,51.52ZM173.34,147l-.06-1c4-.24,8.05-.44,12-.6l0,1C181.38,146.58,177.35,146.78,173.34,147Zm24-1,0-1c4-.09,8.06-.15,12-.17v1C205.34,145.87,201.31,145.93,197.3,146Zm21.09,54.77c-2.53-1.41-6-1.69-10.39-.84l-.19-1c4.58-.91,8.32-.59,11.07.94Zm13-139.11c.58,3.76,1.06,7.78,1.41,11.95l-1,.09c-.36-4.15-.83-8.14-1.41-11.89Zm-6-23.3A93,93,0,0,1,229,49.87l-1,.24a92.61,92.61,0,0,0-3.61-11.36ZM222.5,193.07l-1-.22s1-4.46,2.34-11.78l1,.18C223.5,188.59,222.51,193,222.5,193.07Zm4.41-23.66-1-.17c.64-3.94,1.25-7.93,1.81-11.86l1,.14C228.17,161.45,227.56,165.45,226.91,169.41Zm6.35-23.2c-3.92-.14-7.95-.25-12-.31v-1c2.7,0,5.39.11,8.06.19.47-3.89.9-7.77,1.27-11.53l1,.09c-.36,3.75-.79,7.6-1.25,11.47,1,0,2,0,2.93.09Zm-.63-24.53-1-.07c.3-4.07.53-8.09.69-12l1,0C233.16,113.57,232.92,117.61,232.63,121.68Zm1-24h-1c0-.82,0-1.64,0-2.45,0-3.25,0-6.45-.16-9.53l1,0c.11,3.08.16,6.3.16,9.56C233.64,96,233.64,96.84,233.63,97.66Zm23.55,50c-3.92-.33-7.94-.62-12-.85l.06-1c4,.23,8.05.52,12,.85ZM281,150.26c-3.89-.54-7.89-1-11.89-1.48l.11-1c4,.44,8,.94,11.92,1.48ZM303.94,53.5c.74,3.9,1.42,7.89,2,11.85l-1,.15c-.59-4-1.26-7.93-2-11.82Zm-6.17,130.75-.94-.31c1.23-3.74,2.39-7.6,3.42-11.47l1,.26C300.18,176.62,299,180.49,297.77,184.25ZM304,161l-1-.2c.45-2.16.87-4.36,1.27-6.56-3.75-.77-7.61-1.5-11.48-2.17l.17-1c3.87.66,7.73,1.39,11.48,2.16.25-1.41.5-2.82.72-4.23l1,.15C305.56,153.19,304.83,157.17,304,161Zm3.46-83.75c.43,4,.79,8,1.06,12l-1,.06c-.27-4-.62-8-1.05-11.93Zm.27,60-1-.1c.42-3.93.75-7.94,1-11.94l1,.06C308.51,129.31,308.18,133.34,307.75,137.28Zm1.45-24-1,0c0-1.4,0-2.8,0-4.18,0-2.58,0-5.21-.11-7.8l1,0c.07,2.6.11,5.23.11,7.82Q309.23,111.18,309.2,113.29Zm18.64,46.78c-3.74-1.09-7.63-2.14-11.57-3.11l.24-1c3.95,1,7.85,2,11.61,3.12Zm22.63,7.77c-3.61-1.45-7.39-2.85-11.22-4.17l.32-.94c3.85,1.32,7.64,2.73,11.27,4.19Zm-3-9.13-.92-.38c1.52-3.63,2.92-7.4,4.16-11.21l.95.31C350.46,151.27,349.06,155.07,347.52,158.71Zm9.68-101.5s4.86.1,12,.17v1c-7.16-.07-12-.17-12-.17Zm2.54,30.89-1,0c-.1-3.93-.31-8-.63-12l1-.08C359.43,80.11,359.64,84.15,359.74,88.1ZM355,135.85l-1-.23c.91-3.81,1.71-7.75,2.37-11.72l1,.17C356.7,128.06,355.9,132,355,135.85Zm1.86-71.59c-.53-4-1.16-7.93-1.88-11.83l1-.19c.73,3.92,1.36,7.92,1.89,11.88ZM357.92,112c.38-3.91.64-7.93.77-12l1,0c-.14,4-.4,8.07-.77,12Zm2.1,15.21c.05,0,4.8,1.67,11.52,3.19l-.22,1a113.78,113.78,0,0,1-11.63-3.23Zm12,50.92c-3.33-1.9-6.9-3.76-10.6-5.52l.43-.9c3.72,1.77,7.31,3.64,10.67,5.55Zm3-79.84a53.36,53.36,0,0,1-11.58-3.54l.44-.9a52.91,52.91,0,0,0,11.34,3.46Zm6.17-40.88h1.42c3.44,0,7,0,10.57-.05v1c-3.56,0-7.14.05-10.58.05h-1.42Zm2.11,75a75.17,75.17,0,0,0,8.74.53c1.07,0,2.14,0,3.16-.08l0,1c-1,.05-2.12.08-3.21.08h0a79.61,79.61,0,0,1-8.85-.53Zm8.05,59.59a75.46,75.46,0,0,0-9.25-7.51l.58-.81a76.54,76.54,0,0,1,9.37,7.6Zm4.56-8.92-1-.23c.93-3.88,1.82-7.82,2.63-11.69l1,.2C397.75,175.31,396.87,179.25,395.93,183.14Zm-3-83.06c-2,0-4-.06-5.95-.18l.06-1a96.93,96.93,0,0,0,11.93,0l.06,1C397,100,395,100.08,393,100.08Zm12.73-24.21c.33,3.92.57,7.95.72,12l-1,0c-.15-4-.39-8.06-.71-12Zm-3.21-23.82c.74,3.82,1.39,7.81,1.93,11.87l-1,.13c-.53-4-1.18-8-1.91-11.82Zm-1.6,107.58-1-.18c.71-3.94,1.36-7.91,1.94-11.82l1,.14C402.24,151.69,401.59,155.68,400.87,159.63Zm3.52-23.77-1-.11c.46-4,.85-8,1.16-11.93l1,.08C405.24,127.82,404.85,131.85,404.39,135.86Zm1.91-24-1,0c.18-4,.28-8,.29-12h1C406.58,103.84,406.48,107.88,406.3,111.91Zm.86,19.71-.36-.93.62-.25.38.93Zm49.06,73.7v-1c4.12,0,8.15-.15,12-.35l.05,1C464.41,205.17,460.36,205.29,456.22,205.32Zm35.74-4,.19,1c-3.65.71-7.65,1.3-11.91,1.76l-.11-1C484.36,202.57,488.34,202,492,201.29Z"/><path class="cls-1" d="M170.09,26.8l1,0a50.17,50.17,0,0,0-.42-5.94l0-.11-.49.08-.5.08A44.11,44.11,0,0,1,170.09,26.8Z"/><path class="cls-1" d="M150.32,84.25a110.28,110.28,0,0,1-8,9.42l.73.69a113.77,113.77,0,0,0,8.1-9.5Z"/><path class="cls-1" d="M157.21,74l.86.51a97.93,97.93,0,0,0,5.62-11.16l-.92-.4A96,96,0,0,1,157.21,74Z"/><path class="cls-1" d="M166.86,51.25l1,.27a92.16,92.16,0,0,0,2.52-12.25l-1-.14A89.89,89.89,0,0,1,166.86,51.25Z"/><path class="cls-1" d="M123.55,109.83l.58.81c3.44-2.45,6.75-5,9.83-7.69l-.65-.76C130.25,104.82,127,107.39,123.55,109.83Z"/><path class="cls-1" d="M113.15,116.63c-1.69,1-3.44,2-5.19,3l.24.45.24.43.14-.08c1.72-1,3.43-1.93,5.08-2.93Z"/><path class="cls-1" d="M293,151.12l-.17,1c3.87.67,7.73,1.4,11.48,2.17.06-.33.11-.66.17-1C300.73,152.51,296.87,151.78,293,151.12Z"/><path class="cls-1" d="M339.25,163.67c3.83,1.32,7.61,2.72,11.22,4.17l.37-.92c-3.63-1.46-7.42-2.87-11.27-4.19Z"/><path class="cls-1" d="M316.27,157c3.94,1,7.83,2,11.57,3.11l.28-1c-3.76-1.1-7.66-2.14-11.61-3.12Z"/><path class="cls-1" d="M395,182.91l1,.23c.94-3.89,1.82-7.83,2.64-11.72l-1-.2C396.78,175.09,395.89,179,395,182.91Z"/><path class="cls-1" d="M361.42,172.65c3.7,1.76,7.27,3.62,10.6,5.52l.5-.87c-3.36-1.91-6.95-3.78-10.67-5.55Z"/><path class="cls-1" d="M406.4,87.87c-.15-4.05-.39-8.08-.72-12l-1,.09c.32,3.89.56,7.92.71,12Z"/><path class="cls-1" d="M398.84,40.57l1-.26A96,96,0,0,0,396.17,29c-.05-.11-.07-.17-.08-.18l-.46.2-.45.2A93.69,93.69,0,0,1,398.84,40.57Z"/><path class="cls-1" d="M173.28,146l.06,1c4-.23,8-.43,12-.59l0-1C181.33,145.58,177.3,145.78,173.28,146Z"/><path class="cls-1" d="M209.28,144.85c-3.95,0-8,.08-12,.17l0,1c4-.09,8-.15,12-.17Z"/><path class="cls-1" d="M403.4,135.75l1,.11c.46-4,.85-8,1.17-12l-1-.08C404.25,127.73,403.86,131.74,403.4,135.75Z"/><path class="cls-1" d="M149.33,147.79l.09,1c4-.35,8-.68,12-1l-.07-1C157.35,147.1,153.32,147.43,149.33,147.79Z"/><path class="cls-1" d="M137.38,148.94l-3.76.39,0,.5.05.5.29,0,3.47-.37Z"/><path class="cls-1" d="M405.3,111.86l1,0c.18-4,.28-8.07.29-12h-1C405.58,103.82,405.48,107.85,405.3,111.86Z"/><path class="cls-1" d="M382.12,184.55a75.46,75.46,0,0,1,9.25,7.51l.7-.72a76.54,76.54,0,0,0-9.37-7.6Z"/><path class="cls-1" d="M245.23,146.78c4,.23,8,.52,12,.85l.08-1c-3.92-.33-7.95-.62-12-.85Z"/><path class="cls-1" d="M269.1,148.78c4,.44,8,.94,11.89,1.48l.14-1c-3.9-.54-7.91-1-11.92-1.48Z"/><path class="cls-1" d="M230.3,145.6l-1-.12c0-.13,0-.26,0-.39-2.67-.08-5.36-.15-8.06-.19v1c4,.06,8.06.17,12,.31l0-1c-1,0-1.95-.06-2.93-.09Z"/><path class="cls-1" d="M399.89,159.45l1,.18c.72-3.95,1.37-7.94,1.95-11.86l-1-.14C401.25,151.54,400.6,155.51,399.89,159.45Z"/><path class="cls-1" d="M404.4,63.92c-.54-4.06-1.19-8.05-1.93-11.87l-1,.18c.73,3.81,1.38,7.79,1.91,11.82Z"/><path class="cls-1" d="M232.77,73.63c-.35-4.17-.83-8.19-1.41-11.95l-1,.15c.58,3.75,1,7.74,1.41,11.89Z"/><path class="cls-1" d="M219,28.16l.84-.55c-.19-.3-.4-.59-.6-.88-.07-.12-.15-.23-.23-.35l-.41.29-.41.28C218.5,27.35,218.77,27.75,219,28.16Z"/><path class="cls-1" d="M225.93,169.24l1,.17c.65-4,1.26-8,1.82-11.89l-1-.14C227.18,161.31,226.57,165.3,225.93,169.24Z"/><path class="cls-1" d="M229,49.87a93,93,0,0,0-3.65-11.49l-.93.37A92.61,92.61,0,0,1,228,50.11Z"/><path class="cls-1" d="M221.53,192.85l1,.22s1-4.48,2.35-11.82l-1-.18C222.52,188.39,221.54,192.81,221.53,192.85Z"/><path class="cls-1" d="M231.63,121.61l1,.07c.29-4.07.53-8.11.69-12l-1,0C232.16,113.52,231.93,117.54,231.63,121.61Z"/><path class="cls-1" d="M232.48,85.67c.11,3.08.16,6.28.16,9.53,0,.81,0,1.63,0,2.45h1c0-.82,0-1.64,0-2.46,0-3.26,0-6.48-.16-9.56Z"/><path class="cls-1" d="M230.3,145.6l.06-.48c.46-3.87.89-7.72,1.25-11.47l-1-.09c-.37,3.76-.8,7.64-1.27,11.53,0,.13,0,.26,0,.39Z"/><path class="cls-1" d="M308.12,101.29c.07,2.59.11,5.22.11,7.8,0,1.38,0,2.78,0,4.18l1,0q0-2.12,0-4.2c0-2.59,0-5.22-.11-7.82Z"/><path class="cls-1" d="M304.48,153.28c-.06.33-.11.66-.17,1-.4,2.2-.82,4.4-1.27,6.56l1,.2c.81-3.86,1.54-7.84,2.17-11.83l-1-.15C305,150.46,304.73,151.87,304.48,153.28Z"/><path class="cls-1" d="M306.76,137.18l1,.1c.43-3.94.76-8,1-12l-1-.06C307.51,129.24,307.18,133.25,306.76,137.18Z"/><path class="cls-1" d="M306,65.35c-.59-4-1.27-7.95-2-11.85l-1,.18c.74,3.89,1.41,7.87,2,11.82Z"/><path class="cls-1" d="M292.73,195.18c-.66,1.67-1.35,3.34-2.06,5l.46.2.46.2.08-.18c.68-1.58,1.35-3.2,2-4.82Z"/><path class="cls-1" d="M300.47,42l1-.23c-1.56-6.58-2.81-10.67-3.06-11.49a.91.91,0,0,0-.06-.16l-.47.16-.48.15S298.74,34.66,300.47,42Z"/><path class="cls-1" d="M308.54,89.26c-.27-4-.63-8-1.06-12l-1,.11c.43,4,.78,8,1.05,11.93Z"/><path class="cls-1" d="M296.83,183.94l.94.31c1.25-3.76,2.41-7.63,3.45-11.52l-1-.26C299.22,176.34,298.06,180.2,296.83,183.94Z"/><path class="cls-1" d="M353.43,40.48c-1.21-5-2.28-8.59-2.84-10.37-.25-.81-.4-1.24-.4-1.25l-.95.32s.12.34.31.95c.51,1.63,1.63,5.31,2.91,10.58Z"/><path class="cls-1" d="M355,52.43c.72,3.9,1.35,7.88,1.88,11.83l1-.14c-.53-4-1.16-8-1.89-11.88Z"/><path class="cls-1" d="M358.74,88.12l1,0c-.1-3.95-.31-8-.64-12l-1,.08C358.43,80.17,358.64,84.19,358.74,88.12Z"/><path class="cls-1" d="M346.6,158.33l.92.38c1.54-3.64,2.94-7.44,4.19-11.28l-.95-.31C349.52,150.93,348.12,154.7,346.6,158.33Z"/><path class="cls-1" d="M354,135.62l1,.23c.92-3.83,1.72-7.79,2.38-11.78l-1-.17C355.72,127.87,354.92,131.81,354,135.62Z"/><path class="cls-1" d="M358.69,100.09c-.13,4-.39,8-.77,12l1,.09c.37-3.93.63-8,.77-12Z"/><path class="cls-1" d="M393.21,58.4v-1c-3.56,0-7.13.05-10.57.05h-1.42v1h1.42C386.07,58.45,389.65,58.44,393.21,58.4Z"/><path class="cls-1" d="M369.21,57.38c-7.15-.07-12-.17-12-.17l0,1s4.86.1,12,.17Z"/><path class="cls-1" d="M371.54,130.44c-6.72-1.52-11.47-3.18-11.52-3.19l-.33.94a113.78,113.78,0,0,0,11.63,3.23Z"/><path class="cls-1" d="M406.8,130.69l.36.93.64-.25-.38-.93Z"/><path class="cls-1" d="M392.06,134c1.09,0,2.17,0,3.21-.08l0-1c-1,.05-2.09.08-3.16.08a75.17,75.17,0,0,1-8.74-.53l-.12,1a79.61,79.61,0,0,0,8.85.53Z"/><path class="cls-1" d="M387.06,98.9l-.06,1c1.95.12,3.95.18,5.95.18s4.07-.06,6.1-.19l-.06-1A96.93,96.93,0,0,1,387.06,98.9Z"/><path class="cls-1" d="M363.46,94.79A53.36,53.36,0,0,0,375,98.33l.2-1a52.91,52.91,0,0,1-11.34-3.46Z"/><path class="cls-1" d="M196.36,202.91a87.73,87.73,0,0,0-10.59,5.83l.27.42.28.42.38-.25a89.38,89.38,0,0,1,10.08-5.51Z"/><path class="cls-1" d="M207.81,199l.19,1c4.34-.85,7.86-.57,10.39.84l.49-.88C216.13,198.38,212.39,198.06,207.81,199Z"/><path class="cls-1" d="M492.15,202.27l-.19-1c-3.62.7-7.6,1.28-11.83,1.74l.11,1C484.5,203.57,488.5,203,492.15,202.27Z"/><path class="cls-1" d="M444.23,204.2c-7.17-.21-11.92-.58-12-.59l0,.5,0,.5h.15c.81.06,5.33.39,11.87.58Z"/><path class="cls-1" d="M456.22,204.32v1c4.14,0,8.19-.15,12-.35l-.05-1C464.37,204.17,460.34,204.29,456.22,204.32Z"/></g></g></svg>