<svg xmlns="http://www.w3.org/2000/svg" viewBox="0 0 499.96 320.44"><defs><style>.cls-1{fill:#fff;}</style></defs><g id="Layer_2" data-name="Layer 2"><g id="Layer_4" data-name="Layer 4"><path d="M382.85,46.35A1.45,1.45,0,0,0,384,45.8a2.44,2.44,0,0,0,.43-1.56,2.46,2.46,0,0,0-.43-1.55,1.54,1.54,0,0,0-2.36,0,3,3,0,0,0,0,3.11A1.45,1.45,0,0,0,382.85,46.35Z"/><path d="M344.13,107a4.45,4.45,0,0,0,2.88-.69,2.83,2.83,0,0,0,.19-4.32,5.48,5.48,0,0,0-5.7-.24,2.83,2.83,0,0,0-.18,4.32A4.39,4.39,0,0,0,344.13,107Z"/><path d="M324.74,85.46a1.37,1.37,0,0,0-1.36.57,2.25,2.25,0,0,0-.24,1L323,89.6l2.93.12.11-2.45a2.6,2.6,0,0,0-.14-1.11A1.22,1.22,0,0,0,324.74,85.46Z"/><path d="M385.94,75.74h-1V76.9h1a1,1,0,0,0,.44-.07.49.49,0,0,0,.25-.49.54.54,0,0,0-.25-.53A.89.89,0,0,0,385.94,75.74Z"/><path d="M372.35,43.81a.68.68,0,0,0,.35-.67.75.75,0,0,0-.34-.73,1.26,1.26,0,0,0-.58-.1h-1.37v1.6h1.34A1.38,1.38,0,0,0,372.35,43.81Z"/><path d="M393.8,114.73a1,1,0,0,0-.88.34,1.78,1.78,0,0,0-.38,1.1,1.69,1.69,0,0,0,.25,1.13,1.05,1.05,0,0,0,.82.45,1.07,1.07,0,0,0,.87-.34,1.8,1.8,0,0,0,.38-1.1,1.75,1.75,0,0,0-.24-1.13A1,1,0,0,0,393.8,114.73Z"/><path d="M394,78.66a1,1,0,0,0,.85-.39,1.79,1.79,0,0,0,.32-1.13A1.76,1.76,0,0,0,394.8,76a1.1,1.1,0,0,0-1.7,0,1.7,1.7,0,0,0-.32,1.12,1.73,1.73,0,0,0,.32,1.13A1,1,0,0,0,394,78.66Z"/><path d="M385.85,114.35l-1-.06-.07,1.15,1,.06a1.06,1.06,0,0,0,.43,0,.49.49,0,0,0,.29-.47.56.56,0,0,0-.22-.54A.94.94,0,0,0,385.85,114.35Z"/><path d="M268.67,106a2.36,2.36,0,0,0-2.37-1.23,2.6,2.6,0,0,0-2.53,1.24,4.4,4.4,0,0,0-.35,2l.05,4.88,5.6-.05,0-4.76A5.16,5.16,0,0,0,268.67,106Z"/><path d="M276.8,83.52l-.05-5.14a4.87,4.87,0,0,0-.39-2.13,2.6,2.6,0,0,0-2.61-1.37,2.25,2.25,0,0,0-2.23,1.37,5.43,5.43,0,0,0-.33,2.12l.05,5.2Z"/><path d="M163.63,170.23a2.49,2.49,0,0,0-1-.17h-2.47v2.68h2.44a2.39,2.39,0,0,0,1-.18,1.27,1.27,0,0,0,.66-1.26A1.08,1.08,0,0,0,163.63,170.23Z"/><polygon points="204.83 225.36 206.32 225.36 205.58 223.08 204.83 225.36"/><path d="M444.59,59.54a12.84,12.84,0,0,0-4.72-.79,11.58,11.58,0,0,0-5.82,1.18q-2,1.18-2,4.72v4.79l16.19,0V64.67A5.17,5.17,0,0,0,444.59,59.54Z"/><polygon points="262.01 174.39 264.63 174.67 263.78 170.49 262.01 174.39"/><path d="M245.6,168l-1.93-.21-.33,3,1.93.21a1.65,1.65,0,0,0,1.18-.25,1.52,1.52,0,0,0,.54-1.13,1.43,1.43,0,0,0-.29-1.18A1.73,1.73,0,0,0,245.6,168Z"/><path d="M267.79,83.61l-.05-5.14a4.34,4.34,0,0,0-.54-2.24,2,2,0,0,0-1.84-.84,1.86,1.86,0,0,0-1.91,1.16,8,8,0,0,0-.31,2.5l.05,4.6Z"/><path d="M370.8,115.93a2.17,2.17,0,0,0,.14-2.23,1,1,0,0,0-.82-.45,1,1,0,0,0-.87.34,1.72,1.72,0,0,0-.38,1.1,1.75,1.75,0,0,0,.24,1.13,1.1,1.1,0,0,0,1.69.11Z"/><path d="M163.65,168.14a.93.93,0,0,0,.41-.88.9.9,0,0,0-.54-.93,3.92,3.92,0,0,0-1.19-.15h-2.18v2.21h2.44A2,2,0,0,0,163.65,168.14Z"/><path d="M375,114.78a.76.76,0,0,0,.06-1,.74.74,0,0,0-.47-.17l-.8-.05-.08,1.26.8,0A.68.68,0,0,0,375,114.78Z"/><path d="M378.3,77.93a2.29,2.29,0,0,0,.14-.83,2,2,0,0,0-.21-1,.88.88,0,0,0-.82-.35h-.84v2.82h.84A.9.9,0,0,0,378.3,77.93Z"/><path d="M370.17,144a1.3,1.3,0,0,0-1.13.28,2.14,2.14,0,0,0-.65,1.28,2.21,2.21,0,0,0,.12,1.43,1.31,1.31,0,0,0,.94.68,1.27,1.27,0,0,0,1.12-.28,2.68,2.68,0,0,0,.53-2.71A1.27,1.27,0,0,0,370.17,144Z"/><path d="M364.8,143.13l-1.13-.22-.22,1.15,1.26.25a1.1,1.1,0,0,0,.58,0,.47.47,0,0,0,.3-.41.49.49,0,0,0-.19-.54A2.21,2.21,0,0,0,364.8,143.13Z"/><path d="M370,153.16l-1.2-.23-.27,1.39,1.17.23a1.27,1.27,0,0,0,.54,0,.59.59,0,0,0,.42-.53.67.67,0,0,0-.17-.69A1.08,1.08,0,0,0,370,153.16Z"/><path d="M364.56,145.17l-1.28-.25-.27,1.39,1.26.24a1.31,1.31,0,0,0,.55,0,.69.69,0,0,0,.47-.59.57.57,0,0,0-.23-.62A1.41,1.41,0,0,0,364.56,145.17Z"/><path d="M173.58,166.36a2,2,0,0,0-1-.18h-2.32v2.7h2.26a2.36,2.36,0,0,0,1-.17,1.12,1.12,0,0,0,.6-1.13A1.24,1.24,0,0,0,173.58,166.36Z"/><path d="M446.44,135.21a12.42,12.42,0,0,0-12.91,0,5.9,5.9,0,0,0-2.29,4.88A6,6,0,0,0,433.5,145a12.33,12.33,0,0,0,12.93,0,6,6,0,0,0,2.28-4.91A5.94,5.94,0,0,0,446.44,135.21Z"/><path d="M435.35,161.22a3.13,3.13,0,0,0-3,1.41,5.18,5.18,0,0,0-.44,2.4v5.72h6.66v-5.58a5.9,5.9,0,0,0-.4-2.49A2.79,2.79,0,0,0,435.35,161.22Z"/><path d="M379.72,154.9a1.28,1.28,0,0,0-1.12.27,2.14,2.14,0,0,0-.65,1.28,2.23,2.23,0,0,0,.12,1.44,1.39,1.39,0,0,0,2.06.4,2.19,2.19,0,0,0,.64-1.29,2.12,2.12,0,0,0-.12-1.42A1.25,1.25,0,0,0,379.72,154.9Z"/><path d="M383.78,150.49a1.28,1.28,0,0,0,1.12-.28,2.68,2.68,0,0,0,.53-2.71,1.37,1.37,0,0,0-2.06-.4,2.17,2.17,0,0,0-.65,1.28,2.2,2.2,0,0,0,.12,1.43A1.31,1.31,0,0,0,383.78,150.49Z"/><polygon points="333.85 183.06 336.32 183.36 335.67 178.53 333.85 183.06"/><path d="M499.88,175.59c-4.7-21.45-8.08-43.68-8.46-46.14,0-.16,0-.31,0-.47C486.05,72.44,485.22,56.83,483,53a2.85,2.85,0,0,1-.32-2c4.31-21.09-16.42-24.52-19-24.86a2.68,2.68,0,0,0-.49,0C438.88,27.4,416.6,28.34,396.17,29a96,96,0,0,1,3.64,11.31l-1,.26a93.69,93.69,0,0,0-3.66-11.35l.45-.2c-16.15.52-31.13.88-45,1.09.56,1.78,1.63,5.37,2.84,10.37l-1,.23c-1.28-5.27-2.4-8.95-2.91-10.58-19,.28-36,.29-51.17.11.25.82,1.5,4.91,3.06,11.49l-1,.23c-1.73-7.3-3.08-11.53-3.1-11.57l.48-.15c-34.66-.43-59.93-1.87-78.58-3.51.2.29.41.58.6.88l-.84.55c-.26-.41-.53-.81-.81-1.21l.41-.28c-27.57-2.45-40.5-5.32-48-5.83a50.17,50.17,0,0,1,.42,5.94l-1,0a44.11,44.11,0,0,0-.43-5.91l.5-.08h0c-18-1-34.92,8.65-34.92,8.65,5.84-2.92,3.47-10.45,2.81-12.25a2.86,2.86,0,0,0-.37-.69c-9.94-13.43-22.31-5-26.17-1.77a2.81,2.81,0,0,1-3,.37c-4.71-2.27-14.84-8.94-14.84-8.94C78.2-5.57,63.84,2.67,60.71,4.74a2.56,2.56,0,0,0-.83.87C57.56,9.84,45.2,16.86,41.11,19.1a2.79,2.79,0,0,1-2.63,0C5.8,2.21.79,19.89,0,25.11a2.81,2.81,0,0,0,.7,2.28C17.84,45.9,31.88,41.6,37.19,38.85a2.8,2.8,0,0,1,4,1.65c2.72,9,3.21,34,3.28,39.21a2.82,2.82,0,0,1-.53,1.68c-3,4.06-15.74,24.22,15.18,32.87,11.71,3.27,20.3-5,23.2-8.32a2.83,2.83,0,0,1,2.89-.89c7.4,2.08,15.31,7.73,23,15l-.24-.45c1.75-1,3.5-2,5.19-3l.51.85c-1.65,1-3.36,2-5.08,2.93,9.07,8.63,17.83,19.48,25.09,29.42l0-.5,3.76-.39.1,1-3.47.37c10,13.76,17.12,25.66,18.08,27.28.07.13.13.26.19.4,9.29,25.33,26.48,30.25,33.76,31.18l-.27-.42a87.73,87.73,0,0,1,10.59-5.83l.42.91a89.38,89.38,0,0,0-10.08,5.51,2.79,2.79,0,0,1,1.8,2.73c-.2,5.25,2.63,17.07,5.63,27.93l.43-.24c0,.06,3.13,5.7,8,8.47l-.5.87a24,24,0,0,1-7.41-7.36c2.44,8.74,4.89,16.56,5.78,19.39a2.62,2.62,0,0,1-.09,1.91c-3.57,7.82.14,41.08-7.86,40.44-8.32-.66-27.94,8-12.31,12.55s36.91,10.06,34.25-8.89c-2.38-17,1.93-41.27,2.83-46.05a2.75,2.75,0,0,1,.64-1.3c2.31-2.65,3.43-10.11,3.75-18.85a26.64,26.64,0,0,1-7.7,8l-.52-.85c2.65-1.63,5.29-4.43,7.84-8.36l.42.28a193.57,193.57,0,0,0-1.27-27.63c-2-16,2-17,4.65-16,2.46.93,7.48,22.32,8.23,25.54a2.81,2.81,0,0,1,.05.82A58.49,58.49,0,0,0,241,257.7a3.21,3.21,0,0,0,.89.87c8.37,5.56,8.84,30.06,8.8,36.84a2.73,2.73,0,0,1-1.55,2.47c-9.42,4.63-23,13.78,1.53,17.56,15.85,2.44,21-3.32,22.65-8.16A9.59,9.59,0,0,0,272,299c-13.6-20.4-11-82.26-10-99.44a2.8,2.8,0,0,1,3.75-2.47c5,1.84,14.2,2.84,25.4,3.29l-.46-.2c.71-1.63,1.4-3.3,2.06-5l.93.37c-.64,1.62-1.31,3.24-2,4.82,36.05,1.4,92.47-2.76,99.16-3.27a2.7,2.7,0,0,1,1.23.19c2.67,1.07,14.73,5.42,37.64,6.85a17.72,17.72,0,0,0,2.52,0l0-.5c.05,0,4.8.38,12,.59l0,1c-6.54-.19-11.06-.52-11.87-.58l4.46,21.9c-4.94,36.7-18.85,56.81-18.85,56.81-14.2,2.69-28.76,14.83-8,19.37,15.13,3.29,25.83-7,30.54-12.82a8.57,8.57,0,0,0,1.52-7.76c6.16-27.24,15-54.58,20.56-70.54l10,22.61a3,3,0,0,1,.24.94c2.49,31.83-4.16,52.93-5.94,57.9a2.77,2.77,0,0,1-1.48,1.6c-12.84,6-23.31,20.15-2.6,20.15,16.1,0,24.4-13.32,27.48-19.81a7.12,7.12,0,0,0-.19-6.48,2.92,2.92,0,0,1-.35-1.38c.37-39,5.82-79.2,6.82-86.29a4.41,4.41,0,0,0-.49-2c-7.35-21.14-12.67-47.08-17-74.63-.55-3.52,3-47.27,2.63-39.29-1,22.84,9,79,12.7,92.08C495.41,180.48,500.65,179.14,499.88,175.59ZM124.13,110.64l-.58-.81c3.41-2.44,6.7-5,9.76-7.64l.65.76C130.88,105.6,127.57,108.19,124.13,110.64Zm38.64-47.72.92.4a97.93,97.93,0,0,1-5.62,11.16l-.86-.51A96,96,0,0,0,162.77,62.92ZM142.29,93.67a110.28,110.28,0,0,0,8-9.42l.8.61a113.77,113.77,0,0,1-8.1,9.5Zm7.13,55.11-.09-1c4-.36,8-.69,12-1l.07,1C157.43,148.1,153.4,148.43,149.42,148.78Zm16.52,24.27a2.78,2.78,0,0,1-1.85,1.3,7,7,0,0,1-1.42.13h-4.53v-10H163a3.12,3.12,0,0,1,2.61,1.07,2.62,2.62,0,0,1,.46,1.54,2.26,2.26,0,0,1-.47,1.48,2.36,2.36,0,0,1-.76.57A2.28,2.28,0,0,1,166,170a2.64,2.64,0,0,1,.39,1.47A2.93,2.93,0,0,1,165.94,173.05Zm30,54.13a2.62,2.62,0,0,1-1.74.53,2.83,2.83,0,0,1-1.81-.52,1.71,1.71,0,0,1-.65-1.42h1.15a1.2,1.2,0,0,0,.23.59,1.27,1.27,0,0,0,1,.36,2,2,0,0,0,.71-.1.67.67,0,0,0,.52-.67.48.48,0,0,0-.25-.44,2.57,2.57,0,0,0-.81-.28l-.63-.13a3.92,3.92,0,0,1-1.27-.45,1.43,1.43,0,0,1-.59-1.26,1.66,1.66,0,0,1,.57-1.29,2.44,2.44,0,0,1,1.69-.52,2.57,2.57,0,0,1,1.59.49,1.76,1.76,0,0,1,.69,1.41h-1.17a.82.82,0,0,0-.47-.74,1.54,1.54,0,0,0-.72-.15,1.35,1.35,0,0,0-.77.19.6.6,0,0,0-.29.53.5.5,0,0,0,.29.46,3.17,3.17,0,0,0,.77.24l1,.24a2.77,2.77,0,0,1,1,.42,1.42,1.42,0,0,1,.52,1.19A1.66,1.66,0,0,1,196,227.18Zm22.92-27.27-.49.88c-2.53-1.41-6-1.69-10.39-.84l-.19-1C212.39,198.06,216.13,198.38,218.88,199.91ZM210,164.43h8.14v1.78h-3v8.27h-2.11v-8.27h-3Zm-.74-18.58c-3.95,0-8,.08-12,.17l0-1c4-.09,8.06-.15,12-.17ZM196.55,80.11a5.6,5.6,0,0,0-2.24-.55l-7.94-.62.3-3.87,14.6,1.13L201,79.91l-2.06-.16.38.3a2.65,2.65,0,0,1,.55.56,5.37,5.37,0,0,1,1,1.81,5.93,5.93,0,0,1,.14,2c-.17,2.15-1.06,3.55-2.67,4.17a8.82,8.82,0,0,1-3.84.34l-8.8-.68.3-3.92,8.8.69a4.77,4.77,0,0,0,1.9-.15,2,2,0,0,0,1.27-1.95A2.68,2.68,0,0,0,196.55,80.11ZM192,68.19a7.78,7.78,0,0,0,2.67.59,7.35,7.35,0,0,0,2.6-.18,2.56,2.56,0,0,0,2-2.43,2.34,2.34,0,0,0-.58-2,3.62,3.62,0,0,0-1.82-.83l.3-3.89a6.44,6.44,0,0,1,3.2,1.51,6.18,6.18,0,0,1,2.09,5.52q-.27,3.52-2.49,5a10,10,0,0,1-11.25-1.05,6.4,6.4,0,0,1-1.7-5.23,7.65,7.65,0,0,1,1.58-4.4c.91-1.11,2.42-1.68,4.51-1.74l-.3,3.91a3.48,3.48,0,0,0-1.52.44,2.31,2.31,0,0,0-1,1.93A2.63,2.63,0,0,0,192,68.19ZM183.35,52l10.65.82-5.13-5.24.36-4.74,5,5.65,9.51-4.73-.36,4.65-6.51,3.05,1.52,1.71,4.6.35-.29,3.75-19.68-1.52Zm-3.77,48.64,7,.54a4.69,4.69,0,0,1-1.63-2.05,5.44,5.44,0,0,1-.33-2.33,6.19,6.19,0,0,1,.66-2.41,4.31,4.31,0,0,1,1.58-1.7,3.82,3.82,0,0,1,1.74-.6,20.29,20.29,0,0,1,2.83.09l8.58.66-.3,3.9-8.89-.69a4,4,0,0,0-1.94.25,2,2,0,0,0-1.17,1.89,2.69,2.69,0,0,0,.84,2.36,4.67,4.67,0,0,0,2.83,1l7.91.61L199,106l-19.67-1.52ZM178,116c.25-3.29,1.53-5.61,3.82-7a7.23,7.23,0,0,1,3.79-1.07l-.32,4.13a5.72,5.72,0,0,0-2.22.84,4.1,4.1,0,0,0-1.54,3.17,4,4,0,0,0,1.55,3.62,8.88,8.88,0,0,0,5,1.67,7.83,7.83,0,0,0,5.08-1,4.19,4.19,0,0,0,1.91-3.28,3.9,3.9,0,0,0-1.16-3.35,6.3,6.3,0,0,0-2.22-1.2l.32-4.1a8.87,8.87,0,0,1,5,3.12,7.87,7.87,0,0,1,1.59,5.74,8.41,8.41,0,0,1-3.24,6.42,11.13,11.13,0,0,1-7.72,1.83c-3.45-.27-6-1.39-7.76-3.36A8.17,8.17,0,0,1,178,116Zm7.32,29.42,0,1c-3.93.16-8,.36-12,.59l-.06-1C177.3,145.78,181.33,145.58,185.27,145.42ZM166.86,51.25a89.89,89.89,0,0,0,2.49-12.12l1,.14a92.16,92.16,0,0,1-2.52,12.25Zm9.57,123.23h-2.32a5,5,0,0,1-.13-.54,4.12,4.12,0,0,1-.09-.86l0-.94a1.93,1.93,0,0,0-.33-1.28,1.71,1.71,0,0,0-1.2-.32h-2.05v3.94h-2v-10h4.81a4.45,4.45,0,0,1,1.58.26,2.42,2.42,0,0,1,.94.7,3,3,0,0,1,.51.85,2.92,2.92,0,0,1-.18,2.46,2,2,0,0,1-1.19,1,1.88,1.88,0,0,1,1,.8,3.31,3.31,0,0,1,.29,1.57v.67a6.18,6.18,0,0,0,0,.94.85.85,0,0,0,.39.57Zm3.76,0h-2.08v-10h2.08Zm8.74-.65a4.47,4.47,0,0,1-3,.91,4.91,4.91,0,0,1-3.12-.9,2.93,2.93,0,0,1-1.13-2.46h2a2.1,2.1,0,0,0,.38,1,2.25,2.25,0,0,0,1.79.62,3.78,3.78,0,0,0,1.23-.16,1.17,1.17,0,0,0,.9-1.17.85.85,0,0,0-.44-.77,4.8,4.8,0,0,0-1.39-.47l-1.09-.24a6.76,6.76,0,0,1-2.2-.77,2.44,2.44,0,0,1-1-2.17,2.91,2.91,0,0,1,1-2.25,4.28,4.28,0,0,1,2.92-.89,4.51,4.51,0,0,1,2.75.84,3,3,0,0,1,1.19,2.45h-2a1.44,1.44,0,0,0-.81-1.29,2.75,2.75,0,0,0-1.25-.26,2.36,2.36,0,0,0-1.33.33,1,1,0,0,0-.5.92.88.88,0,0,0,.49.8,6.05,6.05,0,0,0,1.34.42l1.76.41a4.59,4.59,0,0,1,1.74.73,2.46,2.46,0,0,1,.9,2A2.89,2.89,0,0,1,188.93,173.83Zm5.65-3.73-1,1v3.36H191.5v-10h2.07v4.14l3.88-4.14h2.72L196,168.57l4.34,5.91h-2.7Zm7.5,57.46h-1.2V225h-2.26v2.59h-1.21v-5.81h1.21V224h2.26v-2.21h1.2Zm-.47-53.08v-10H209v1.78h-5.31v2.14h4.88v1.74h-4.88v2.59h5.56v1.8ZM207,227.56l-.38-1.2H204.5l-.39,1.2h-1.27l2.07-5.81h1.37l2.06,5.81Zm6.75,0h-1.22l-2.36-4.12v4.12h-1.13v-5.81h1.27l2.31,4.05v-4.05h1.13Zm6.16-5.81-2.38,2.39,2.5,3.42h-1.56L216.7,225l-.58.6v1.94h-1.19v-5.81h1.19v2.39l2.24-2.39Zm60.7-117c-.46.14-.84.24-1.12.3a9.62,9.62,0,0,1-1.79.2l-1.94,0a3.87,3.87,0,0,0-2.66.73,3.59,3.59,0,0,0-.64,2.52l0,4.32,8.18-.08,0,4.32-20.85.2-.1-10.12a9.27,9.27,0,0,1,.5-3.34,5.43,5.43,0,0,1,1.44-2,6.43,6.43,0,0,1,1.75-1.07,5.77,5.77,0,0,1,2.19-.42,6.26,6.26,0,0,1,2.93.73,4.25,4.25,0,0,1,2,2.5,3.93,3.93,0,0,1,1.63-2.09,6.69,6.69,0,0,1,3.26-.64l1.4,0a10.8,10.8,0,0,0,1.94-.13,1.75,1.75,0,0,0,1.18-.83h.52Zm.5,44.57-.14,1c-3.89-.54-7.89-1-11.89-1.48l.11-1C273.22,148.23,277.23,148.73,281.13,149.27Zm-.58-53-20.86.2,0-4.39,20.86-.2ZM261.68,72.18a5.21,5.21,0,0,1,3.17-1,4.58,4.58,0,0,1,3.08.95,5,5,0,0,1,1.21,1.6A4.7,4.7,0,0,1,271,71.27a5.44,5.44,0,0,1,3.05-.85,6.06,6.06,0,0,1,3.34.91,5.83,5.83,0,0,1,2.72,3.86,14.58,14.58,0,0,1,.31,3l.1,9.53-20.86.2-.1-10.22Q259.52,73.81,261.68,72.18Zm-16.39,73.6c4,.23,8.05.52,12,.85l-.08,1c-3.92-.33-7.94-.62-12-.85Zm-13.93-84.1c.58,3.76,1.06,7.78,1.41,11.95l-1,.09c-.36-4.15-.83-8.14-1.41-11.89Zm-6-23.3A93,93,0,0,1,229,49.87l-1,.24a92.61,92.61,0,0,0-3.61-11.36ZM222.5,193.07l-1-.22s1-4.46,2.34-11.78l1,.18C223.5,188.59,222.51,193,222.5,193.07Zm4.41-23.66-1-.17c.64-3.94,1.25-7.93,1.81-11.86l1,.14C228.17,161.45,227.56,165.45,226.91,169.41Zm6.35-23.2c-3.92-.14-7.95-.25-12-.31v-1c2.7,0,5.39.11,8.06.19.47-3.89.9-7.77,1.27-11.53l1,.09c-.36,3.75-.79,7.6-1.25,11.47,1,0,2,0,2.93.09Zm-.63-24.53-1-.07c.3-4.07.53-8.09.69-12l1,0C233.16,113.57,232.92,117.61,232.63,121.68Zm1-24h-1c0-.82,0-1.64,0-2.45,0-3.25,0-6.45-.16-9.53l1,0c.11,3.08.16,6.3.16,9.56C233.64,96,233.64,96.84,233.63,97.66Zm15.49,72.16a3.2,3.2,0,0,1-1.18,2.47,3.93,3.93,0,0,1-2.66.48l-2.13-.23-.4,3.69-2.13-.23,1.11-10.27,4.41.48a3.56,3.56,0,0,1,2.34,1.06A3.09,3.09,0,0,1,249.12,169.82Zm8.23,8-7.27-.79,1.11-10.26,2.15.23-.92,8.42,5.13.55Zm8.11.88L265,176.5l-3.78-.41-.92,2-2.25-.24,4.78-9.87,2.43.26,2.52,10.66Zm11-7.36-3.07-.34-.91,8.45-2.16-.23.91-8.45-3.08-.33.2-1.82,8.31.9Zm8.85,1-5.43-.59-.24,2.18,5,.54-.2,1.78-5-.54-.29,2.64,5.68.61-.2,1.85-7.77-.84,1.11-10.27,7.53.82ZM427.71,63.77a13.14,13.14,0,0,1,.55-3.84,8.12,8.12,0,0,1,3.15-4.22,10.82,10.82,0,0,1,4-1.76,18.77,18.77,0,0,1,4.1-.47,16.42,16.42,0,0,1,8.38,2,9,9,0,0,1,4.61,8.32V74.5l-24.8,0Zm0,30.23L445,84.18l-17.3,0V79.32l24.8,0v5.18L434.87,94.61l17.6,0v4.83l-24.8,0Zm0,25,15.24,0a8.65,8.65,0,0,0,3.73-.6q2.08-.93,2.09-4.09t-2.08-4.07a8.48,8.48,0,0,0-3.73-.61l-15.23,0v-5.27l15.24,0a12.74,12.74,0,0,1,6.16,1.24q4,2.28,4,8.72T449,123a12.76,12.76,0,0,1-6.16,1.22l-15.24,0Zm-21.95-43.1c.33,3.92.57,7.95.72,12l-1,0c-.15-4-.39-8.06-.71-12Zm-3.21-23.82c.74,3.82,1.39,7.81,1.93,11.87l-1,.13c-.53-4-1.18-8-1.91-11.82ZM398.36,75h.95L401,78V75h.84v4.32H401l-1.75-3.07v3.07h-.85ZM393,100.08c-2,0-4-.06-5.95-.18l.06-1a96.93,96.93,0,0,0,11.93,0l.06,1C397,100,395,100.08,393,100.08Zm4.43,14.25-.27,4.28-.88-.06.26-4.28Zm-17.32-35V75h3.17v.76h-2.29v.92H383v.75h-2.1v1.11h2.39v.78Zm3.12,34.13-.26,4.28-.89-.06.27-4.28Zm-5.74,32.17.18-.92,4.21.82-.18.93-1.55-.31-.84,4.28-1.09-.21.83-4.28Zm-4.42-.86.18-.92,4.22.82-.18.92-1.56-.3-.83,4.28-1.1-.21.84-4.28Zm-1.81,10.95a1.82,1.82,0,0,1,0,.84l-.07.35a2.73,2.73,0,0,0-.07.49.43.43,0,0,0,.15.33l0,.13-1.2-.23c0-.12,0-.22,0-.29a2.38,2.38,0,0,1,0-.46l.08-.48a1,1,0,0,0,0-.7.9.9,0,0,0-.59-.29l-1.06-.21-.39,2-1.07-.2,1-5.21,2.49.49a2.43,2.43,0,0,1,.79.29,1.42,1.42,0,0,1,.42.46,1.78,1.78,0,0,1,.17.49,1.38,1.38,0,0,1,0,.57,1.69,1.69,0,0,1-.33.69,1.12,1.12,0,0,1-.71.39A1,1,0,0,1,371.21,155.7Zm-4.89-10.23a1.41,1.41,0,0,1,.05.8,1.52,1.52,0,0,1-.39.78,1.34,1.34,0,0,1-.45.34,1.37,1.37,0,0,1-.64.15,4,4,0,0,1-.75-.07L361.8,147l1-5.2,2.51.49a1.59,1.59,0,0,1,1.24.81,1.33,1.33,0,0,1,.09.84,1.08,1.08,0,0,1-.85.94A1.21,1.21,0,0,1,366.32,145.47Zm-.48,5.93,1.08.21-1,5.2-1.08-.21Zm-6.15-23.21.33-.94c.05,0,4.8,1.67,11.52,3.19l-.22,1A113.78,113.78,0,0,1,359.69,128.19Zm-1-28.1,1,0c-.14,4-.4,8.07-.77,12l-1-.09C358.3,108.13,358.56,104.11,358.69,100.09Zm-.58-23.92,1-.08c.33,4,.54,8.06.64,12l-1,0C358.64,84.19,358.43,80.17,358.11,76.17Zm5.22-.42V75h3.5v.76h-1.29v3.56h-.91V75.75Zm1,37.27.05-.75,3.46.21-.05.76-1.28-.08-.22,3.52-.89-.06.22-3.52Zm3.64,1.61a2.25,2.25,0,0,1,.76-1.72,1.82,1.82,0,0,1,1.43-.41,1.84,1.84,0,0,1,1.37.58,2.26,2.26,0,0,1,.54,1.81,2.3,2.3,0,0,1-.76,1.72,1.86,1.86,0,0,1-1.43.41,1.84,1.84,0,0,1-1.37-.58A2.31,2.31,0,0,1,368,114.63Zm3.12,33.71a2.34,2.34,0,0,1-1.83.28,2.32,2.32,0,0,1-1.58-.94,2.87,2.87,0,0,1-.38-2.3,2.83,2.83,0,0,1,1.21-2,2.38,2.38,0,0,1,1.83-.27,2.28,2.28,0,0,1,1.58.94,2.8,2.8,0,0,1,.37,2.3A2.85,2.85,0,0,1,371.1,148.34Zm-7.64-53.55.44-.9a52.91,52.91,0,0,0,11.34,3.46l-.2,1A53.36,53.36,0,0,1,363.46,94.79Zm6.9-18.12v.75h-2.09v1.11h2.39v.78h-3.28V75h3.17v.76h-2.28v.92Zm2.55,36.13,1.84.11a1.49,1.49,0,0,1,1,.4,1.27,1.27,0,0,1,.32,1,1.32,1.32,0,0,1-.45,1,1.57,1.57,0,0,1-1.09.25l-.89-.06-.1,1.54-.88,0Zm2.79-33.49V75h1.86a2.13,2.13,0,0,1,.67.09,1.44,1.44,0,0,1,.74.55,1.82,1.82,0,0,1,.3.7,3.07,3.07,0,0,1,.09.71A2.87,2.87,0,0,1,379,78.5a1.56,1.56,0,0,1-1.45.81Zm15.73-.78v.78h-3.06V75h.91v3.54Zm-8.8-20.08h-1.42v-1h1.42c3.44,0,7,0,10.57-.05v1C389.65,58.44,386.07,58.45,382.63,58.45Zm4.42,57.81a1.45,1.45,0,0,1,.09.68l0,.29a1.27,1.27,0,0,0,0,.4.32.32,0,0,0,.15.25V118l-1-.06c0-.1,0-.18,0-.24a2.23,2.23,0,0,1,0-.37l0-.39a.82.82,0,0,0-.1-.56.76.76,0,0,0-.51-.17l-.87,0-.1,1.68-.88-.06.27-4.28,2,.13a2.15,2.15,0,0,1,.66.15,1,1,0,0,1,.39.33,1.62,1.62,0,0,1,.19.37,1.36,1.36,0,0,1,.05.46,1.32,1.32,0,0,1-.19.59.88.88,0,0,1-.53.38A.77.77,0,0,1,387.05,116.26Zm-.47-36.95a2,2,0,0,1-.06-.23,2.34,2.34,0,0,1,0-.38v-.4a.81.81,0,0,0-.14-.55.77.77,0,0,0-.52-.14h-.88v1.7h-.88V75h2.06a1.77,1.77,0,0,1,.69.11,1.08,1.08,0,0,1,.4.3,1.65,1.65,0,0,1,.22.36,1.34,1.34,0,0,1,.08.46,1.2,1.2,0,0,1-.16.6.83.83,0,0,1-.51.42.78.78,0,0,1,.42.35,1.3,1.3,0,0,1,.13.67v.29a3.06,3.06,0,0,0,0,.4.36.36,0,0,0,.17.25v.11Zm-3.26,53.16a75.17,75.17,0,0,0,8.74.53c1.07,0,2.14,0,3.16-.08l0,1c-1,.05-2.12.08-3.21.08h0a79.61,79.61,0,0,1-8.85-.53Zm7.8-15,0,.77-3-.19.26-4.28.9.06-.22,3.51Zm3.87.63a1.86,1.86,0,0,1-1.43.41,1.88,1.88,0,0,1-1.37-.58,2.31,2.31,0,0,1-.54-1.81,2.25,2.25,0,0,1,.76-1.72,2.23,2.23,0,0,1,2.8.17,2.26,2.26,0,0,1,.54,1.81A2.3,2.3,0,0,1,395,118.09ZM396.64,75h.89v4.32h-.89Zm-1.27.37a2.31,2.31,0,0,1,.65,1.78,2.34,2.34,0,0,1-.65,1.78,1.88,1.88,0,0,1-1.42.51,1.84,1.84,0,0,1-1.41-.51,2.31,2.31,0,0,1-.66-1.78,2.28,2.28,0,0,1,.66-1.78,1.84,1.84,0,0,1,1.41-.5A1.88,1.88,0,0,1,395.37,75.36Zm-6.43-34.09h1.31l2.37,4.16V41.27h1.16v6h-1.24L390.11,43v4.24h-1.17Zm-2.38,0h1.24v6h-1.24Zm-5.66.51a3.11,3.11,0,0,1,3.91,0,3.17,3.17,0,0,1,.9,2.46,3.24,3.24,0,0,1-.9,2.47,3.11,3.11,0,0,1-3.91,0,3.21,3.21,0,0,1-.91-2.47A3.14,3.14,0,0,1,380.9,41.78Zm.18,71.76a1.29,1.29,0,0,1,.45,1.08l-.86-.06a.62.62,0,0,0-.31-.57,1.18,1.18,0,0,0-.53-.14,1,1,0,0,0-.57.11.42.42,0,0,0-.24.37.37.37,0,0,0,.19.36,3.18,3.18,0,0,0,.55.21l.74.22a2,2,0,0,1,.73.36,1,1,0,0,1,.32.9,1.2,1.2,0,0,1-.51.94,1.94,1.94,0,0,1-1.31.31,2.15,2.15,0,0,1-1.3-.46,1.26,1.26,0,0,1-.42-1.08l.85,0a.85.85,0,0,0,.14.45,1,1,0,0,0,.74.31,1.65,1.65,0,0,0,.53,0,.51.51,0,0,0,.42-.47.37.37,0,0,0-.17-.34,2.24,2.24,0,0,0-.58-.24l-.46-.13a3.27,3.27,0,0,1-.92-.38,1.07,1.07,0,0,1-.37-1,1.23,1.23,0,0,1,.48-.93,2.16,2.16,0,0,1,2.41.13Zm-5.93-72.27h1.24v4.89h3v1.08h-4.22Zm-.3,38H374l-1.76-3.07v3.07h-.84V75h.94L374,78V75h.84Zm-5.66-38H372a2.74,2.74,0,0,1,.94.15,1.56,1.56,0,0,1,.56.42,1.71,1.71,0,0,1,.3.5A1.57,1.57,0,0,1,374,43a1.86,1.86,0,0,1-.21.84,1.26,1.26,0,0,1-.71.58,1.07,1.07,0,0,1,.58.47,1.86,1.86,0,0,1,.18.93v.4a3.43,3.43,0,0,0,0,.56.51.51,0,0,0,.23.34v.15h-1.38c0-.14-.06-.24-.08-.32a3,3,0,0,1,0-.52v-.55a1.07,1.07,0,0,0-.2-.76,1,1,0,0,0-.71-.19h-1.21v2.34h-1.22Zm-2.44,0H368v6h-1.24Zm-2.23,3.86a2.72,2.72,0,0,0-.83-.28l-.65-.14a4.2,4.2,0,0,1-1.31-.46,1.47,1.47,0,0,1-.6-1.29,1.71,1.71,0,0,1,.59-1.33,2.47,2.47,0,0,1,1.73-.54,2.68,2.68,0,0,1,1.63.5,1.79,1.79,0,0,1,.71,1.46h-1.2a.85.85,0,0,0-.48-.77,1.65,1.65,0,0,0-.74-.15,1.4,1.4,0,0,0-.79.2.61.61,0,0,0-.3.54.53.53,0,0,0,.29.48,3.58,3.58,0,0,0,.8.24l1,.25a2.75,2.75,0,0,1,1,.43,1.48,1.48,0,0,1,.53,1.22,1.71,1.71,0,0,1-.63,1.36,2.68,2.68,0,0,1-1.79.54,3,3,0,0,1-1.85-.53,1.77,1.77,0,0,1-.68-1.47h1.19a1.28,1.28,0,0,0,.23.62,1.34,1.34,0,0,0,1.06.36,2.41,2.41,0,0,0,.73-.09.71.71,0,0,0,.54-.7A.52.52,0,0,0,364.52,45.13ZM357.2,57.21s4.86.1,12,.17v1c-7.16-.07-12-.17-12-.17Zm-1.26-5c.73,3.92,1.36,7.92,1.89,11.88l-1,.14c-.53-4-1.16-7.93-1.88-11.83Zm.44,71.66,1,.17c-.66,4-1.46,8-2.38,11.78l-1-.23C354.92,131.81,355.72,127.87,356.38,123.9Zm-4.67,23.53c-1.25,3.84-2.65,7.64-4.19,11.28l-.92-.38c1.52-3.63,2.92-7.4,4.16-11.21ZM339.37,90.22l7.81-4-7.63-.32.09-2.13,10.94.46-.1,2.28-7.94,4.13,7.75.32-.08,2.13-10.94-.46Zm-.19,4.49,10.94.46-.1,2.27L339.09,97Zm.72,5.52a5.77,5.77,0,0,1,4.58-1.46,5.9,5.9,0,0,1,4.44,1.84,5.7,5.7,0,0,1-.3,7.17,5.93,5.93,0,0,1-4.58,1.47,5.75,5.75,0,0,1-4.44-1.85,5.67,5.67,0,0,1,.3-7.17Zm-1.59,15.38,9,.37.23-5.46,2,.09-.32,7.74-10.94-.46ZM321.83,72.89l1.94.08-.14,3.27,9,.38-.1,2.3-9-.38-.14,3.29-1.94-.08Zm-.57,13.64a4.88,4.88,0,0,1,.36-1.72,2.74,2.74,0,0,1,.8-1,3.35,3.35,0,0,1,.95-.51,3.2,3.2,0,0,1,1.15-.16,3.44,3.44,0,0,1,1.52.46,2.18,2.18,0,0,1,1,1.34,2,2,0,0,1,.91-1,3.54,3.54,0,0,1,1.72-.25l.74,0a5.2,5.2,0,0,0,1,0,.93.93,0,0,0,.64-.4h.27l-.11,2.52c-.24.06-.44.11-.59.13a5.86,5.86,0,0,1-.94.06l-1,0a2.07,2.07,0,0,0-1.41.3,1.82,1.82,0,0,0-.4,1.29l-.1,2.23,4.29.18L332,92.21,321,91.75ZM321,93.94l10.94.46-.1,2.27-10.93-.46Zm-.45,10.8,4.17.18.18-4.25-4.17-.18.09-2.27,10.94.46-.1,2.27-4.88-.2-.18,4.25,4.89.2-.1,2.27L320.41,107Zm.37,5.53a3.24,3.24,0,0,1,2.71-1.18l-.09,2.19a1.58,1.58,0,0,0-1.44.83,2.92,2.92,0,0,0-.33,1.35,2.5,2.5,0,0,0,.3,1.46,1.12,1.12,0,0,0,1,.58.93.93,0,0,0,.89-.5,6.7,6.7,0,0,0,.52-1.43l.53-1.9a4.89,4.89,0,0,1,.87-1.86,2.65,2.65,0,0,1,2.28-.88,3.13,3.13,0,0,1,2.44,1.26,4.86,4.86,0,0,1,.85,3.31,5.34,5.34,0,0,1-1.12,3.36,3.2,3.2,0,0,1-2.73,1.12l.09-2.18a2.22,2.22,0,0,0,1.14-.37,2.46,2.46,0,0,0,.76-1.92,4,4,0,0,0-.13-1.34,1.26,1.26,0,0,0-1.22-1,.92.92,0,0,0-.86.44,5.12,5.12,0,0,0-.58,1.5l-.31,1.17a7.22,7.22,0,0,1-.94,2.36,2.65,2.65,0,0,1-2.41,1,3.14,3.14,0,0,1-2.39-1.18,4.62,4.62,0,0,1-.84-3.22A4.86,4.86,0,0,1,320.87,110.27ZM316.51,156c3.95,1,7.85,2,11.61,3.12l-.28,1c-3.74-1.09-7.63-2.14-11.57-3.11ZM303.94,53.5c.74,3.9,1.42,7.89,2,11.85l-1,.15c-.59-4-1.26-7.93-2-11.82Zm-6.17,130.75-.94-.31c1.23-3.74,2.39-7.6,3.42-11.47l1,.26C300.18,176.62,299,180.49,297.77,184.25ZM304,161l-1-.2c.45-2.16.87-4.36,1.27-6.56-3.75-.77-7.61-1.5-11.48-2.17l.17-1c3.87.66,7.73,1.39,11.48,2.16.25-1.41.5-2.82.72-4.23l1,.15C305.56,153.19,304.83,157.17,304,161Zm3.46-83.75c.43,4,.79,8,1.06,12l-1,.06c-.27-4-.62-8-1.05-11.93Zm.27,60-1-.1c.42-3.93.75-7.94,1-11.94l1,.06C308.51,129.31,308.18,133.34,307.75,137.28Zm1.45-24-1,0c0-1.4,0-2.8,0-4.18,0-2.58,0-5.21-.11-7.8l1,0c.07,2.6.11,5.23.11,7.82Q309.23,111.18,309.2,113.29ZM321.47,179l-.25,2.06-4.26-.52-.61,5-2-.25,1.46-11.89,6.86.84-.26,2.09-4.86-.6-.34,2.74Zm7.86,8.13-6.81-.84L324,174.33l2,.25-1.19,9.77,4.8.58Zm7.6.93-.33-2.53-3.55-.43-.95,2.37-2.1-.26,4.89-11.49,2.28.27,1.94,12.33Zm2.64-25.28c3.85,1.32,7.64,2.73,11.27,4.19l-.37.92c-3.61-1.45-7.39-2.85-11.22-4.17Zm8.53,26.64-2-.24-2.88-8.93-1,8.45-1.88-.23,1.46-11.91,2.11.25,2.8,8.78,1-8.31,1.87.23Zm10.42,1.28-2.59-.32-2.32-5.56-1.12,1.1-.49,4-2-.24,1.46-11.92,2,.25-.6,4.91,4.32-4.46,2.59.32-4.54,4.42ZM360.15,154l1,.2a1.06,1.06,0,0,0,.1.57,1.15,1.15,0,0,0,.86.5,1.94,1.94,0,0,0,.66,0,.62.62,0,0,0,.58-.51.49.49,0,0,0-.15-.45,2.63,2.63,0,0,0-.68-.38l-.54-.23a3.64,3.64,0,0,1-1.06-.62,1.33,1.33,0,0,1-.31-1.23,1.53,1.53,0,0,1,.75-1.06,2.18,2.18,0,0,1,1.6-.17,2.34,2.34,0,0,1,1.33.71,1.57,1.57,0,0,1,.37,1.39l-1-.21a.79.79,0,0,0-.29-.75,1.52,1.52,0,0,0-.62-.25,1.22,1.22,0,0,0-.72,0,.54.54,0,0,0-.35.43.44.44,0,0,0,.17.46,3,3,0,0,0,.65.35l.87.39a2.48,2.48,0,0,1,.83.56,1.3,1.3,0,0,1,.25,1.15,1.5,1.5,0,0,1-.78,1.08,2.39,2.39,0,0,1-1.65.17,2.66,2.66,0,0,1-1.52-.78A1.53,1.53,0,0,1,360.15,154ZM372,178.17c-3.33-1.9-6.9-3.76-10.6-5.52l.43-.9c3.72,1.77,7.31,3.64,10.67,5.55Zm3.8-19.42-3.68-.72,1-5.2,1.09.21-.83,4.27,2.6.5Zm6-1.53a2.86,2.86,0,0,1-1.21,2,2.76,2.76,0,0,1-3.41-.67,2.86,2.86,0,0,1-.37-2.3,2.8,2.8,0,0,1,1.21-2,2.28,2.28,0,0,1,1.82-.27,2.31,2.31,0,0,1,1.59.94A2.83,2.83,0,0,1,381.86,157.22Zm-.22-9.05a2.81,2.81,0,0,1,1.21-2,2.74,2.74,0,0,1,3.41.66,3.37,3.37,0,0,1-.84,4.29,2.32,2.32,0,0,1-1.82.28,2.36,2.36,0,0,1-1.59-.94A2.87,2.87,0,0,1,381.64,148.17Zm6,11.25.71-3.62,1,.19-1,5.21L387.3,161l-1.4-4.11-.72,3.69-1-.19,1-5.21,1.14.22Zm-4.58-4.65,1.08.21-1,5.2-1.08-.21Zm8.27,37.29a75.46,75.46,0,0,0-9.25-7.51l.58-.81a76.54,76.54,0,0,1,9.37,7.6Zm.6-39.17-1-.2.69-3.52.09-.42c0-.18.06-.32.08-.42L390,152.5l-1.05-.2-.13-4.56c0,.1-.05.24-.08.42s-.06.33-.08.43l-.68,3.52-1-.2,1-5.2,1.58.3.15,4.28,1.74-3.91,1.56.31Zm4,30.25-1-.23c.93-3.88,1.82-7.82,2.63-11.69l1,.2C397.75,175.31,396.87,179.25,395.93,183.14Zm2.84-64.43-.83,0,.26-4.28.94.06,1.51,3.09.19-3,.83.06-.27,4.27-.89-.05L399,115.67Zm2.1,40.92-1-.18c.71-3.94,1.36-7.91,1.94-11.82l1,.14C402.24,151.69,401.59,155.68,400.87,159.63Zm3.52-23.77-1-.11c.46-4,.85-8,1.16-11.93l1,.08C405.24,127.82,404.85,131.85,404.39,135.86Zm1.91-24-1,0c.18-4,.28-8,.29-12h1C406.58,103.84,406.48,107.88,406.3,111.91Zm.86,19.71-.36-.93.62-.25.38.93Zm45.22,29.74c-.55.15-1,.26-1.33.33a11.68,11.68,0,0,1-2.14.22l-2.3,0a4.73,4.73,0,0,0-3.17.81,4.17,4.17,0,0,0-.79,2.95v5.07h9.73v5.06l-24.8,0V164a10.8,10.8,0,0,1,.65-3.92,6.18,6.18,0,0,1,1.73-2.32,8,8,0,0,1,2.09-1.24,7.07,7.07,0,0,1,2.61-.46,7.57,7.57,0,0,1,3.47.9,5,5,0,0,1,2.41,3,4.7,4.7,0,0,1,2-2.43,8.26,8.26,0,0,1,3.88-.71H448a12.84,12.84,0,0,0,2.31-.13,2,2,0,0,0,1.41-1h.63Zm-2.19-13.13Q446.64,152,440,152t-10.23-3.78q-2.89-2.82-2.88-8.13c0-3.55,1-6.25,2.9-8.12q3.42-3.75,10.24-3.74T450.22,132q2.88,2.82,2.88,8.14T450.19,148.23Zm6,57.09v-1c4.12,0,8.15-.15,12-.35l.05,1C464.41,205.17,460.36,205.29,456.22,205.32Zm35.74-4,.19,1c-3.65.71-7.65,1.3-11.91,1.76l-.11-1C484.36,202.57,488.34,202,492,201.29Z"/><path class="cls-1" d="M170.09,26.8l1,0a50.17,50.17,0,0,0-.42-5.94l0-.11-.49.08-.5.08A44.11,44.11,0,0,1,170.09,26.8Z"/><path class="cls-1" d="M150.32,84.25a110.28,110.28,0,0,1-8,9.42l.73.69a113.77,113.77,0,0,0,8.1-9.5Z"/><path class="cls-1" d="M169.35,39.13a89.89,89.89,0,0,1-2.49,12.12l1,.27a92.16,92.16,0,0,0,2.52-12.25Z"/><path class="cls-1" d="M163.69,63.32l-.92-.4a96,96,0,0,1-5.56,11l.86.51A97.93,97.93,0,0,0,163.69,63.32Z"/><path class="cls-1" d="M123.55,109.83l.58.81c3.44-2.45,6.75-5,9.83-7.69l-.65-.76C130.25,104.82,127,107.39,123.55,109.83Z"/><path class="cls-1" d="M113.15,116.63c-1.69,1-3.44,2-5.19,3l.24.45.24.43.14-.08c1.72-1,3.43-1.93,5.08-2.93Z"/><path class="cls-1" d="M137.38,148.94l-3.76.39,0,.5.05.5.29,0,3.47-.37Z"/><path class="cls-1" d="M197.3,146c4-.09,8-.15,12-.17v-1c-3.95,0-8,.08-12,.17Z"/><path class="cls-1" d="M293,151.12l-.17,1c3.87.67,7.73,1.4,11.48,2.17.06-.33.11-.66.17-1C300.73,152.51,296.87,151.78,293,151.12Z"/><path class="cls-1" d="M403.4,135.75l1,.11c.46-4,.85-8,1.17-12l-1-.08C404.25,127.73,403.86,131.74,403.4,135.75Z"/><path class="cls-1" d="M405.3,111.86l1,0c.18-4,.28-8.07.29-12h-1C405.58,103.82,405.48,107.85,405.3,111.86Z"/><path class="cls-1" d="M161.3,146.81c-4,.29-8,.62-12,1l.09,1c4-.35,8-.68,12-1Z"/><path class="cls-1" d="M185.31,146.42l0-1c-3.94.16-8,.36-12,.6l.06,1C177.35,146.78,181.38,146.58,185.31,146.42Z"/><path class="cls-1" d="M257.26,146.63c-3.92-.33-7.95-.62-12-.85l-.06,1c4,.23,8,.52,12,.85Z"/><path class="cls-1" d="M404.4,63.92c-.54-4.06-1.19-8.05-1.93-11.87l-1,.18c.73,3.81,1.38,7.79,1.91,11.82Z"/><path class="cls-1" d="M230.3,145.6l-1-.12c0-.13,0-.26,0-.39-2.67-.08-5.36-.15-8.06-.19v1c4,.06,8.06.17,12,.31l0-1c-1,0-1.95-.06-2.93-.09Z"/><path class="cls-1" d="M269.1,148.78c4,.44,8,.94,11.89,1.48l.14-1c-3.9-.54-7.91-1-11.92-1.48Z"/><path class="cls-1" d="M406.4,87.87c-.15-4.05-.39-8.08-.72-12l-1,.09c.32,3.89.56,7.92.71,12Z"/><path class="cls-1" d="M328.12,159.11c-3.76-1.1-7.66-2.14-11.61-3.12l-.24,1c3.94,1,7.83,2,11.57,3.11Z"/><path class="cls-1" d="M399.89,159.45l1,.18c.72-3.95,1.37-7.94,1.95-11.86l-1-.14C401.25,151.54,400.6,155.51,399.89,159.45Z"/><path class="cls-1" d="M395,182.91l1,.23c.94-3.89,1.82-7.83,2.64-11.72l-1-.2C396.78,175.09,395.89,179,395,182.91Z"/><path class="cls-1" d="M382.12,184.55a75.46,75.46,0,0,1,9.25,7.51l.7-.72a76.54,76.54,0,0,0-9.37-7.6Z"/><path class="cls-1" d="M398.84,40.57l1-.26A96,96,0,0,0,396.17,29c-.05-.11-.07-.17-.08-.18l-.46.2-.45.2A93.69,93.69,0,0,1,398.84,40.57Z"/><path class="cls-1" d="M350.84,166.92c-3.63-1.46-7.42-2.87-11.27-4.19l-.32.94c3.83,1.32,7.61,2.72,11.22,4.17Z"/><path class="cls-1" d="M361.42,172.65c3.7,1.76,7.27,3.62,10.6,5.52l.5-.87c-3.36-1.91-6.95-3.78-10.67-5.55Z"/><path class="cls-1" d="M225.93,169.24l1,.17c.65-4,1.26-8,1.82-11.89l-1-.14C227.18,161.31,226.57,165.3,225.93,169.24Z"/><path class="cls-1" d="M232.48,85.67c.11,3.08.16,6.28.16,9.53,0,.81,0,1.63,0,2.45h1c0-.82,0-1.64,0-2.46,0-3.26,0-6.48-.16-9.56Z"/><path class="cls-1" d="M229,49.87a93,93,0,0,0-3.65-11.49l-.93.37A92.61,92.61,0,0,1,228,50.11Z"/><path class="cls-1" d="M231.63,121.61l1,.07c.29-4.07.53-8.11.69-12l-1,0C232.16,113.52,231.93,117.54,231.63,121.61Z"/><path class="cls-1" d="M221.53,192.85l1,.22s1-4.48,2.35-11.82l-1-.18C222.52,188.39,221.54,192.81,221.53,192.85Z"/><path class="cls-1" d="M219,28.16l.84-.55c-.19-.3-.4-.59-.6-.88-.07-.12-.15-.23-.23-.35l-.41.29-.41.28C218.5,27.35,218.77,27.75,219,28.16Z"/><path class="cls-1" d="M232.77,73.63c-.35-4.17-.83-8.19-1.41-11.95l-1,.15c.58,3.75,1,7.74,1.41,11.89Z"/><path class="cls-1" d="M230.3,145.6l.06-.48c.46-3.87.89-7.72,1.25-11.47l-1-.09c-.37,3.76-.8,7.64-1.27,11.53,0,.13,0,.26,0,.39Z"/><path class="cls-1" d="M308.12,101.29c.07,2.59.11,5.22.11,7.8,0,1.38,0,2.78,0,4.18l1,0q0-2.12,0-4.2c0-2.59,0-5.22-.11-7.82Z"/><path class="cls-1" d="M306.76,137.18l1,.1c.43-3.94.76-8,1-12l-1-.06C307.51,129.24,307.18,133.25,306.76,137.18Z"/><path class="cls-1" d="M292.73,195.18c-.66,1.67-1.35,3.34-2.06,5l.46.2.46.2.08-.18c.68-1.58,1.35-3.2,2-4.82Z"/><path class="cls-1" d="M300.47,42l1-.23c-1.56-6.58-2.81-10.67-3.06-11.49a.91.91,0,0,0-.06-.16l-.47.16-.48.15S298.74,34.66,300.47,42Z"/><path class="cls-1" d="M304.48,153.28c-.06.33-.11.66-.17,1-.4,2.2-.82,4.4-1.27,6.56l1,.2c.81-3.86,1.54-7.84,2.17-11.83l-1-.15C305,150.46,304.73,151.87,304.48,153.28Z"/><path class="cls-1" d="M308.54,89.26c-.27-4-.63-8-1.06-12l-1,.11c.43,4,.78,8,1.05,11.93Z"/><path class="cls-1" d="M296.83,183.94l.94.31c1.25-3.76,2.41-7.63,3.45-11.52l-1-.26C299.22,176.34,298.06,180.2,296.83,183.94Z"/><path class="cls-1" d="M306,65.35c-.59-4-1.27-7.95-2-11.85l-1,.18c.74,3.89,1.41,7.87,2,11.82Z"/><path class="cls-1" d="M347.52,158.71c1.54-3.64,2.94-7.44,4.19-11.28l-.95-.31c-1.24,3.81-2.64,7.58-4.16,11.21Z"/><path class="cls-1" d="M359.74,88.1c-.1-3.95-.31-8-.64-12l-1,.08c.32,4,.53,8,.63,12Z"/><path class="cls-1" d="M357.36,124.07l-1-.17c-.66,4-1.46,7.91-2.37,11.72l1,.23C355.9,132,356.7,128.06,357.36,124.07Z"/><path class="cls-1" d="M358.92,112.13c.37-3.93.63-8,.77-12l-1,0c-.13,4-.39,8-.77,12Z"/><path class="cls-1" d="M353.43,40.48c-1.21-5-2.28-8.59-2.84-10.37-.25-.81-.4-1.24-.4-1.25l-.95.32s.12.34.31.95c.51,1.63,1.63,5.31,2.91,10.58Z"/><path class="cls-1" d="M357.83,64.12c-.53-4-1.16-8-1.89-11.88l-1,.19c.72,3.9,1.35,7.88,1.88,11.83Z"/><path class="cls-1" d="M369.21,57.38c-7.15-.07-12-.17-12-.17l0,1s4.86.1,12,.17Z"/><path class="cls-1" d="M393.2,57.4c-3.56,0-7.13.05-10.57.05h-1.42v1h1.42c3.44,0,7,0,10.58-.05Z"/><path class="cls-1" d="M392.06,134c1.09,0,2.17,0,3.21-.08l0-1c-1,.05-2.09.08-3.16.08a75.17,75.17,0,0,1-8.74-.53l-.12,1a79.61,79.61,0,0,0,8.85.53Z"/><path class="cls-1" d="M371.54,130.44c-6.72-1.52-11.47-3.18-11.52-3.19l-.33.94a113.78,113.78,0,0,0,11.63,3.23Z"/><path class="cls-1" d="M406.8,130.69l.36.93.64-.25-.38-.93Z"/><path class="cls-1" d="M375.24,97.35a52.91,52.91,0,0,1-11.34-3.46l-.44.9A53.36,53.36,0,0,0,375,98.33Z"/><path class="cls-1" d="M399,98.89a96.93,96.93,0,0,1-11.93,0l-.06,1c1.95.12,3.95.18,5.95.18s4.07-.06,6.1-.19Z"/><path class="cls-1" d="M196.36,202.91a87.73,87.73,0,0,0-10.59,5.83l.27.42.28.42.38-.25a89.38,89.38,0,0,1,10.08-5.51Z"/><path class="cls-1" d="M207.81,199l.19,1c4.34-.85,7.86-.57,10.39.84l.49-.88C216.13,198.38,212.39,198.06,207.81,199Z"/><path class="cls-1" d="M213.38,248.07l.52.85a26.64,26.64,0,0,0,7.7-8c.15-.23.31-.44.46-.67l-.42-.27-.42-.28C218.67,243.64,216,246.44,213.38,248.07Z"/><path class="cls-1" d="M202,249.09l.5-.87c-4.83-2.77-7.92-8.41-8-8.47l-.43.24-.44.24c0,.07.36.65.92,1.5A24,24,0,0,0,202,249.09Z"/><path class="cls-1" d="M456.22,204.32v1c4.14,0,8.19-.15,12-.35l-.05-1C464.37,204.17,460.34,204.29,456.22,204.32Z"/><path class="cls-1" d="M444.23,204.2c-7.17-.21-11.92-.58-12-.59l0,.5,0,.5h.15c.81.06,5.33.39,11.87.58Z"/><path class="cls-1" d="M492.15,202.27l-.19-1c-3.62.7-7.6,1.28-11.83,1.74l.11,1C484.5,203.57,488.5,203,492.15,202.27Z"/><path class="cls-1" d="M187.67,125.62a11.13,11.13,0,0,0,7.72-1.83,8.41,8.41,0,0,0,3.24-6.42,7.87,7.87,0,0,0-1.59-5.74,8.87,8.87,0,0,0-5-3.12l-.32,4.1a6.3,6.3,0,0,1,2.22,1.2,3.9,3.9,0,0,1,1.16,3.35,4.19,4.19,0,0,1-1.91,3.28,7.83,7.83,0,0,1-5.08,1,8.88,8.88,0,0,1-5-1.67,4,4,0,0,1-1.55-3.62,4.1,4.1,0,0,1,1.54-3.17,5.72,5.72,0,0,1,2.22-.84l.32-4.13a7.23,7.23,0,0,0-3.79,1.07c-2.29,1.35-3.57,3.67-3.82,7a8.17,8.17,0,0,0,2,6.26C181.64,124.23,184.22,125.35,187.67,125.62Z"/><path class="cls-1" d="M199.26,102.16l-7.91-.61a4.67,4.67,0,0,1-2.83-1,2.69,2.69,0,0,1-.84-2.36,2,2,0,0,1,1.17-1.89,4,4,0,0,1,1.94-.25l8.89.69.3-3.9-8.58-.66a20.29,20.29,0,0,0-2.83-.09,3.82,3.82,0,0,0-1.74.6,4.31,4.31,0,0,0-1.58,1.7,6.19,6.19,0,0,0-.66,2.41,5.44,5.44,0,0,0,.33,2.33,4.69,4.69,0,0,0,1.63,2.05l-7-.54-.29,3.82L199,106Z"/><path class="cls-1" d="M196.65,84.85a4.77,4.77,0,0,1-1.9.15l-8.8-.69-.3,3.92,8.8.68a8.82,8.82,0,0,0,3.84-.34c1.61-.62,2.5-2,2.67-4.17a5.93,5.93,0,0,0-.14-2,5.37,5.37,0,0,0-1-1.81,2.65,2.65,0,0,0-.55-.56l-.38-.3,2.06.16.29-3.71-14.6-1.13-.3,3.87,7.94.62a5.6,5.6,0,0,1,2.24.55,2.68,2.68,0,0,1,1.37,2.79A2,2,0,0,1,196.65,84.85Z"/><path class="cls-1" d="M191.35,63.47a3.48,3.48,0,0,1,1.52-.44l.3-3.91c-2.09.06-3.6.63-4.51,1.74a7.65,7.65,0,0,0-1.58,4.4,6.4,6.4,0,0,0,1.7,5.23A10,10,0,0,0,200,71.54q2.22-1.5,2.49-5A6.18,6.18,0,0,0,200.43,61a6.44,6.44,0,0,0-3.2-1.51l-.3,3.89a3.62,3.62,0,0,1,1.82.83,2.34,2.34,0,0,1,.58,2,2.56,2.56,0,0,1-2,2.43,7.35,7.35,0,0,1-2.6.18,7.78,7.78,0,0,1-2.67-.59,2.63,2.63,0,0,1-1.71-2.79A2.31,2.31,0,0,1,191.35,63.47Z"/><polygon class="cls-1" points="203.03 53.52 198.43 53.17 196.91 51.46 203.42 48.41 203.78 43.76 194.27 48.49 189.23 42.84 188.87 47.58 194 52.83 183.35 52 183.06 55.75 202.74 57.27 203.03 53.52"/><path class="cls-1" d="M450.35,156.59a12.84,12.84,0,0,1-2.31.13h-1.66a8.26,8.26,0,0,0-3.88.71,4.7,4.7,0,0,0-2,2.43,5,5,0,0,0-2.41-3,7.57,7.57,0,0,0-3.47-.9,7.07,7.07,0,0,0-2.61.46,8,8,0,0,0-2.09,1.24,6.18,6.18,0,0,0-1.73,2.32,10.8,10.8,0,0,0-.65,3.92v11.86l24.8,0v-5.06h-9.73V165.7a4.17,4.17,0,0,1,.79-2.95,4.73,4.73,0,0,1,3.17-.81l2.3,0a11.68,11.68,0,0,0,2.14-.22c.34-.07.78-.18,1.33-.33v-5.72h-.63A2,2,0,0,1,450.35,156.59Zm-11.82,14.17h-6.66V165a5.18,5.18,0,0,1,.44-2.4,3.13,3.13,0,0,1,3-1.41,2.79,2.79,0,0,1,2.79,1.47,5.9,5.9,0,0,1,.4,2.49Z"/><path class="cls-1" d="M440,128.21q-6.81,0-10.24,3.74c-1.93,1.87-2.9,4.57-2.9,8.12s.95,6.25,2.88,8.13Q433.14,152,440,152t10.23-3.75q2.9-2.8,2.91-8.12T450.22,132Q446.67,128.22,440,128.21Zm6.44,16.8a12.33,12.33,0,0,1-12.93,0,6,6,0,0,1-2.26-4.92,5.9,5.9,0,0,1,2.29-4.88,12.42,12.42,0,0,1,12.91,0,5.94,5.94,0,0,1,2.27,4.89A6,6,0,0,1,446.43,145Z"/><path class="cls-1" d="M449,123q4.05-2.3,4.05-8.73t-4-8.72a12.74,12.74,0,0,0-6.16-1.24l-15.24,0v5.27l15.23,0a8.48,8.48,0,0,1,3.73.61q2.08.93,2.08,4.07t-2.09,4.09a8.65,8.65,0,0,1-3.73.6l-15.24,0v5.27l15.24,0A12.76,12.76,0,0,0,449,123Z"/><polygon class="cls-1" points="452.47 94.64 434.87 94.61 452.49 84.54 452.49 79.36 427.69 79.33 427.68 84.15 444.98 84.18 427.67 94 427.66 99.43 452.46 99.47 452.47 94.64"/><path class="cls-1" d="M452.51,63.8a9,9,0,0,0-4.61-8.32,16.42,16.42,0,0,0-8.38-2,18.77,18.77,0,0,0-4.1.47,10.82,10.82,0,0,0-4,1.76,8.12,8.12,0,0,0-3.15,4.22,13.14,13.14,0,0,0-.55,3.84V74.46l24.8,0Zm-4.31,5.66-16.19,0V64.65q0-3.54,2-4.72a11.58,11.58,0,0,1,5.82-1.18,12.84,12.84,0,0,1,4.72.79,5.17,5.17,0,0,1,3.62,5.13Z"/><path class="cls-1" d="M366.65,144a1.33,1.33,0,0,0-.09-.84,1.59,1.59,0,0,0-1.24-.81l-2.51-.49-1,5.2,2.34.46a4,4,0,0,0,.75.07,1.37,1.37,0,0,0,.64-.15,1.34,1.34,0,0,0,.45-.34,1.52,1.52,0,0,0,.39-.78,1.41,1.41,0,0,0-.05-.8,1.21,1.21,0,0,0-.52-.58,1.08,1.08,0,0,0,.85-.94Zm-1.83,2.62a1.31,1.31,0,0,1-.55,0l-1.26-.24.27-1.39,1.28.25a1.41,1.41,0,0,1,.5.19.57.57,0,0,1,.23.62A.69.69,0,0,1,364.82,146.57Zm.47-2.29a1.1,1.1,0,0,1-.58,0l-1.26-.25.22-1.15,1.13.22a2.21,2.21,0,0,1,.6.2.49.49,0,0,1,.19.54A.47.47,0,0,1,365.29,144.28Z"/><path class="cls-1" d="M371.93,144.05a2.28,2.28,0,0,0-1.58-.94,2.38,2.38,0,0,0-1.83.27,2.83,2.83,0,0,0-1.21,2,2.87,2.87,0,0,0,.38,2.3,2.32,2.32,0,0,0,1.58.94,2.34,2.34,0,0,0,1.83-.28,2.85,2.85,0,0,0,1.2-2A2.8,2.8,0,0,0,371.93,144.05Zm-.72,2.09a2.13,2.13,0,0,1-.64,1.28,1.27,1.27,0,0,1-1.12.28,1.31,1.31,0,0,1-.94-.68,2.21,2.21,0,0,1-.12-1.43,2.14,2.14,0,0,1,.65-1.28,1.3,1.3,0,0,1,1.13-.28,1.27,1.27,0,0,1,.93.68A2.14,2.14,0,0,1,371.21,146.14Z"/><polygon class="cls-1" points="374.85 149.55 375.68 145.27 377.24 145.57 377.42 144.65 373.2 143.83 373.02 144.75 374.59 145.06 373.75 149.34 374.85 149.55"/><polygon class="cls-1" points="379.26 150.41 380.1 146.13 381.65 146.44 381.83 145.51 377.62 144.69 377.44 145.61 379 145.92 378.17 150.2 379.26 150.41"/><path class="cls-1" d="M383.6,151.41a2.32,2.32,0,0,0,1.82-.28,3.37,3.37,0,0,0,.84-4.29,2.74,2.74,0,0,0-3.41-.66,2.81,2.81,0,0,0-1.21,2,2.87,2.87,0,0,0,.37,2.3A2.36,2.36,0,0,0,383.6,151.41Zm-.88-3a2.17,2.17,0,0,1,.65-1.28,1.37,1.37,0,0,1,2.06.4,2.68,2.68,0,0,1-.53,2.71,1.28,1.28,0,0,1-1.12.28,1.31,1.31,0,0,1-.94-.68A2.2,2.2,0,0,1,382.72,148.38Z"/><path class="cls-1" d="M389.68,151.29l-.15-4.28-1.58-.3-1,5.2,1,.2.68-3.52c0-.1.05-.25.08-.43s.06-.32.08-.42l.13,4.56,1.05.2,1.84-4.17c0,.1-.05.24-.08.42l-.09.42-.69,3.52,1,.2,1-5.2-1.56-.31Z"/><path class="cls-1" d="M363.66,156a1.5,1.5,0,0,0,.78-1.08,1.3,1.3,0,0,0-.25-1.15,2.48,2.48,0,0,0-.83-.56l-.87-.39a3,3,0,0,1-.65-.35.44.44,0,0,1-.17-.46.54.54,0,0,1,.35-.43,1.22,1.22,0,0,1,.72,0,1.52,1.52,0,0,1,.62.25.79.79,0,0,1,.29.75l1,.21a1.57,1.57,0,0,0-.37-1.39,2.34,2.34,0,0,0-1.33-.71,2.18,2.18,0,0,0-1.6.17,1.53,1.53,0,0,0-.75,1.06,1.33,1.33,0,0,0,.31,1.23,3.64,3.64,0,0,0,1.06.62l.54.23a2.63,2.63,0,0,1,.68.38.49.49,0,0,1,.15.45.62.62,0,0,1-.58.51,1.94,1.94,0,0,1-.66,0,1.15,1.15,0,0,1-.86-.5,1.06,1.06,0,0,1-.1-.57l-1-.2a1.53,1.53,0,0,0,.34,1.39,2.66,2.66,0,0,0,1.52.78A2.39,2.39,0,0,0,363.66,156Z"/><rect class="cls-1" x="363.22" y="153.56" width="5.3" height="1.1" transform="translate(144.62 483.74) rotate(-78.97)"/><path class="cls-1" d="M371.82,154.11a1.38,1.38,0,0,0,0-.57,1.78,1.78,0,0,0-.17-.49,1.42,1.42,0,0,0-.42-.46,2.43,2.43,0,0,0-.79-.29l-2.49-.49-1,5.21,1.07.2.39-2,1.06.21a.9.9,0,0,1,.59.29,1,1,0,0,1,0,.7l-.08.48a2.38,2.38,0,0,0,0,.46c0,.07,0,.17,0,.29l1.2.23,0-.13a.43.43,0,0,1-.15-.33,2.73,2.73,0,0,1,.07-.49l.07-.35a1.82,1.82,0,0,0,0-.84,1,1,0,0,0-.43-.51,1.12,1.12,0,0,0,.71-.39A1.69,1.69,0,0,0,371.82,154.11ZM370.7,154a.59.59,0,0,1-.42.53,1.27,1.27,0,0,1-.54,0l-1.17-.23.27-1.39,1.2.23a1.08,1.08,0,0,1,.49.19A.67.67,0,0,1,370.7,154Z"/><polygon class="cls-1" points="374.24 153.04 373.15 152.83 372.14 158.03 375.82 158.75 376.01 157.81 373.41 157.31 374.24 153.04"/><path class="cls-1" d="M379.9,154a2.28,2.28,0,0,0-1.82.27,2.8,2.8,0,0,0-1.21,2,2.86,2.86,0,0,0,.37,2.3,2.76,2.76,0,0,0,3.41.67,2.86,2.86,0,0,0,1.21-2,2.83,2.83,0,0,0-.37-2.3A2.31,2.31,0,0,0,379.9,154Zm.87,3a2.19,2.19,0,0,1-.64,1.29,1.39,1.39,0,0,1-2.06-.4,2.23,2.23,0,0,1-.12-1.44,2.14,2.14,0,0,1,.65-1.28,1.28,1.28,0,0,1,1.12-.27,1.25,1.25,0,0,1,.93.68A2.12,2.12,0,0,1,380.77,157Z"/><rect class="cls-1" x="380.49" y="156.92" width="5.3" height="1.1" transform="translate(155.28 503.41) rotate(-78.97)"/><polygon class="cls-1" points="385.18 155.17 384.17 160.38 385.18 160.57 385.9 156.88 387.3 160.99 388.39 161.2 389.4 155.99 388.39 155.8 387.68 159.43 386.32 155.39 385.18 155.17"/><polygon class="cls-1" points="366.31 116.68 366.52 113.16 367.81 113.24 367.85 112.48 364.39 112.27 364.34 113.02 365.63 113.1 365.4 116.62 366.31 116.68"/><path class="cls-1" d="M371.32,116.61a2.3,2.3,0,0,0,.76-1.72,2.26,2.26,0,0,0-.54-1.81,1.84,1.84,0,0,0-1.37-.58,1.82,1.82,0,0,0-1.43.41,2.25,2.25,0,0,0-.76,1.72,2.31,2.31,0,0,0,.54,1.81,1.84,1.84,0,0,0,1.37.58A1.86,1.86,0,0,0,371.32,116.61Zm-2.45-1.92a1.72,1.72,0,0,1,.38-1.1,1,1,0,0,1,.87-.34,1,1,0,0,1,.82.45,2.17,2.17,0,0,1-.14,2.23,1.1,1.1,0,0,1-1.69-.11A1.75,1.75,0,0,1,368.87,114.69Z"/><path class="cls-1" d="M373.63,115.59l.89.06a1.57,1.57,0,0,0,1.09-.25,1.32,1.32,0,0,0,.45-1,1.27,1.27,0,0,0-.32-1,1.49,1.49,0,0,0-1-.4l-1.84-.11-.26,4.28.88,0Zm.13-2,.8.05a.74.74,0,0,1,.47.17.76.76,0,0,1-.06,1,.68.68,0,0,1-.49.13l-.8,0Z"/><path class="cls-1" d="M378.19,114.34a1.07,1.07,0,0,0,.37,1,3.27,3.27,0,0,0,.92.38l.46.13a2.24,2.24,0,0,1,.58.24.37.37,0,0,1,.17.34.51.51,0,0,1-.42.47,1.65,1.65,0,0,1-.53,0,1,1,0,0,1-.74-.31.85.85,0,0,1-.14-.45l-.85,0a1.26,1.26,0,0,0,.42,1.08,2.15,2.15,0,0,0,1.3.46,1.94,1.94,0,0,0,1.31-.31,1.2,1.2,0,0,0,.51-.94,1,1,0,0,0-.32-.9,2,2,0,0,0-.73-.36l-.74-.22a3.18,3.18,0,0,1-.55-.21.37.37,0,0,1-.19-.36.42.42,0,0,1,.24-.37,1,1,0,0,1,.57-.11,1.18,1.18,0,0,1,.53.14.62.62,0,0,1,.31.57l.86.06a1.29,1.29,0,0,0-.45-1.08,2.16,2.16,0,0,0-2.41-.13A1.23,1.23,0,0,0,378.19,114.34Z"/><rect class="cls-1" x="380.46" y="115.11" width="4.29" height="0.89" transform="translate(243.42 490.21) rotate(-86.42)"/><path class="cls-1" d="M387.19,115.52a1.32,1.32,0,0,0,.19-.59,1.36,1.36,0,0,0-.05-.46,1.62,1.62,0,0,0-.19-.37,1,1,0,0,0-.39-.33,2.15,2.15,0,0,0-.66-.15l-2-.13-.27,4.28.88.06.1-1.68.87,0a.76.76,0,0,1,.51.17.82.82,0,0,1,.1.56l0,.39a2.23,2.23,0,0,0,0,.37c0,.06,0,.14,0,.24l1,.06v-.11a.32.32,0,0,1-.15-.25,1.27,1.27,0,0,1,0-.4l0-.29a1.45,1.45,0,0,0-.09-.68.77.77,0,0,0-.39-.36A.88.88,0,0,0,387.19,115.52Zm-1-.06a1.06,1.06,0,0,1-.43,0l-1-.06.07-1.15,1,.06a.94.94,0,0,1,.41.1.56.56,0,0,1,.22.54A.49.49,0,0,1,386.19,115.46Z"/><polygon class="cls-1" points="388.31 113.76 388.05 118.04 391.07 118.23 391.12 117.46 388.99 117.33 389.21 113.82 388.31 113.76"/><path class="cls-1" d="M395.21,114.56a2.23,2.23,0,0,0-2.8-.17,2.25,2.25,0,0,0-.76,1.72,2.31,2.31,0,0,0,.54,1.81,1.88,1.88,0,0,0,1.37.58,1.86,1.86,0,0,0,1.43-.41,2.3,2.3,0,0,0,.76-1.72A2.26,2.26,0,0,0,395.21,114.56Zm-.73,2.85a1.07,1.07,0,0,1-.87.34,1.05,1.05,0,0,1-.82-.45,1.69,1.69,0,0,1-.25-1.13,1.78,1.78,0,0,1,.38-1.1,1,1,0,0,1,.88-.34,1,1,0,0,1,.82.45,1.75,1.75,0,0,1,.24,1.13A1.8,1.8,0,0,1,394.48,117.41Z"/><rect class="cls-1" x="394.66" y="115.99" width="4.29" height="0.89" transform="translate(255.84 505.21) rotate(-86.42)"/><polygon class="cls-1" points="401.4 118.87 401.67 114.6 400.84 114.54 400.65 117.53 399.14 114.44 398.2 114.38 397.94 118.66 398.77 118.71 398.96 115.67 400.51 118.82 401.4 118.87"/><polygon class="cls-1" points="365.54 79.31 365.54 75.75 366.83 75.75 366.83 74.99 363.33 74.99 363.33 75.75 364.63 75.75 364.63 79.31 365.54 79.31"/><polygon class="cls-1" points="370.55 75.75 370.55 74.99 367.38 74.99 367.38 79.31 370.66 79.31 370.66 78.53 368.26 78.53 368.26 77.42 370.36 77.42 370.36 76.67 368.26 76.67 368.26 75.75 370.55 75.75"/><polygon class="cls-1" points="374.01 78 372.29 74.99 371.35 74.99 371.35 79.31 372.19 79.31 372.19 76.24 373.95 79.31 374.85 79.31 374.85 74.99 374.01 74.99 374.01 78"/><path class="cls-1" d="M379,78.5a2.87,2.87,0,0,0,.35-1.46,3.07,3.07,0,0,0-.09-.71,1.82,1.82,0,0,0-.3-.7,1.44,1.44,0,0,0-.74-.55,2.13,2.13,0,0,0-.67-.09H375.7v4.32h1.86A1.56,1.56,0,0,0,379,78.5Zm-2.44.06V75.74h.84a.88.88,0,0,1,.82.35,2,2,0,0,1,.21,1,2.29,2.29,0,0,1-.14.83.9.9,0,0,1-.89.63Z"/><polygon class="cls-1" points="383.33 78.53 380.94 78.53 380.94 77.42 383.04 77.42 383.04 76.67 380.94 76.67 380.94 75.75 383.23 75.75 383.23 74.99 380.06 74.99 380.06 79.31 383.33 79.31 383.33 78.53"/><path class="cls-1" d="M387.58,79.2a.36.36,0,0,1-.17-.25,3.06,3.06,0,0,1,0-.4v-.29a1.3,1.3,0,0,0-.13-.67.78.78,0,0,0-.42-.35.83.83,0,0,0,.51-.42,1.2,1.2,0,0,0,.16-.6,1.34,1.34,0,0,0-.08-.46,1.65,1.65,0,0,0-.22-.36,1.08,1.08,0,0,0-.4-.3,1.77,1.77,0,0,0-.69-.11h-2.06v4.32h.88v-1.7h.88a.77.77,0,0,1,.52.14.81.81,0,0,1,.14.55v.4a2.34,2.34,0,0,0,0,.38,2,2,0,0,0,.06.23h1Zm-1.23-2.37a1,1,0,0,1-.44.07h-1V75.74h1a.89.89,0,0,1,.41.07.54.54,0,0,1,.25.53A.49.49,0,0,1,386.35,76.83Z"/><polygon class="cls-1" points="388.37 74.99 388.37 79.31 391.43 79.31 391.43 78.53 389.28 78.53 389.28 74.99 388.37 74.99"/><path class="cls-1" d="M391.88,77.14a2.31,2.31,0,0,0,.66,1.78,1.84,1.84,0,0,0,1.41.51,1.88,1.88,0,0,0,1.42-.51,2.34,2.34,0,0,0,.65-1.78,2.31,2.31,0,0,0-.65-1.78,1.88,1.88,0,0,0-1.42-.5,1.84,1.84,0,0,0-1.41.5A2.28,2.28,0,0,0,391.88,77.14ZM393.1,76a1.1,1.1,0,0,1,1.7,0,1.76,1.76,0,0,1,.32,1.12,1.79,1.79,0,0,1-.32,1.13,1.12,1.12,0,0,1-1.7,0,1.73,1.73,0,0,1-.32-1.13A1.7,1.7,0,0,1,393.1,76Z"/><rect class="cls-1" x="396.64" y="74.99" width="0.9" height="4.32"/><polygon class="cls-1" points="399.21 76.24 400.96 79.31 401.87 79.31 401.87 74.99 401.03 74.99 401.03 78 399.31 74.99 398.36 74.99 398.36 79.31 399.21 79.31 399.21 76.24"/><path class="cls-1" d="M364.24,46.28a2.41,2.41,0,0,1-.73.09,1.34,1.34,0,0,1-1.06-.36,1.28,1.28,0,0,1-.23-.62H361a1.77,1.77,0,0,0,.68,1.47,3,3,0,0,0,1.85.53,2.68,2.68,0,0,0,1.79-.54,1.71,1.71,0,0,0,.63-1.36,1.48,1.48,0,0,0-.53-1.22,2.75,2.75,0,0,0-1-.43l-1-.25a3.58,3.58,0,0,1-.8-.24.53.53,0,0,1-.29-.48.61.61,0,0,1,.3-.54,1.4,1.4,0,0,1,.79-.2,1.65,1.65,0,0,1,.74.15.85.85,0,0,1,.48.77h1.2a1.79,1.79,0,0,0-.71-1.46,2.68,2.68,0,0,0-1.63-.5,2.47,2.47,0,0,0-1.73.54,1.71,1.71,0,0,0-.59,1.33,1.47,1.47,0,0,0,.6,1.29,4.2,4.2,0,0,0,1.31.46l.65.14a2.72,2.72,0,0,1,.83.28.52.52,0,0,1,.26.45A.71.71,0,0,1,364.24,46.28Z"/><rect class="cls-1" x="366.75" y="41.27" width="1.24" height="5.97"/><path class="cls-1" d="M370.41,44.9h1.21a1,1,0,0,1,.71.19,1.07,1.07,0,0,1,.2.76v.55a3,3,0,0,0,0,.52c0,.08,0,.18.08.32h1.38v-.15a.51.51,0,0,1-.23-.34,3.43,3.43,0,0,1,0-.56v-.4a1.86,1.86,0,0,0-.18-.93,1.07,1.07,0,0,0-.58-.47,1.26,1.26,0,0,0,.71-.58A1.86,1.86,0,0,0,374,43a1.57,1.57,0,0,0-.11-.63,1.71,1.71,0,0,0-.3-.5,1.56,1.56,0,0,0-.56-.42,2.74,2.74,0,0,0-.94-.15h-2.85v6h1.22Zm0-2.59h1.37a1.26,1.26,0,0,1,.58.1.75.75,0,0,1,.34.73.68.68,0,0,1-.35.67,1.38,1.38,0,0,1-.6.1h-1.34Z"/><polygon class="cls-1" points="379.37 46.16 376.39 46.16 376.39 41.27 375.15 41.27 375.15 47.24 379.37 47.24 379.37 46.16"/><path class="cls-1" d="M382.85,47.4a2.63,2.63,0,0,0,2-.69,3.24,3.24,0,0,0,.9-2.47,3.17,3.17,0,0,0-.9-2.46,3.11,3.11,0,0,0-3.91,0,3.14,3.14,0,0,0-.91,2.46,3.21,3.21,0,0,0,.91,2.47A2.61,2.61,0,0,0,382.85,47.4Zm-1.18-4.71a1.54,1.54,0,0,1,2.36,0,2.46,2.46,0,0,1,.43,1.55A2.44,2.44,0,0,1,384,45.8a1.54,1.54,0,0,1-2.36,0,3,3,0,0,1,0-3.11Z"/><rect class="cls-1" x="386.56" y="41.27" width="1.24" height="5.97"/><polygon class="cls-1" points="390.11 43 392.54 47.24 393.78 47.24 393.78 41.27 392.62 41.27 392.62 45.43 390.25 41.27 388.94 41.27 388.94 47.24 390.11 47.24 390.11 43"/><path class="cls-1" d="M323.06,117.62a2.65,2.65,0,0,0,2.41-1,7.22,7.22,0,0,0,.94-2.36l.31-1.17a5.12,5.12,0,0,1,.58-1.5.92.92,0,0,1,.86-.44,1.26,1.26,0,0,1,1.22,1,4,4,0,0,1,.13,1.34,2.46,2.46,0,0,1-.76,1.92,2.22,2.22,0,0,1-1.14.37l-.09,2.18a3.2,3.2,0,0,0,2.73-1.12,5.34,5.34,0,0,0,1.12-3.36,4.86,4.86,0,0,0-.85-3.31,3.13,3.13,0,0,0-2.44-1.26,2.65,2.65,0,0,0-2.28.88,4.89,4.89,0,0,0-.87,1.86l-.53,1.9a6.7,6.7,0,0,1-.52,1.43.93.93,0,0,1-.89.5,1.12,1.12,0,0,1-1-.58,2.5,2.5,0,0,1-.3-1.46,2.92,2.92,0,0,1,.33-1.35,1.58,1.58,0,0,1,1.44-.83l.09-2.19a3.24,3.24,0,0,0-2.71,1.18,4.86,4.86,0,0,0-1,3,4.62,4.62,0,0,0,.84,3.22A3.14,3.14,0,0,0,323.06,117.62Z"/><polygon class="cls-1" points="331.44 105.2 326.55 105 326.73 100.75 331.61 100.95 331.71 98.68 320.77 98.22 320.68 100.49 324.85 100.67 324.67 104.92 320.5 104.74 320.41 107.01 331.34 107.47 331.44 105.2"/><rect class="cls-1" x="325.24" y="89.83" width="2.27" height="10.94" transform="translate(217.52 417.42) rotate(-87.61)"/><path class="cls-1" d="M332.07,90l-4.29-.18.1-2.23a1.82,1.82,0,0,1,.4-1.29,2.07,2.07,0,0,1,1.41-.3l1,0a5.86,5.86,0,0,0,.94-.06c.15,0,.35-.07.59-.13l.11-2.52h-.27a.93.93,0,0,1-.64.4,5.2,5.2,0,0,1-1,0l-.74,0a3.54,3.54,0,0,0-1.72.25,2,2,0,0,0-.91,1,2.18,2.18,0,0,0-1-1.34,3.44,3.44,0,0,0-1.52-.46,3.2,3.2,0,0,0-1.15.16,3.35,3.35,0,0,0-.95.51,2.74,2.74,0,0,0-.8,1,4.88,4.88,0,0,0-.36,1.72L321,91.75l10.94.46Zm-6.1-.26L323,89.6l.1-2.52a2.25,2.25,0,0,1,.24-1,1.37,1.37,0,0,1,1.36-.57,1.22,1.22,0,0,1,1.2.7,2.6,2.6,0,0,1,.14,1.11Z"/><polygon class="cls-1" points="323.54 78.54 332.53 78.92 332.63 76.62 323.63 76.24 323.77 72.97 321.83 72.89 321.46 81.75 323.4 81.83 323.54 78.54"/><polygon class="cls-1" points="349.47 110.61 347.51 110.53 347.28 115.98 338.31 115.61 338.21 117.89 349.15 118.35 349.47 110.61"/><path class="cls-1" d="M344,109.25a5.93,5.93,0,0,0,4.58-1.47,5.7,5.7,0,0,0,.3-7.17,5.9,5.9,0,0,0-4.44-1.84,5.77,5.77,0,0,0-4.58,1.46,5.67,5.67,0,0,0-.3,7.17A5.75,5.75,0,0,0,344,109.25Zm-2.54-7.52a5.48,5.48,0,0,1,5.7.24,2.83,2.83,0,0,1-.19,4.32,4.45,4.45,0,0,1-2.88.69,4.39,4.39,0,0,1-2.81-.93,2.83,2.83,0,0,1,.18-4.32Z"/><rect class="cls-1" x="343.47" y="90.6" width="2.27" height="10.94" transform="translate(234.23 436.37) rotate(-87.61)"/><polygon class="cls-1" points="350.29 90.94 342.54 90.62 350.48 86.49 350.58 84.2 339.64 83.75 339.55 85.88 347.18 86.2 339.37 90.22 339.27 92.61 350.2 93.07 350.29 90.94"/><polygon class="cls-1" points="322.41 176.28 322.67 174.19 315.81 173.35 314.35 185.24 316.35 185.49 316.96 180.49 321.22 181.01 321.47 178.94 317.21 178.42 317.55 175.68 322.41 176.28"/><polygon class="cls-1" points="325.98 174.57 323.97 174.33 322.52 186.24 329.33 187.08 329.59 184.94 324.79 184.35 325.98 174.57"/><path class="cls-1" d="M334.89,175.67,330,187.16l2.1.26.95-2.37,3.55.43.33,2.53,2.18.26-1.94-12.33Zm-1,7.39,1.82-4.53.65,4.83Z"/><polygon class="cls-1" points="346.67 185.54 343.87 176.76 341.76 176.51 340.3 188.42 342.18 188.65 343.21 180.19 346.1 189.13 348.11 189.37 349.56 177.46 347.69 177.23 346.67 185.54"/><polygon class="cls-1" points="357.18 178.39 352.86 182.85 353.46 177.94 351.48 177.69 350.02 189.61 352 189.85 352.49 185.87 353.61 184.77 355.94 190.33 358.52 190.65 355.23 183.13 359.77 178.71 357.18 178.39"/><path class="cls-1" d="M246.14,166.21l-4.41-.48L240.62,176l2.13.23.4-3.69,2.13.23a3.93,3.93,0,0,0,2.66-.48,3.2,3.2,0,0,0,1.18-2.47,3.09,3.09,0,0,0-.64-2.55A3.56,3.56,0,0,0,246.14,166.21Zm.85,3.39a1.52,1.52,0,0,1-.54,1.13,1.65,1.65,0,0,1-1.18.25l-1.93-.21.33-3,1.93.21a1.73,1.73,0,0,1,1.1.47A1.43,1.43,0,0,1,247,169.6Z"/><polygon class="cls-1" points="253.34 166.99 251.19 166.76 250.08 177.02 257.35 177.81 257.55 175.96 252.43 175.41 253.34 166.99"/><path class="cls-1" d="M262.84,168l-4.78,9.87,2.25.24.92-2,3.78.41.45,2.19,2.33.25-2.52-10.66Zm-.83,6.37,1.77-3.9.86,4.18Z"/><polygon class="cls-1" points="268.1 170.43 271.18 170.76 270.27 179.21 272.43 179.44 273.34 171 276.41 171.33 276.61 169.51 268.3 168.61 268.1 170.43"/><polygon class="cls-1" points="276.81 179.92 284.59 180.76 284.79 178.91 279.11 178.3 279.4 175.66 284.38 176.2 284.58 174.42 279.59 173.88 279.83 171.7 285.26 172.29 285.45 170.47 277.93 169.65 276.81 179.92"/><path class="cls-1" d="M164.84,169.09a2.36,2.36,0,0,0,.76-.57,2.26,2.26,0,0,0,.47-1.48,2.62,2.62,0,0,0-.46-1.54,3.12,3.12,0,0,0-2.61-1.07h-4.86v10h4.53a7,7,0,0,0,1.42-.13,2.78,2.78,0,0,0,1.85-1.3,2.93,2.93,0,0,0,.45-1.6A2.64,2.64,0,0,0,166,170,2.28,2.28,0,0,0,164.84,169.09Zm-4.69-2.91h2.18a3.92,3.92,0,0,1,1.19.15.9.9,0,0,1,.54.93.93.93,0,0,1-.41.88,2,2,0,0,1-1.06.25h-2.44Zm3.46,6.38a2.39,2.39,0,0,1-1,.18h-2.44v-2.68h2.47a2.49,2.49,0,0,1,1,.17,1.08,1.08,0,0,1,.64,1.07A1.27,1.27,0,0,1,163.61,172.56Z"/><path class="cls-1" d="M176,173.66a6.18,6.18,0,0,1,0-.94v-.67a3.31,3.31,0,0,0-.29-1.57,1.88,1.88,0,0,0-1-.8,2,2,0,0,0,1.19-1,2.92,2.92,0,0,0,.18-2.46,3,3,0,0,0-.51-.85,2.42,2.42,0,0,0-.94-.7,4.45,4.45,0,0,0-1.58-.26h-4.81v10h2v-3.94h2.05a1.71,1.71,0,0,1,1.2.32,1.93,1.93,0,0,1,.33,1.28l0,.94a4.12,4.12,0,0,0,.09.86,5,5,0,0,0,.13.54h2.32v-.25A.85.85,0,0,1,176,173.66Zm-2.48-4.95a2.36,2.36,0,0,1-1,.17h-2.26v-2.7h2.32a2,2,0,0,1,1,.18,1.24,1.24,0,0,1,.58,1.22A1.12,1.12,0,0,1,173.56,168.71Z"/><rect class="cls-1" x="178.11" y="164.43" width="2.09" height="10.05"/><path class="cls-1" d="M187.36,168.76l-1.76-.41a6.05,6.05,0,0,1-1.34-.42.88.88,0,0,1-.49-.8,1,1,0,0,1,.5-.92,2.36,2.36,0,0,1,1.33-.33,2.75,2.75,0,0,1,1.25.26,1.44,1.44,0,0,1,.81,1.29h2a3,3,0,0,0-1.19-2.45,4.51,4.51,0,0,0-2.75-.84,4.28,4.28,0,0,0-2.92.89,2.91,2.91,0,0,0-1,2.25,2.44,2.44,0,0,0,1,2.17,6.76,6.76,0,0,0,2.2.77l1.09.24a4.8,4.8,0,0,1,1.39.47.85.85,0,0,1,.44.77,1.17,1.17,0,0,1-.9,1.17,3.78,3.78,0,0,1-1.23.16,2.25,2.25,0,0,1-1.79-.62,2.1,2.1,0,0,1-.38-1h-2a2.93,2.93,0,0,0,1.13,2.46,4.91,4.91,0,0,0,3.12.9,4.47,4.47,0,0,0,3-.91,2.89,2.89,0,0,0,1.07-2.29,2.46,2.46,0,0,0-.9-2A4.59,4.59,0,0,0,187.36,168.76Z"/><polygon class="cls-1" points="200.38 174.48 196.04 168.57 200.17 164.43 197.45 164.43 193.57 168.57 193.57 164.43 191.5 164.43 191.5 174.48 193.57 174.48 193.57 171.12 194.58 170.09 197.68 174.48 200.38 174.48"/><polygon class="cls-1" points="209.23 172.68 203.67 172.68 203.67 170.09 208.55 170.09 208.55 168.35 203.67 168.35 203.67 166.21 208.98 166.21 208.98 164.43 201.61 164.43 201.61 174.48 209.23 174.48 209.23 172.68"/><polygon class="cls-1" points="213.05 174.48 215.16 174.48 215.16 166.21 218.17 166.21 218.17 164.43 210.03 164.43 210.03 166.21 213.05 166.21 213.05 174.48"/><path class="cls-1" d="M278.88,100.66a10.8,10.8,0,0,1-1.94.13l-1.4,0a6.69,6.69,0,0,0-3.26.64,3.93,3.93,0,0,0-1.63,2.09,4.25,4.25,0,0,0-2-2.5,6.26,6.26,0,0,0-2.93-.73,5.77,5.77,0,0,0-2.19.42,6.43,6.43,0,0,0-1.75,1.07,5.43,5.43,0,0,0-1.44,2,9.27,9.27,0,0,0-.5,3.34l.1,10.12,20.85-.2,0-4.32-8.18.08,0-4.32a3.59,3.59,0,0,1,.64-2.52,3.87,3.87,0,0,1,2.66-.73l1.94,0a9.62,9.62,0,0,0,1.79-.2c.28-.06.66-.16,1.12-.3l-.05-4.87h-.52A1.75,1.75,0,0,1,278.88,100.66ZM263.47,112.9l-.05-4.88a4.4,4.4,0,0,1,.35-2,2.6,2.6,0,0,1,2.53-1.24,2.36,2.36,0,0,1,2.37,1.23,5.16,5.16,0,0,1,.36,2.12l0,4.76Z"/><rect class="cls-1" x="259.67" y="92.01" width="20.86" height="4.39" transform="matrix(1, -0.01, 0.01, 1, -0.89, 2.58)"/><path class="cls-1" d="M280.47,87.7l-.1-9.53a14.58,14.58,0,0,0-.31-3,5.83,5.83,0,0,0-2.72-3.86,6.06,6.06,0,0,0-3.34-.91,5.44,5.44,0,0,0-3.05.85,4.7,4.7,0,0,0-1.81,2.46,5,5,0,0,0-1.21-1.6,4.58,4.58,0,0,0-3.08-.95,5.21,5.21,0,0,0-3.17,1q-2.16,1.63-2.17,5.5l.1,10.22Zm-9-11.45a2.25,2.25,0,0,1,2.23-1.37,2.6,2.6,0,0,1,2.61,1.37,4.87,4.87,0,0,1,.39,2.13l.05,5.14-5.56,0-.05-5.2A5.43,5.43,0,0,1,271.52,76.25Zm-8.07.3a1.86,1.86,0,0,1,1.91-1.16,2,2,0,0,1,1.84.84,4.34,4.34,0,0,1,.54,2.24l.05,5.14-4.6,0-.05-4.6A8,8,0,0,1,263.45,76.55Z"/><path class="cls-1" d="M195.05,224.25l-1-.24a3.17,3.17,0,0,1-.77-.24.5.5,0,0,1-.29-.46.6.6,0,0,1,.29-.53,1.35,1.35,0,0,1,.77-.19,1.54,1.54,0,0,1,.72.15.82.82,0,0,1,.47.74h1.17a1.76,1.76,0,0,0-.69-1.41,2.57,2.57,0,0,0-1.59-.49,2.44,2.44,0,0,0-1.69.52,1.66,1.66,0,0,0-.57,1.29,1.43,1.43,0,0,0,.59,1.26,3.92,3.92,0,0,0,1.27.45l.63.13a2.57,2.57,0,0,1,.81.28.48.48,0,0,1,.25.44.67.67,0,0,1-.52.67,2,2,0,0,1-.71.1,1.27,1.27,0,0,1-1-.36,1.2,1.2,0,0,1-.23-.59h-1.15a1.71,1.71,0,0,0,.65,1.42,2.83,2.83,0,0,0,1.81.52,2.62,2.62,0,0,0,1.74-.53,1.66,1.66,0,0,0,.61-1.32,1.42,1.42,0,0,0-.52-1.19A2.77,2.77,0,0,0,195.05,224.25Z"/><polygon class="cls-1" points="200.88 223.96 198.62 223.96 198.62 221.75 197.41 221.75 197.41 227.56 198.62 227.56 198.62 224.97 200.88 224.97 200.88 227.56 202.08 227.56 202.08 221.75 200.88 221.75 200.88 223.96"/><path class="cls-1" d="M204.91,221.75l-2.07,5.81h1.27l.39-1.2h2.14l.38,1.2h1.32l-2.06-5.81Zm-.08,3.61.75-2.28.74,2.28Z"/><polygon class="cls-1" points="212.64 225.8 210.33 221.75 209.06 221.75 209.06 227.56 210.19 227.56 210.19 223.44 212.55 227.56 213.77 227.56 213.77 221.75 212.64 221.75 212.64 225.8"/><polygon class="cls-1" points="216.12 224.14 216.12 221.75 214.93 221.75 214.93 227.56 216.12 227.56 216.12 225.62 216.7 225.02 218.49 227.56 220.05 227.56 217.55 224.14 219.93 221.75 218.36 221.75 216.12 224.14"/></g></g></svg>