<svg xmlns="http://www.w3.org/2000/svg" viewBox="0 0 561.13 318.43"><defs><style>.cls-1{fill:#fff;}</style></defs><g id="Layer_2" data-name="Layer 2"><g id="Layer_4" data-name="Layer 4"><path d="M560.45,118.52c-9.59-9.43-35-35.25-34.77-43.64a2.39,2.39,0,0,0-.1-.84c-1.75-5.13-18.77-60.89-127-57.67,0,0-158-12-259.48,9.32-.68.14-1.24-.6-1.52-1.23C136,21,124.69,8.62,119.72,2.33c-2.65-3.35-6.47-3-8.55.67C107.3,9.93,108,23.09,103,29.41a2.13,2.13,0,0,1-1.38.81c-2.76.42-22,3.09-26.15,5.65a2.18,2.18,0,0,1-2.88-.57S60.8,3.58,51.47,6.12,46.38,44,49.56,46c.18.12.17.39.2.61C50.11,48.8,51.81,61.36,45,69a2.18,2.18,0,0,0-.59,1.38c-.16,3.85-2.63,22-34.49,41.67a2,2,0,0,1-.88.31c-2.47.29-14.37,2.71-6.14,23.11A2.2,2.2,0,0,1,3,136.69c-.59,3.1-2,17,18.91,17.83a29.13,29.13,0,0,1,9.28,1.9c4.85,1.87,11.51,4.73,12.93,6.9a2.34,2.34,0,0,0,1.86,1c6.26.36,29.41,1.52,42.57,0a2.15,2.15,0,0,1,1.67.51c4.9,4.16,34,28,60.2,29.4a2.23,2.23,0,0,1,2.07,1.7c1.48,6.3,6.92,29.75,10.69,51.46l11.58-.78.07,1-11.48.78c2.91,17,4.75,32.69,2.82,38.1,0,0-6.41,15-3.59,22a2.29,2.29,0,0,1-.37,2.43l-2.27,2.5a2.23,2.23,0,0,0,.18,3.18l1.42,1.25a2.27,2.27,0,0,0,1.73.54l18.27-2.13a2.22,2.22,0,0,0,1.93-1.77c2.77-13.83,23.13-113.93,31.71-114.39l2.46.26c-.35-1.49-.69-3.15-1-4.95l1-.17c.29,1.65.6,3.19.92,4.58,2.17,0,4.35,0,6.5-.07l0,1-2.94.05c30.47,2.83,153.63,12,213.21-17.34a2.15,2.15,0,0,1,1.9,0l-.3-1.24c-.68-.23-2.64-.9-5.41-1.92l.35-.94c3.44,1.28,5.61,2,5.64,2l.26.09.07.27q.72,3,1.42,5.82l-.28.07c.68,3.18,1.66,7.5,2.92,12.26l.61-.17c1.23,4.33,2.48,8.35,3.71,11.93l-.75.26a106,106,0,0,0,4.62,11.66l.66-.31c3.26,7.08,5.6,9.36,6.71,10.08L457,234l.42.4a2.1,2.1,0,0,1,.7,1.86c-.87,7.38-4.2,37.74-12.54,52.22-.93,1.62-2.9,12.14-1.47,12.85a4.56,4.56,0,0,0-2.65,1.64l-1.5,1.63c-.92,1.58-2.32,5.57-.5,5.37l27.5-3.42a2.22,2.22,0,0,0,1.9-1.58c3.09-10.56,22.52-76.61,28.06-86a2.18,2.18,0,0,0,.13-2c-1.68-3.81-6.65-16.63-1.59-24.84a2,2,0,0,1,.37-.45c3.4-3.16,46.49-44.13,37.93-81.1a2.22,2.22,0,0,1,3.61-2.2c5.83,5.06,14.52,11.91,20.84,13.84A2.23,2.23,0,0,0,560.45,118.52ZM137,25.37l1,0c0,.05-.2,4.56-.38,12l-1,0C136.77,29.93,137,25.42,137,25.37Zm-.61,24,1,0c0,3.69-.08,7.71-.09,12h-1C136.28,57.12,136.32,53.09,136.36,49.39Zm1.15,36-1,0c-.09-4-.15-8-.19-12h1C137.36,77.42,137.42,81.46,137.51,85.41Zm-.65,12,1,0c.14,4.08.32,8.11.52,12l-1,0C137.18,105.56,137,101.52,136.86,97.44Zm2.23,36c-.35-3.82-.68-7.85-1-12l1-.07c.29,4.12.62,8.15,1,12Zm3,23.87c-.6-3.74-1.16-7.75-1.67-11.91l1-.13c.51,4.16,1.07,8.15,1.67,11.88Zm5.18,23.5c-1.06-3.5-2.06-7.43-3-11.67l1-.21c.91,4.21,1.9,8.11,3,11.59ZM148.3,95.9c-7.23-.31-12-.7-12-.71l.09-1s4.76.39,12,.7Zm4.07,97.87c-.29-.55-.58-1.11-.86-1.7l.9-.43c.28.57.56,1.12.84,1.66Zm12.81-97.51c-1.66,0-3.29,0-4.86,0v-1c3.87,0,8.08,0,12,0l0,1C170,96.24,167.6,96.26,165.18,96.26ZM181.28,290c-4.92,0-8.86-1.66-11.09-4.63l.8-.6c2,2.71,5.69,4.21,10.3,4.23ZM212,28.22l.08-.79,1,.09-.07.76s-.1,4.16-.23,11.21h-1C211.85,32.39,212,28.22,212,28.22Zm-.41,23.26,1,0c0,3.68-.09,7.7-.13,12h-1C211.45,59.2,211.49,55.17,211.54,51.48Zm-.2,24h1q0,4.06,0,8.31V87.5h-1v-3.7Q211.33,79.57,211.34,75.5ZM184.29,94.7c4.21-.26,8.22-.62,11.92-1.08l.12,1c-3.72.45-7.75.81-12,1.08Zm2.51,152.11-.07-1,11.35-.77.07,1ZM208,91.69c1.3-.28,2.56-.58,3.75-.89l.25,1c-1.2.31-2.48.62-3.79.9Zm3.37,7.83h1c0,4,.07,8,.13,12l-1,0Q211.42,105.47,211.38,99.52Zm.34,24,1,0c.08,4,.19,8,.31,12l-1,0C211.91,131.58,211.8,127.56,211.72,123.54Zm.74,24,1,0c.17,4.21.37,8.24.58,12l-1,.05C212.83,155.8,212.63,151.77,212.46,147.55Zm2.5,36c-.41-3.63-.78-7.66-1.12-12l1-.07c.33,4.3.71,8.32,1.11,11.94Zm-1.36-21.86,0-1,12.09-.32,0,1Zm23.45,38.66-.05-1c4-.22,8-.52,11.94-.89l.1,1C245.08,199.8,241.05,200.1,237.05,200.32Zm.69-39.35,0-1c3.7-.11,7.74-.25,12-.4l0,1ZM261,198.07l-.13-1c4-.53,7.93-1.14,11.84-1.82l.17,1C268.93,196.93,264.94,197.54,261,198.07Zm.82-37.95,0-1,12-.49,0,1C269.71,159.8,265.69,160,261.79,160.12Zm22.86,33.82-.22-1c3.92-.85,7.84-1.79,11.65-2.79l.26,1C292.51,192.14,288.58,193.08,284.65,193.94Zm1.19-34.86,0-1,12-.6.05,1Zm93.79-97.92,1,.06c-.21,3.77-.36,7.89-.44,12.25l-1,0C379.27,69.08,379.42,65,379.63,61.16ZM382,147l-1,.26a10.91,10.91,0,0,1-.42-3c0-.18,0-.36,0-.54.05-1,.08-2.17.08-3.65s0-3.27-.08-5.2l1,0c.05,1.95.08,3.7.08,5.23s0,2.71-.08,3.7c0,.17,0,.33,0,.49A10.22,10.22,0,0,0,382,147Zm-1.79-24.36-.08-2.18c-.13-3.19-.26-6.58-.38-10.09l1,0c.12,3.52.25,6.9.38,10.1l.08,2.17Zm0-36.85c0,3.83.1,7.85.2,12.27l-1,0c-.1-4.42-.17-8.44-.2-12.28ZM307.89,187.83l-.3-1c3.82-1.18,7.64-2.46,11.36-3.81l.34.94C315.55,185.35,311.72,186.64,307.89,187.83Zm2-30-.05-1c4-.24,8.06-.49,12-.76l.07,1Q316,157.45,309.87,157.81Zm20.63,21.84-.39-.93c3.69-1.53,7.37-3.17,10.94-4.87l.43.9C337.9,176.46,334.2,178.1,330.5,179.65Zm3.39-23.46-.08-1c4.24-.33,8.27-.67,12-1l.09,1C342.17,155.52,338.13,155.86,333.89,156.19Zm18.31,13.1-.48-.88c3.56-1.93,7-4,10.36-6l.52.85C359.28,165.31,355.78,167.35,352.2,169.29Zm5.67-15.36-.11-1c4.56-.53,8.56-1.09,11.89-1.65l.17,1C366.47,152.84,362.45,153.4,357.87,153.93Zm14.75,2.63-.59-.82a105.89,105.89,0,0,0,9.17-7.27l0-.08.34-.17.23.44.35.36A104.22,104.22,0,0,1,372.62,156.56Zm9-107.55-1-.12a105,105,0,0,1,2.09-12.15l1,.24A102.56,102.56,0,0,0,381.66,49ZM392.1,21.26l.36.94a9.55,9.55,0,0,0-4.28,3.65l-.82-.57A10.58,10.58,0,0,1,392.1,21.26Zm6,143.4a69.1,69.1,0,0,1-10-7.31l.67-.74a68.47,68.47,0,0,0,9.82,7.2Zm22,11.12c-4-1.69-7.73-3.42-11.19-5.15l.45-.9c3.44,1.72,7.19,3.45,11.13,5.13Zm48.64,54-.44-.9,11.3-5.43.43.91Zm27.56-14.35.44.91L491.3,219l-.43-.9Z"/><rect class="cls-1" x="490.79" y="216.72" width="6" height="1" transform="translate(-45.37 235.09) rotate(-25.64)"/><path class="cls-1" d="M442.5,199.73l-.61.17-.36.11c1.24,4.34,2.5,8.37,3.73,12l.2-.07.75-.26C445,208.08,443.73,204.06,442.5,199.73Z"/><rect class="cls-1" x="467.87" y="226.16" width="12.53" height="1" transform="translate(-51.39 227.72) rotate(-25.67)"/><path class="cls-1" d="M450.74,223.27l-.66.31-.25.11c3.19,6.94,5.61,9.54,7.07,10.5L457,234l.44-.66C456.34,232.63,454,230.35,450.74,223.27Z"/><path class="cls-1" d="M437.83,181.75l-.07-.27-.26-.09s-2.2-.72-5.64-2l-.35.94c2.77,1,4.73,1.69,5.41,1.92l.3,1.24c.35,1.48.71,2.93,1.06,4.32l.69-.17.28-.07Q438.54,184.78,437.83,181.75Z"/><path class="cls-1" d="M381.67,140.06c0-1.53,0-3.28-.08-5.23l-1,0c.05,1.93.08,3.68.08,5.2s0,2.67-.08,3.65c0,.18,0,.36,0,.54a10.91,10.91,0,0,0,.42,3l1-.26a10.22,10.22,0,0,1-.38-2.7c0-.16,0-.32,0-.49C381.64,142.77,381.67,141.56,381.67,140.06Z"/><path class="cls-1" d="M380.67,48.89l1,.12a102.56,102.56,0,0,1,2.07-12l-1-.24A105,105,0,0,0,380.67,48.89Z"/><path class="cls-1" d="M380.33,98c-.1-4.42-.17-8.44-.2-12.27h-1c0,3.84.1,7.86.2,12.28Z"/><path class="cls-1" d="M380.71,110.28l-1,0c.12,3.51.25,6.9.38,10.09l.08,2.18,1,0-.08-2.17C381,117.18,380.83,113.8,380.71,110.28Z"/><path class="cls-1" d="M380.63,61.22l-1-.06c-.21,3.79-.36,7.92-.44,12.29l1,0C380.27,69.11,380.42,65,380.63,61.22Z"/><path class="cls-1" d="M388.13,157.35a69.1,69.1,0,0,0,10,7.31l.53-.85a68.47,68.47,0,0,1-9.82-7.2Z"/><path class="cls-1" d="M408.88,170.63c3.46,1.73,7.23,3.46,11.19,5.15l.39-.92c-3.94-1.68-7.69-3.41-11.13-5.13Z"/><path class="cls-1" d="M392.46,22.2l-.36-.94a10.58,10.58,0,0,0-4.74,4l.82.57A9.55,9.55,0,0,1,392.46,22.2Z"/><path class="cls-1" d="M213.58,160.66l0,1,12.1-.32,0-1Z"/><path class="cls-1" d="M381.73,148.66l-.23-.44-.34.17,0,.08.19-.17Z"/><path class="cls-1" d="M261.76,159.12l0,1c3.9-.15,7.92-.32,12-.5l0-1Z"/><path class="cls-1" d="M237.71,160l0,1,12-.4,0-1C245.45,159.72,241.41,159.86,237.71,160Z"/><path class="cls-1" d="M309.82,156.81l.05,1q6.09-.36,12-.76l-.07-1C317.88,156.32,313.86,156.57,309.82,156.81Z"/><path class="cls-1" d="M285.79,158.08l0,1,12-.6-.05-1Z"/><path class="cls-1" d="M333.81,155.19l.08,1c4.24-.33,8.28-.67,12-1l-.09-1C342.08,154.52,338.05,154.86,333.81,155.19Z"/><path class="cls-1" d="M357.76,152.94l.11,1c4.58-.53,8.6-1.09,11.95-1.65l-.17-1C366.32,151.85,362.32,152.41,357.76,152.94Z"/><rect class="cls-1" x="213.48" y="14.85" width="0.36" height="1" transform="translate(178.35 226.63) rotate(-84.62)"/><path class="cls-1" d="M212.72,123.52l-1,0c.08,4,.19,8,.31,12l1,0C212.91,131.55,212.8,127.54,212.72,123.52Z"/><path class="cls-1" d="M212.33,87.5V83.81q0-4.25,0-8.31h-1q0,4.06,0,8.31v3.7Z"/><path class="cls-1" d="M330.11,178.72l.39.93c3.7-1.55,7.4-3.19,11-4.9l-.43-.9C337.48,175.55,333.8,177.19,330.11,178.72Z"/><path class="cls-1" d="M212.54,51.5l-1,0c0,3.69-.09,7.72-.13,12h1C212.45,59.2,212.49,55.18,212.54,51.5Z"/><path class="cls-1" d="M213.46,147.51l-1,0c.17,4.22.37,8.25.58,12l1-.05C213.83,155.75,213.63,151.72,213.46,147.51Z"/><path class="cls-1" d="M307.59,186.87l.3,1c3.83-1.19,7.66-2.48,11.4-3.83l-.34-.94C315.23,184.41,311.41,185.69,307.59,186.87Z"/><path class="cls-1" d="M237,199.32l.05,1c4-.22,8-.52,12-.9l-.1-1C245,198.8,241,199.1,237,199.32Z"/><path class="cls-1" d="M212.38,99.51h-1q0,5.94.13,12l1,0C212.45,107.48,212.41,103.47,212.38,99.51Z"/><path class="cls-1" d="M213.84,171.54c.34,4.32.71,8.35,1.12,12l1-.11c-.4-3.62-.78-7.64-1.11-11.94Z"/><path class="cls-1" d="M225,199.78c-2.15,0-4.33.07-6.5.07-.32-1.39-.63-2.93-.92-4.58l-1,.17c.31,1.8.65,3.46,1,4.95l0,.08.09.38h.39l4,0,2.94-.05Z"/><path class="cls-1" d="M213,28.28l.07-.76-1-.09-.08.79s-.1,4.17-.23,11.26h1C212.85,32.44,213,28.28,213,28.28Z"/><path class="cls-1" d="M284.43,193l.22,1c3.93-.86,7.86-1.8,11.69-2.8l-.26-1C292.27,191.17,288.35,192.11,284.43,193Z"/><path class="cls-1" d="M351.72,168.41l.48.88c3.58-1.94,7.08-4,10.4-6l-.52-.85C358.77,164.45,355.28,166.48,351.72,168.41Z"/><path class="cls-1" d="M260.84,197.08l.13,1c4-.53,8-1.14,11.88-1.83l-.17-1C268.77,195.94,264.79,196.55,260.84,197.08Z"/><path class="cls-1" d="M381.39,148.3l-.19.17a105.89,105.89,0,0,1-9.17,7.27l.59.82a104.22,104.22,0,0,0,9.46-7.54l-.35-.36Z"/><path class="cls-1" d="M138.12,121.44c.29,4.13.62,8.16,1,12l1-.09c-.36-3.81-.69-7.84-1-12Z"/><path class="cls-1" d="M151.51,192.07c.28.59.57,1.15.86,1.7l.88-.47c-.28-.54-.56-1.09-.84-1.66Z"/><path class="cls-1" d="M144.25,169.12c.92,4.24,1.92,8.17,3,11.67l1-.29c-1.06-3.48-2.05-7.38-3-11.59Z"/><path class="cls-1" d="M137.36,49.41l-1,0c0,3.7-.08,7.73-.09,12h1C137.28,57.12,137.32,53.1,137.36,49.41Z"/><path class="cls-1" d="M140.38,145.38c.51,4.16,1.07,8.17,1.67,11.91l1-.16c-.6-3.73-1.16-7.72-1.67-11.88Z"/><path class="cls-1" d="M137.86,97.4l-1,0c.14,4.08.32,8.12.52,12l1,0C138.18,105.51,138,101.48,137.86,97.4Z"/><path class="cls-1" d="M136.32,73.42c0,4,.1,8.06.19,12l1,0c-.09-4-.15-8-.19-12Z"/><path class="cls-1" d="M138,25.41l-1,0c0,.05-.2,4.56-.38,12l1,0C137.77,30,138,25.46,138,25.41Z"/><path class="cls-1" d="M196.21,93.62c-3.7.46-7.71.82-11.92,1.08l.06,1c4.23-.27,8.26-.63,12-1.08Z"/><path class="cls-1" d="M211.76,90.8c-1.19.31-2.45.61-3.75.89l.21,1c1.31-.28,2.59-.59,3.79-.9Z"/><path class="cls-1" d="M136.29,95.19c.05,0,4.78.4,12,.71l0-1c-7.21-.31-11.93-.7-12-.7Z"/><path class="cls-1" d="M160.33,95.23v1c1.57,0,3.2,0,4.86,0,2.42,0,4.83,0,7.16-.07l0-1C168.41,95.27,164.2,95.28,160.33,95.23Z"/><rect class="cls-1" x="186.75" y="245.43" width="11.38" height="1" transform="translate(-16.36 13.72) rotate(-3.92)"/><polygon class="cls-1" points="174.75 246.63 163.17 247.41 162.78 247.44 162.85 248.44 163.34 248.4 174.82 247.62 174.75 246.63"/><path class="cls-1" d="M171,284.77l-.8.6c2.23,3,6.17,4.61,11.09,4.63v-1C176.68,289,173,287.48,171,284.77Z"/></g></g></svg>