<svg xmlns="http://www.w3.org/2000/svg" viewBox="0 0 561.13 318.43"><defs><style>.cls-1{fill:#fff;}</style></defs><g id="Layer_2" data-name="Layer 2"><g id="Layer_2-2" data-name="Layer 2"><g id="Layer_3" data-name="Layer 3"><path d="M294.1,170.8a2.08,2.08,0,0,0-.91-.06l-2.14.21.24,2.37,2.09-.21a2.19,2.19,0,0,0,.91-.24,1,1,0,0,0,.45-1.05A1.1,1.1,0,0,0,294.1,170.8Z"/><path d="M306.67,173a2.49,2.49,0,0,0-.91-.06l-2.19.23.24,2.34,2.16-.22a2.11,2.11,0,0,0,.89-.24,1.12,1.12,0,0,0,.47-1.16A1,1,0,0,0,306.67,173Z"/><path d="M273.72,172.87a2.07,2.07,0,0,0-.91-.07l-2.14.22.24,2.37,2.08-.22a2.44,2.44,0,0,0,.92-.23,1,1,0,0,0,.45-1.05A1.12,1.12,0,0,0,273.72,172.87Z"/><path d="M283.52,79.52A4,4,0,0,0,286.8,78a6.82,6.82,0,0,0,1.2-4.32,6.74,6.74,0,0,0-1.21-4.31,4,4,0,0,0-3.27-1.53,4,4,0,0,0-3.29,1.52A6.75,6.75,0,0,0,279,73.68,6.75,6.75,0,0,0,280.23,78,4,4,0,0,0,283.52,79.52Z"/><path d="M306.51,171.12a.83.83,0,0,0,.28-.8.81.81,0,0,0-.56-.77,3.66,3.66,0,0,0-1.07,0l-1.93.2.19,1.94,2.16-.22A1.77,1.77,0,0,0,306.51,171.12Z"/><path d="M187.82,62.55a4.18,4.18,0,0,0,.25-1.54,3.74,3.74,0,0,0-.38-1.88,1.63,1.63,0,0,0-1.53-.66h-1.55v5.25h1.55A1.68,1.68,0,0,0,187.82,62.55Z"/><path d="M160,150.69h-2.12v3.2H160a1.85,1.85,0,0,0,1.25-.39,1.58,1.58,0,0,0,.44-1.24,1.5,1.5,0,0,0-.44-1.21A2,2,0,0,0,160,150.69Z"/><polygon points="456.81 93.08 461.02 93.08 458.95 86.56 456.81 93.08"/><path d="M203,58.61a1.92,1.92,0,0,0-.82-.14h-2v2.16h1.91a2.07,2.07,0,0,0,.85-.13.88.88,0,0,0,.5-.91A1,1,0,0,0,203,58.61Z"/><path d="M370.62,182.9a2.19,2.19,0,0,0-2.11-.7l-2.06.17.58,7,2.06-.17a2.21,2.21,0,0,0,2.07-1.74,5.39,5.39,0,0,0,.17-2.06A5.07,5.07,0,0,0,370.62,182.9Z"/><path d="M176.7,265.33a1.58,1.58,0,0,0,1.28-.59,2.7,2.7,0,0,0,.47-1.69,2.61,2.61,0,0,0-.48-1.68,1.53,1.53,0,0,0-1.27-.6,1.55,1.55,0,0,0-1.28.6,2.59,2.59,0,0,0-.48,1.68,2.64,2.64,0,0,0,.48,1.69A1.57,1.57,0,0,0,176.7,265.33Z"/><path d="M256.33,174.48l-1.72.17.27,2.59,1.71-.17a1.56,1.56,0,0,0,1-.42,1.26,1.26,0,0,0,.26-1,1.2,1.2,0,0,0-.46-.94A1.49,1.49,0,0,0,256.33,174.48Z"/><path d="M560.45,118.52c-9.59-9.43-35-35.25-34.77-43.64a2.39,2.39,0,0,0-.1-.84c-1.75-5.13-18.77-60.89-127-57.67,0,0-158-12-259.48,9.32-.68.14-1.24-.6-1.52-1.23C136,21,124.69,8.62,119.72,2.33c-2.65-3.35-6.47-3-8.55.67C107.3,9.93,108,23.09,103,29.41a2.13,2.13,0,0,1-1.38.81c-2.76.42-22,3.09-26.15,5.65a2.18,2.18,0,0,1-2.88-.57S60.8,3.58,51.47,6.12,46.38,44,49.56,46c.18.12.17.39.2.61C50.11,48.8,51.81,61.36,45,69a2.18,2.18,0,0,0-.59,1.38c-.16,3.85-2.63,22-34.49,41.67a2,2,0,0,1-.88.31c-2.47.29-14.37,2.71-6.14,23.11A2.2,2.2,0,0,1,3,136.69c-.59,3.1-2,17,18.91,17.83a29.13,29.13,0,0,1,9.28,1.9c4.85,1.87,11.51,4.73,12.93,6.9a2.34,2.34,0,0,0,1.86,1c6.26.36,29.41,1.52,42.57,0a2.15,2.15,0,0,1,1.67.51c4.9,4.16,34,28,60.2,29.4a2.23,2.23,0,0,1,2.07,1.7c1.48,6.3,6.92,29.74,10.69,51.46l11.58-.78.07,1-11.48.78c2.91,17,4.75,32.69,2.82,38.1,0,0-6.41,15-3.59,22a2.29,2.29,0,0,1-.37,2.43l-2.27,2.5a2.23,2.23,0,0,0,.18,3.18l1.42,1.25a2.27,2.27,0,0,0,1.73.54l18.27-2.13a2.22,2.22,0,0,0,1.93-1.77c2.77-13.83,23.13-113.93,31.71-114.39l2.46.26c-.35-1.48-.69-3.15-1-4.95l1-.17c.29,1.65.6,3.19.92,4.58,2.17,0,4.35,0,6.5-.07l0,1-2.93.05c30.47,2.83,153.63,12,213.2-17.34a2.15,2.15,0,0,1,1.9,0l-.3-1.24c-.68-.23-2.64-.9-5.41-1.92l.35-.94c3.44,1.28,5.61,2,5.64,2l.26.09.07.27q.72,3,1.42,5.82l-.28.07c.68,3.18,1.66,7.5,2.92,12.26l.61-.17c1.23,4.33,2.48,8.35,3.71,11.93l-.75.26a105.08,105.08,0,0,0,4.62,11.65l.66-.3c3.26,7.08,5.6,9.36,6.71,10.08L457,234l.42.4a2.1,2.1,0,0,1,.7,1.86c-.87,7.38-4.2,37.74-12.54,52.22-.93,1.62-2.9,12.14-1.47,12.85a4.56,4.56,0,0,0-2.65,1.64l-1.5,1.63c-.92,1.58-2.32,5.57-.5,5.37l27.5-3.42a2.22,2.22,0,0,0,1.9-1.58c3.09-10.56,22.52-76.61,28.06-86a2.18,2.18,0,0,0,.13-2c-1.68-3.81-6.65-16.63-1.59-24.84a2,2,0,0,1,.37-.45c3.4-3.16,46.49-44.13,37.93-81.1a2.22,2.22,0,0,1,3.61-2.2c5.83,5.06,14.52,11.91,20.84,13.84A2.23,2.23,0,0,0,560.45,118.52ZM137,25.37l1,.05s-.2,4.55-.38,12l-1,0C136.77,29.93,137,25.42,137,25.37Zm-.61,24,1,0c-.05,4-.08,8-.09,12h-1C136.28,57.4,136.31,53.36,136.36,49.39Zm1.15,36-1,0c-.09-3.91-.15-8-.19-12h1C137.36,77.46,137.42,81.5,137.51,85.41Zm-.65,12,1,0c.14,4.09.32,8.12.52,12l-1,0C137.18,105.57,137,101.53,136.86,97.44Zm2.24,36c-.36-3.84-.69-7.87-1-12l1-.07c.29,4.1.62,8.13,1,12Zm3,23.87c-.6-3.75-1.16-7.76-1.67-11.91l1-.13c.51,4.15,1.07,8.15,1.67,11.88Zm5.18,23.5c-1.06-3.51-2.06-7.43-3-11.67l1-.21c.91,4.21,1.9,8.11,3,11.59ZM148.3,95.9c-7.23-.31-12-.7-12-.71l.09-1s4.76.39,12,.7Zm.9-31.3a3.54,3.54,0,0,1-2.39.73,3.84,3.84,0,0,1-2.47-.72,2.39,2.39,0,0,1-.9-2H145a1.64,1.64,0,0,0,.3.82,1.75,1.75,0,0,0,1.41.5,2.89,2.89,0,0,0,1-.13.94.94,0,0,0,.71-.94.68.68,0,0,0-.35-.61,3.62,3.62,0,0,0-1.1-.38l-.85-.19a5.44,5.44,0,0,1-1.74-.62,2,2,0,0,1-.81-1.74,2.35,2.35,0,0,1,.78-1.8,3.38,3.38,0,0,1,2.31-.71,3.48,3.48,0,0,1,2.17.67,2.41,2.41,0,0,1,.95,2h-1.62a1.14,1.14,0,0,0-.63-1,2.09,2.09,0,0,0-1-.21,1.8,1.8,0,0,0-1,.27.83.83,0,0,0-.39.73.68.68,0,0,0,.39.64,4.35,4.35,0,0,0,1,.34l1.39.33a3.73,3.73,0,0,1,1.38.58,2,2,0,0,1,.72,1.65A2.33,2.33,0,0,1,149.2,64.6ZM382.76,36.74l1,.24a104.7,104.7,0,0,0-2.07,12l-1-.11A105.22,105.22,0,0,1,382.76,36.74Zm-2.17,107c.05-1,.08-2.17.08-3.65s0-3.27-.08-5.2l1,0c.05,1.94.08,3.69.08,5.22s0,2.71-.08,3.7c0,.17,0,.33,0,.49A10.22,10.22,0,0,0,382,147l-1,.27a11,11,0,0,1-.42-3C380.58,144.07,380.58,143.89,380.59,143.71Zm-.42-21.12-.08-2.17c-.12-3.2-.26-6.59-.38-10.1l1,0c.12,3.52.25,6.9.38,10.1l.08,2.17Zm-.54-61.43,1,.06c-.21,3.77-.36,7.9-.44,12.25l-1,0C379.27,69.08,379.42,65,379.63,61.16Zm.5,24.58c0,3.84.09,7.85.2,12.27l-1,0c-.11-4.43-.17-8.45-.2-12.29Zm1.07,62.73,0-.08.33-.17.24.44.34.36a101.17,101.17,0,0,1-9.45,7.54l-.59-.82A104.13,104.13,0,0,0,381.2,148.47Zm-11.55,2.82.17,1c-3.35.56-7.37,1.12-11.95,1.65l-.11-1C362.32,152.41,366.32,151.85,369.65,151.29Zm-7.57,11.11.52.85c-3.32,2.06-6.82,4.1-10.4,6l-.48-.88C355.28,166.48,358.77,164.45,362.08,162.4Zm-61.62-97h3.63L310.7,77V65.41h3.23V82h-3.47l-6.77-11.78V82h-3.23Zm-2.6,93.07-12,.6,0-1,12-.6Zm-4-93.07h3.45V82h-3.45Zm-15.76,1.43a8.6,8.6,0,0,1,10.88,0q2.51,2.28,2.51,6.84T289,80.52a8.6,8.6,0,0,1-10.88,0q-2.52-2.37-2.52-6.84T278.08,66.84Zm-16-1.43h3.47V79h8.22v3H262.1Zm11.67,93.22.05,1c-4.11.18-8.13.35-12,.5l0-1Zm-24,.94,0,1-12,.4,0-1C241.41,159.86,245.45,159.72,249.73,159.57ZM211.88,31.19c0-1.69.06-2.56.13-3h0l.07-.76,1,.09-.07.76s-.1,4.16-.23,11.21h-1C211.78,35.93,211.84,33.12,211.88,31.19Zm-.34,20.29,1,0c0,3.68-.09,7.7-.13,12h-1C211.45,59.19,211.49,55.17,211.54,51.48Zm-.2,24h1q0,4.06,0,8.31V87.5h-1V83.81Q211.33,79.57,211.34,75.5ZM191.1,57.07H197V58.5h-4.26v1.71h3.91V61.6h-3.91v2.07h4.46v1.45h-6.1ZM184.35,95.7l-.06-1c4.21-.26,8.22-.62,11.92-1.07l.12,1C192.61,95.07,188.58,95.43,184.35,95.7Zm9.31,53.11v10.86H191.4V148.81Zm-4.2,0v10.86h-2.27L182.76,152v7.72h-2.12V148.81H183l4.33,7.58v-7.58ZM183,57.07h3.47a4.36,4.36,0,0,1,1.25.18,2.62,2.62,0,0,1,1.37,1,3.52,3.52,0,0,1,.57,1.3,6.31,6.31,0,0,1,.15,1.33,5.34,5.34,0,0,1-.64,2.72,2.91,2.91,0,0,1-2.7,1.5H183Zm-6.83,0h1.68v6.6h4v1.45h-5.67Zm-8.08,0h1.71v5a2.78,2.78,0,0,0,.2,1.21,1.64,1.64,0,0,0,2.66,0,2.81,2.81,0,0,0,.19-1.21v-5h1.71v5a4.22,4.22,0,0,1-.39,2,3.73,3.73,0,0,1-5.68,0,4.21,4.21,0,0,1-.4-2Zm-7.77.7a3.47,3.47,0,0,1,2.63-.94,3.5,3.5,0,0,1,2.64.94,4.25,4.25,0,0,1,1.22,3.32,4.37,4.37,0,0,1-1.22,3.32,3.54,3.54,0,0,1-2.64.94,3.5,3.5,0,0,1-2.63-.94,4.34,4.34,0,0,1-1.23-3.32A4.22,4.22,0,0,1,160.29,57.77Zm-9-.7h1.67v3.07h3.14V57.07h1.68v8.05h-1.68V61.53h-3.14v3.59h-1.67Zm1.1,136.7c-.29-.55-.58-1.11-.86-1.69l.9-.44c.28.57.56,1.12.84,1.66ZM162.92,155a4.3,4.3,0,0,1-2.78.79h-2.31v3.91h-2.25V148.81h4.73a3.86,3.86,0,0,1,2.61.84,3.27,3.27,0,0,1,1,2.6A3.36,3.36,0,0,1,162.92,155Zm-2.6-58.74v-1c3.87,0,8.08,0,12,0l0,1c-2.33,0-4.74.07-7.16.07C163.52,96.26,161.89,96.25,160.32,96.23Zm7.35,63.44h-2.26V148.81h2.26Zm6.67.3a4.7,4.7,0,0,1-3.69-1.5,6.05,6.05,0,0,1-1.34-4.15,6,6,0,0,1,1.53-4.38,5.15,5.15,0,0,1,7.38.46,3.82,3.82,0,0,1,.75,2H176.7a3,3,0,0,0-.57-1.17,2.54,2.54,0,0,0-3.78.29,4.74,4.74,0,0,0-.72,2.82,4.19,4.19,0,0,0,.76,2.74,2.37,2.37,0,0,0,1.92.91,2.21,2.21,0,0,0,1.82-.78,3.37,3.37,0,0,0,.57-1.26H179a5,5,0,0,1-1.5,2.89A4.44,4.44,0,0,1,174.34,160Zm.24,100.41a3.37,3.37,0,0,1,4.24,0,3.46,3.46,0,0,1,1,2.67,3.52,3.52,0,0,1-1,2.67,3.34,3.34,0,0,1-4.24,0,3.49,3.49,0,0,1-1-2.67A3.43,3.43,0,0,1,174.58,260.38Zm-5.91,5.92h-1.34v-6.48h1.34v2.47h2.53v-2.47h1.34v6.48H171.2v-2.89h-2.53ZM181.28,290c-4.92,0-8.86-1.66-11.09-4.62l.8-.61c2,2.71,5.69,4.21,10.3,4.23Zm1.1-25.23a1.43,1.43,0,0,0,1.15.54,1.31,1.31,0,0,0,1.08-.47,1.88,1.88,0,0,0,.34-.75h1.34a2.84,2.84,0,0,1-.89,1.72,2.61,2.61,0,0,1-1.86.67,2.77,2.77,0,0,1-2.19-.9,3.6,3.6,0,0,1-.8-2.47,3.53,3.53,0,0,1,.91-2.61,3.07,3.07,0,0,1,4.4.27,2.32,2.32,0,0,1,.45,1.21H185a1.83,1.83,0,0,0-.33-.7,1.39,1.39,0,0,0-1.1-.42,1.33,1.33,0,0,0-1.16.59,2.9,2.9,0,0,0-.43,1.68A2.53,2.53,0,0,0,182.38,264.77Zm8.94,1.53-2-2.83-.64.66v2.17h-1.33v-6.48h1.33v2.67l2.5-2.67h1.75l-2.66,2.67,2.79,3.81Zm-4.53-19.49-.06-1,11.35-.77.07,1Zm11.58-89.71a2.4,2.4,0,0,0,1.92.91,2.18,2.18,0,0,0,1.82-.78,3.37,3.37,0,0,0,.58-1.26h2.25a4.93,4.93,0,0,1-1.51,2.89,4.42,4.42,0,0,1-3.11,1.11,4.68,4.68,0,0,1-3.68-1.5,7.08,7.08,0,0,1,.18-8.53,5.16,5.16,0,0,1,7.39.46,4,4,0,0,1,.75,2h-2.27a3,3,0,0,0-.57-1.17,2.55,2.55,0,0,0-3.79.29,4.81,4.81,0,0,0-.71,2.82A4.24,4.24,0,0,0,198.37,157.1Zm6.9-92h-1.85a3,3,0,0,1-.11-.43,3.23,3.23,0,0,1-.07-.69l0-.75a1.44,1.44,0,0,0-.28-1,1.48,1.48,0,0,0-1-.25h-1.74v3.15h-1.64V57.07h3.95a3.58,3.58,0,0,1,1.3.21,2,2,0,0,1,.77.56,2.41,2.41,0,0,1,.42.68,2.26,2.26,0,0,1,.15.85,2.31,2.31,0,0,1-.29,1.12,1.64,1.64,0,0,1-.95.79,1.55,1.55,0,0,1,.79.63,2.74,2.74,0,0,1,.23,1.26v.54a4.16,4.16,0,0,0,0,.75.7.7,0,0,0,.31.46ZM208,91.69c1.29-.28,2.55-.58,3.75-.89l.25,1c-1.21.32-2.48.62-3.79.9Zm3.37,7.83h1c0,4,.07,8,.13,12h-1C211.45,107.49,211.41,103.48,211.38,99.52Zm.34,24,1,0c.08,4,.19,8,.31,12l-1,0C211.91,131.58,211.8,127.56,211.72,123.54Zm.74,24,1,0c.17,4.18.37,8.22.58,12l-1,.05C212.83,155.78,212.63,151.74,212.46,147.55Zm2.5,36c-.41-3.62-.78-7.65-1.12-12l1-.08c.34,4.31.71,8.33,1.11,11.94Zm-1.36-21.86,0-1,12.09-.32,0,1Zm23.45,38.66-.05-1c4-.22,8-.52,11.94-.89l.09,1C245.08,199.8,241.05,200.1,237.05,200.32Zm14.09-18.55a3.82,3.82,0,0,1-2.52,1.06,4.22,4.22,0,0,1-2.79-.51,2.6,2.6,0,0,1-1.2-2.06l1.75-.17a1.54,1.54,0,0,0,2,1.25,3.17,3.17,0,0,0,1-.25,1,1,0,0,0,.67-1.1.75.75,0,0,0-.45-.63,4,4,0,0,0-1.24-.29l-.95-.12a5.72,5.72,0,0,1-2-.48,2.13,2.13,0,0,1-1.08-1.81,2.57,2.57,0,0,1,.66-2.06,3.62,3.62,0,0,1,2.44-1,3.85,3.85,0,0,1,2.45.49,2.66,2.66,0,0,1,1.25,2l-1.77.18a1.25,1.25,0,0,0-.81-1.06,2.22,2.22,0,0,0-1.09-.11,2,2,0,0,0-1.1.4.91.91,0,0,0-.35.84.76.76,0,0,0,.49.66,4.94,4.94,0,0,0,1.19.25l1.55.21a4,4,0,0,1,1.57.49,2.15,2.15,0,0,1,1,1.72A2.54,2.54,0,0,1,251.14,181.77Zm7.94-4.08a3.45,3.45,0,0,1-2.18.88l-1.87.19.32,3.16-1.83.19-.89-8.8,3.84-.39a3.13,3.13,0,0,1,2.18.46,3.35,3.35,0,0,1,.43,4.31Zm3.28-5.37,2.08-.21,4,8.48-2,.21-.75-1.76-3.25.33-.42,1.87-1.92.2ZM261,198.07l-.13-1c4-.53,7.93-1.14,11.84-1.82l.17,1C268.93,196.93,264.94,197.54,261,198.07Zm14-18.13c-.08-.19-.13-.35-.17-.46a4.74,4.74,0,0,1-.15-.75l-.1-.82a1.57,1.57,0,0,0-.42-1.09,1.66,1.66,0,0,0-1.14-.17l-1.89.19.35,3.45-1.8.19-.89-8.8,4.31-.44a4,4,0,0,1,1.45.08,2.25,2.25,0,0,1,.91.53,2.43,2.43,0,0,1,.79,1.6,2.7,2.7,0,0,1-.19,1.27,1.8,1.8,0,0,1-1,1,1.61,1.61,0,0,1,.93.61,2.85,2.85,0,0,1,.39,1.35l.06.59a4.82,4.82,0,0,0,.14.81.73.73,0,0,0,.38.47l0,.22Zm2.63-9.16,6.45-.66.16,1.56-4.66.47.19,1.87,4.28-.43.15,1.53-4.27.43.23,2.26,4.87-.49.16,1.58-6.67.68Zm7.09,23.16-.22-1c3.92-.85,7.84-1.79,11.65-2.79l.25,1C292.51,192.14,288.58,193.08,284.65,193.94Zm10.66-16.07c-.07-.19-.13-.34-.16-.46a3.7,3.7,0,0,1-.16-.75l-.09-.82a1.16,1.16,0,0,0-1.56-1.26l-1.9.2.35,3.45-1.8.18-.89-8.8,4.32-.44a4.16,4.16,0,0,1,1.44.08,2.37,2.37,0,0,1,.91.53,3,3,0,0,1,.53.7,2.31,2.31,0,0,1,.26.9,2.7,2.7,0,0,1-.19,1.27,1.74,1.74,0,0,1-1,1,1.69,1.69,0,0,1,.94.61,3,3,0,0,1,.39,1.35l.06.59a4.31,4.31,0,0,0,.13.82.74.74,0,0,0,.38.46l0,.22Zm3.33-.34-.89-8.8,1.82-.18.89,8.8Zm7.56-.76-4,.4-.89-8.8,4.27-.43a2.73,2.73,0,0,1,2.39.7,2.22,2.22,0,0,1,.54,1.3,2,2,0,0,1-.27,1.34,2.17,2.17,0,0,1-.62.57,2,2,0,0,1,1.09.67,2.29,2.29,0,0,1,.48,1.26,2.6,2.6,0,0,1-.25,1.44,2.63,2.63,0,0,1-.56.76,2.54,2.54,0,0,1-.95.54A6.48,6.48,0,0,1,306.2,176.77Zm1.69,11.06-.3-1c3.82-1.18,7.64-2.46,11.36-3.81l.34.94C315.55,185.35,311.72,186.64,307.89,187.83Zm2-30-.06-1c4.05-.24,8.07-.49,12-.76l.06,1Q316,157.45,309.87,157.81Zm20.63,21.84-.39-.93c3.7-1.54,7.38-3.18,10.94-4.87l.43.9C337.91,176.45,334.21,178.1,330.5,179.65Zm3.39-23.46-.08-1c4.24-.33,8.27-.67,12-1l.09,1C342.17,155.52,338.13,155.86,333.89,156.19Zm24.17,35.06a4.67,4.67,0,0,1-3.08,1.23,5.17,5.17,0,0,1-3.36-.68,3.17,3.17,0,0,1-1.41-2.52l2.13-.18a2.18,2.18,0,0,0,.48,1.06,2.32,2.32,0,0,0,1.92.51,4.21,4.21,0,0,0,1.27-.28,1.25,1.25,0,0,0,.83-1.32.91.91,0,0,0-.53-.78,5,5,0,0,0-1.5-.38l-1.15-.16a7.17,7.17,0,0,1-2.37-.63A2.61,2.61,0,0,1,350,184.9a3.07,3.07,0,0,1,.85-2.47,4.41,4.41,0,0,1,3-1.2,4.65,4.65,0,0,1,3,.65,3.23,3.23,0,0,1,1.46,2.5l-2.14.18a1.52,1.52,0,0,0-1-1.3,2.85,2.85,0,0,0-1.32-.17,2.43,2.43,0,0,0-1.34.47,1.1,1.1,0,0,0-.44,1,.92.92,0,0,0,.58.81,6,6,0,0,0,1.43.33L356,186a4.74,4.74,0,0,1,1.89.63,2.62,2.62,0,0,1,1.14,2.1A3.09,3.09,0,0,1,358.06,191.25Zm2.66.48-.88-10.68,2.21-.18.88,10.68Zm12.31-3a3.88,3.88,0,0,1-3.41,2.29l-4.61.38-.88-10.69,4.61-.38a5.73,5.73,0,0,1,1.67.1,3.57,3.57,0,0,1,1.93,1.21,4.88,4.88,0,0,1,.9,1.66,8.22,8.22,0,0,1,.35,1.75A7.08,7.08,0,0,1,373,188.71Zm2.77,1.78-.88-10.68,7.83-.65.16,1.89-5.66.47.19,2.27,5.19-.43.15,1.85-5.19.43.23,2.75,5.91-.49.16,1.92ZM392.1,21.26l.36.94a9.55,9.55,0,0,0-4.28,3.65l-.82-.57A10.58,10.58,0,0,1,392.1,21.26Zm6,143.4a69.1,69.1,0,0,1-10-7.31l.67-.74a68.47,68.47,0,0,0,9.82,7.2Zm22,11.12c-4-1.69-7.73-3.42-11.19-5.15l.45-.9c3.44,1.72,7.19,3.45,11.13,5.13ZM449,99.35h-3.44V92H439v7.4H435.6V82.76H439v6.33h6.48V82.76H449Zm14.09,0L462,95.94h-6.12l-1.14,3.41H451.1L457,82.76h3.92l5.87,16.59Zm5.66,130.47-.44-.9,11.3-5.43.43.91ZM484.9,99.35h-3.23V88.13c0-.32,0-.77,0-1.36s0-1,0-1.34l-3.14,13.92h-3.36l-3.12-13.92c0,.31,0,.76,0,1.34s0,1,0,1.36V99.35h-3.23V82.76h5l3,13,3-13h5Zm11.37,116.12.44.91L491.3,219l-.43-.9Z"/><path d="M162.92,63.92a1.93,1.93,0,0,0,1.59-.74,4,4,0,0,0,0-4.19,1.93,1.93,0,0,0-1.59-.74,2,2,0,0,0-1.59.74,4,4,0,0,0,0,4.19A2,2,0,0,0,162.92,63.92Z"/><polygon points="263.59 174.23 262.81 177.81 265.04 177.58 263.59 174.23"/><rect class="cls-1" x="490.79" y="216.72" width="6" height="1" transform="translate(-45.37 235.09) rotate(-25.64)"/><path class="cls-1" d="M442.5,199.73l-.61.17-.35.1c1.24,4.35,2.49,8.38,3.72,12l.2-.07.75-.26C445,208.08,443.73,204.06,442.5,199.73Z"/><rect class="cls-1" x="467.87" y="226.16" width="12.53" height="1" transform="translate(-51.39 227.72) rotate(-25.67)"/><path class="cls-1" d="M450.74,223.27l-.66.3-.25.12c3.19,6.94,5.61,9.54,7.07,10.5L457,234l.44-.66C456.34,232.63,454,230.35,450.74,223.27Z"/><path class="cls-1" d="M437.83,181.75l-.07-.27-.26-.09s-2.2-.72-5.64-2l-.35.94c2.77,1,4.73,1.69,5.41,1.92l.3,1.24c.35,1.48.71,2.93,1.06,4.32l.69-.17.28-.07Q438.54,184.78,437.83,181.75Z"/><path class="cls-1" d="M380.33,98c-.11-4.42-.17-8.43-.2-12.27h-1c0,3.84.09,7.86.2,12.29Z"/><path class="cls-1" d="M380.63,61.22l-1-.06c-.21,3.79-.36,7.92-.44,12.29l1,0C380.27,69.12,380.42,65,380.63,61.22Z"/><path class="cls-1" d="M382,147a10.22,10.22,0,0,1-.38-2.7c0-.16,0-.32,0-.49.05-1,.08-2.2.08-3.7s0-3.28-.08-5.22l-1,0c.05,1.93.08,3.68.08,5.2s0,2.67-.08,3.65c0,.18,0,.36,0,.54a11,11,0,0,0,.42,3Z"/><path class="cls-1" d="M383.73,37l-1-.24a105.22,105.22,0,0,0-2.09,12.16l1,.11A104.7,104.7,0,0,1,383.73,37Z"/><path class="cls-1" d="M381.09,120.38c-.13-3.2-.26-6.58-.38-10.1l-1,0c.12,3.51.26,6.9.38,10.1l.08,2.17,1,0Z"/><path class="cls-1" d="M408.88,170.63c3.46,1.73,7.23,3.46,11.19,5.15l.39-.92c-3.94-1.68-7.69-3.41-11.13-5.13Z"/><path class="cls-1" d="M388.13,157.35a69.1,69.1,0,0,0,10,7.31l.53-.85a68.47,68.47,0,0,1-9.82-7.2Z"/><path class="cls-1" d="M392.46,22.2l-.36-.94a10.58,10.58,0,0,0-4.74,4l.82.57A9.55,9.55,0,0,1,392.46,22.2Z"/><path class="cls-1" d="M273.82,159.62l-.05-1-12,.49,0,1C265.69,160,269.71,159.8,273.82,159.62Z"/><path class="cls-1" d="M213.58,160.66l0,1,12.1-.32,0-1Z"/><path class="cls-1" d="M369.82,152.28l-.17-1c-3.33.56-7.33,1.12-11.89,1.65l.11,1C362.45,153.4,366.47,152.84,369.82,152.28Z"/><path class="cls-1" d="M285.84,159.08l12-.6-.06-1-12,.6Z"/><path class="cls-1" d="M309.81,156.81l.06,1q6.09-.36,12-.76l-.06-1C317.88,156.32,313.86,156.57,309.81,156.81Z"/><path class="cls-1" d="M249.77,160.57l0-1c-4.28.15-8.32.29-12,.4l0,1Z"/><path class="cls-1" d="M381.73,148.66l-.24-.44-.33.17,0,.08.19-.17Z"/><path class="cls-1" d="M333.81,155.19l.08,1c4.24-.33,8.28-.67,12-1l-.09-1C342.08,154.52,338.05,154.86,333.81,155.19Z"/><rect class="cls-1" x="213.48" y="14.85" width="0.36" height="1" transform="translate(178.34 226.63) rotate(-84.62)"/><path class="cls-1" d="M225,199.78c-2.15.05-4.33.07-6.5.07-.32-1.39-.63-2.93-.92-4.58l-1,.17c.32,1.8.66,3.47,1,4.95l0,.08.09.38h.39l4,0,2.93-.05Z"/><path class="cls-1" d="M330.11,178.72l.39.93c3.71-1.55,7.41-3.2,11-4.9l-.43-.9C337.49,175.54,333.81,177.18,330.11,178.72Z"/><path class="cls-1" d="M213,28.28l.07-.76-1-.09-.07.76h0c-.07.44-.09,1.31-.13,3,0,1.93-.1,4.74-.16,8.29h1C212.85,32.44,213,28.28,213,28.28Z"/><path class="cls-1" d="M284.43,193l.22,1c3.93-.86,7.86-1.8,11.68-2.81l-.25-1C292.27,191.17,288.35,192.11,284.43,193Z"/><path class="cls-1" d="M382.07,149l-.34-.36-.34-.36-.19.17a104.13,104.13,0,0,1-9.17,7.27l.59.82A101.17,101.17,0,0,0,382.07,149Z"/><path class="cls-1" d="M212.54,51.5l-1,0c0,3.69-.09,7.71-.13,12h1C212.45,59.2,212.49,55.18,212.54,51.5Z"/><path class="cls-1" d="M212.33,87.5V83.81q0-4.25,0-8.31h-1q0,4.06,0,8.31V87.5Z"/><path class="cls-1" d="M307.59,186.87l.3,1c3.83-1.19,7.66-2.48,11.4-3.83l-.34-.94C315.23,184.41,311.41,185.69,307.59,186.87Z"/><path class="cls-1" d="M213.84,171.55c.34,4.32.71,8.35,1.12,12l1-.11c-.4-3.61-.77-7.63-1.11-11.94Z"/><path class="cls-1" d="M237,199.32l.05,1c4-.22,8-.52,12-.9l-.09-1C245,198.8,241,199.1,237,199.32Z"/><path class="cls-1" d="M260.84,197.08l.13,1c4-.53,8-1.14,11.88-1.83l-.17-1C268.77,195.94,264.79,196.55,260.84,197.08Z"/><path class="cls-1" d="M212.72,123.52l-1,0c.08,4,.19,8,.31,12l1,0C212.91,131.55,212.8,127.54,212.72,123.52Z"/><path class="cls-1" d="M212.38,99.51h-1c0,4,.07,8,.13,12h1C212.45,107.48,212.41,103.47,212.38,99.51Z"/><path class="cls-1" d="M213.46,147.51l-1,0c.17,4.19.37,8.23.58,12l1-.05C213.83,155.73,213.63,151.69,213.46,147.51Z"/><path class="cls-1" d="M362.6,163.25l-.52-.85c-3.31,2-6.8,4.08-10.36,6l.48.88C355.78,167.35,359.28,165.31,362.6,163.25Z"/><path class="cls-1" d="M138.12,121.44c.29,4.11.62,8.14,1,12l1-.09c-.36-3.83-.69-7.86-1-12Z"/><path class="cls-1" d="M151.51,192.08c.28.58.57,1.14.86,1.69l.88-.47c-.28-.54-.56-1.09-.84-1.66Z"/><path class="cls-1" d="M137.86,97.4l-1,0c.14,4.09.32,8.13.52,12l1,0C138.18,105.52,138,101.49,137.86,97.4Z"/><path class="cls-1" d="M140.38,145.38c.51,4.15,1.07,8.16,1.67,11.91l1-.16c-.6-3.73-1.16-7.73-1.67-11.88Z"/><path class="cls-1" d="M144.25,169.12c.92,4.24,1.92,8.16,3,11.67l1-.29c-1.06-3.48-2.05-7.38-3-11.59Z"/><path class="cls-1" d="M138,25.42l-1-.05c0,.05-.2,4.56-.38,12l1,0C137.77,30,138,25.46,138,25.42Z"/><path class="cls-1" d="M136.32,73.42c0,4,.1,8.1.19,12l1,0c-.09-3.91-.15-8-.19-12Z"/><path class="cls-1" d="M137.36,49.41l-1,0c-.05,4-.08,8-.09,12h1C137.28,57.4,137.31,53.37,137.36,49.41Z"/><path class="cls-1" d="M136.29,95.19c.05,0,4.78.4,12,.71l0-1c-7.21-.31-11.93-.7-12-.7Z"/><path class="cls-1" d="M196.21,93.63c-3.7.45-7.71.81-11.92,1.07l.06,1c4.23-.27,8.26-.63,12-1.08Z"/><path class="cls-1" d="M211.76,90.8c-1.2.31-2.46.61-3.75.89l.21,1c1.31-.28,2.58-.58,3.79-.9Z"/><path class="cls-1" d="M172.32,95.19c-3.91.08-8.12.09-12,0v1c1.57,0,3.2,0,4.86,0,2.42,0,4.83,0,7.16-.07Z"/><polygon class="cls-1" points="174.75 246.63 163.17 247.41 162.78 247.44 162.85 248.44 163.34 248.4 174.82 247.62 174.75 246.63"/><rect class="cls-1" x="186.75" y="245.43" width="11.38" height="1" transform="translate(-16.13 13.52) rotate(-3.86)"/><path class="cls-1" d="M171,284.77l-.8.61c2.23,3,6.17,4.6,11.09,4.62v-1C176.68,289,173,287.48,171,284.77Z"/><polygon class="cls-1" points="273.79 79.02 265.57 79.02 265.57 65.41 262.1 65.41 262.1 82 273.79 82 273.79 79.02"/><path class="cls-1" d="M283.52,82.46A7.26,7.26,0,0,0,289,80.52q2.51-2.37,2.51-6.84T289,66.84a8.6,8.6,0,0,0-10.88,0q-2.52,2.28-2.52,6.84t2.52,6.84A7.26,7.26,0,0,0,283.52,82.46Zm-3.29-13.1a4,4,0,0,1,3.29-1.52,4,4,0,0,1,3.27,1.53A6.74,6.74,0,0,1,288,73.68,6.82,6.82,0,0,1,286.8,78a4.31,4.31,0,0,1-6.57,0A6.75,6.75,0,0,1,279,73.68,6.75,6.75,0,0,1,280.23,69.36Z"/><rect class="cls-1" x="293.84" y="65.41" width="3.44" height="16.59"/><polygon class="cls-1" points="303.69 70.22 310.46 82 313.93 82 313.93 65.41 310.7 65.41 310.7 76.99 304.09 65.41 300.46 65.41 300.46 82 303.69 82 303.69 70.22"/><polygon class="cls-1" points="171.2 266.3 172.54 266.3 172.54 259.82 171.2 259.82 171.2 262.29 168.67 262.29 168.67 259.82 167.33 259.82 167.33 266.3 168.67 266.3 168.67 263.41 171.2 263.41 171.2 266.3"/><path class="cls-1" d="M176.7,266.48a2.81,2.81,0,0,0,2.12-.76,3.52,3.52,0,0,0,1-2.67,3.46,3.46,0,0,0-1-2.67,3.37,3.37,0,0,0-4.24,0,3.43,3.43,0,0,0-1,2.67,3.49,3.49,0,0,0,1,2.67A2.79,2.79,0,0,0,176.7,266.48Zm-1.28-5.11a1.55,1.55,0,0,1,1.28-.6,1.53,1.53,0,0,1,1.27.6,2.61,2.61,0,0,1,.48,1.68,2.7,2.7,0,0,1-.47,1.69,1.68,1.68,0,0,1-2.56,0,2.64,2.64,0,0,1-.48-1.69A2.59,2.59,0,0,1,175.42,261.37Z"/><path class="cls-1" d="M183.52,260.86a1.39,1.39,0,0,1,1.1.42,1.83,1.83,0,0,1,.33.7h1.36a2.32,2.32,0,0,0-.45-1.21,3.07,3.07,0,0,0-4.4-.27,3.53,3.53,0,0,0-.91,2.61,3.6,3.6,0,0,0,.8,2.47,2.77,2.77,0,0,0,2.19.9,2.61,2.61,0,0,0,1.86-.67,2.84,2.84,0,0,0,.89-1.72H185a1.88,1.88,0,0,1-.34.75,1.31,1.31,0,0,1-1.08.47,1.43,1.43,0,0,1-1.15-.54,2.53,2.53,0,0,1-.45-1.64,2.9,2.9,0,0,1,.43-1.68A1.33,1.33,0,0,1,183.52,260.86Z"/><polygon class="cls-1" points="192.93 259.82 191.18 259.82 188.68 262.49 188.68 259.82 187.35 259.82 187.35 266.3 188.68 266.3 188.68 264.13 189.32 263.47 191.32 266.3 193.06 266.3 190.27 262.49 192.93 259.82"/><path class="cls-1" d="M160.31,148.81h-4.73v10.86h2.25v-3.91h2.31a4.3,4.3,0,0,0,2.78-.79,3.36,3.36,0,0,0,1-2.72,3.27,3.27,0,0,0-1-2.6A3.86,3.86,0,0,0,160.31,148.81Zm.89,4.69a1.85,1.85,0,0,1-1.25.39h-2.12v-3.2H160a2,2,0,0,1,1.25.36,1.5,1.5,0,0,1,.44,1.21A1.58,1.58,0,0,1,161.2,153.5Z"/><rect class="cls-1" x="165.41" y="148.81" width="2.25" height="10.86"/><path class="cls-1" d="M179,156H176.7a3.37,3.37,0,0,1-.57,1.26,2.21,2.21,0,0,1-1.82.78,2.37,2.37,0,0,1-1.92-.91,4.19,4.19,0,0,1-.76-2.74,4.74,4.74,0,0,1,.72-2.82,2.54,2.54,0,0,1,3.78-.29,3,3,0,0,1,.57,1.17H179a3.82,3.82,0,0,0-.75-2,5.15,5.15,0,0,0-7.38-.46,6,6,0,0,0-1.53,4.38,6.05,6.05,0,0,0,1.34,4.15,4.7,4.7,0,0,0,3.69,1.5,4.44,4.44,0,0,0,3.11-1.11A5,5,0,0,0,179,156Z"/><polygon class="cls-1" points="183.02 148.81 180.64 148.81 180.64 159.67 182.76 159.67 182.76 151.95 187.19 159.67 189.46 159.67 189.46 148.81 187.35 148.81 187.35 156.39 183.02 148.81"/><rect class="cls-1" x="191.4" y="148.81" width="2.25" height="10.86"/><path class="cls-1" d="M200.29,150.54a2.27,2.27,0,0,1,1.83.71,3,3,0,0,1,.57,1.17H205a4,4,0,0,0-.75-2,5.16,5.16,0,0,0-7.39-.46,7.08,7.08,0,0,0-.18,8.53,4.68,4.68,0,0,0,3.68,1.5,4.42,4.42,0,0,0,3.11-1.11,4.93,4.93,0,0,0,1.51-2.89h-2.25a3.37,3.37,0,0,1-.58,1.26,2.18,2.18,0,0,1-1.82.78,2.4,2.4,0,0,1-1.92-.91,4.24,4.24,0,0,1-.75-2.74,4.81,4.81,0,0,1,.71-2.82A2.28,2.28,0,0,1,200.29,150.54Z"/><path class="cls-1" d="M147.94,60.54l-1.39-.33a4.35,4.35,0,0,1-1-.34.68.68,0,0,1-.39-.64.83.83,0,0,1,.39-.73,1.8,1.8,0,0,1,1-.27,2.09,2.09,0,0,1,1,.21,1.14,1.14,0,0,1,.63,1h1.62a2.41,2.41,0,0,0-.95-2,3.48,3.48,0,0,0-2.17-.67,3.38,3.38,0,0,0-2.31.71,2.35,2.35,0,0,0-.78,1.8,2,2,0,0,0,.81,1.74,5.44,5.44,0,0,0,1.74.62l.85.19a3.62,3.62,0,0,1,1.1.38.68.68,0,0,1,.35.61.94.94,0,0,1-.71.94,2.89,2.89,0,0,1-1,.13,1.75,1.75,0,0,1-1.41-.5,1.64,1.64,0,0,1-.3-.82h-1.6a2.39,2.39,0,0,0,.9,2,3.84,3.84,0,0,0,2.47.72,3.54,3.54,0,0,0,2.39-.73,2.33,2.33,0,0,0,.84-1.83,2,2,0,0,0-.72-1.65A3.73,3.73,0,0,0,147.94,60.54Z"/><polygon class="cls-1" points="152.94 61.53 156.09 61.53 156.09 65.12 157.76 65.12 157.76 57.07 156.09 57.07 156.09 60.14 152.94 60.14 152.94 57.07 151.27 57.07 151.27 65.12 152.94 65.12 152.94 61.53"/><path class="cls-1" d="M162.92,65.35a3.54,3.54,0,0,0,2.64-.94,4.37,4.37,0,0,0,1.22-3.32,4.25,4.25,0,0,0-1.22-3.32,3.5,3.5,0,0,0-2.64-.94,3.47,3.47,0,0,0-2.63.94,4.22,4.22,0,0,0-1.23,3.32,4.34,4.34,0,0,0,1.23,3.32A3.5,3.5,0,0,0,162.92,65.35ZM161.33,59a2,2,0,0,1,1.59-.74,1.93,1.93,0,0,1,1.59.74,4,4,0,0,1,0,4.19,1.93,1.93,0,0,1-1.59.74,2,2,0,0,1-1.59-.74,4,4,0,0,1,0-4.19Z"/><path class="cls-1" d="M171.3,65.33A3,3,0,0,0,174.14,64a4.22,4.22,0,0,0,.39-2v-5h-1.71v5a2.81,2.81,0,0,1-.19,1.21,1.64,1.64,0,0,1-2.66,0,2.78,2.78,0,0,1-.2-1.21v-5h-1.71v5a4.21,4.21,0,0,0,.4,2A3,3,0,0,0,171.3,65.33Z"/><polygon class="cls-1" points="181.81 63.67 177.82 63.67 177.82 57.07 176.14 57.07 176.14 65.12 181.81 65.12 181.81 63.67"/><path class="cls-1" d="M189.14,63.62a5.34,5.34,0,0,0,.64-2.72,6.31,6.31,0,0,0-.15-1.33,3.52,3.52,0,0,0-.57-1.3,2.62,2.62,0,0,0-1.37-1,4.36,4.36,0,0,0-1.25-.18H183v8.05h3.47A2.91,2.91,0,0,0,189.14,63.62Zm-4.53.1V58.47h1.55a1.63,1.63,0,0,1,1.53.66,3.74,3.74,0,0,1,.38,1.88,4.18,4.18,0,0,1-.25,1.54,1.68,1.68,0,0,1-1.66,1.17Z"/><polygon class="cls-1" points="197.2 63.67 192.74 63.67 192.74 61.6 196.65 61.6 196.65 60.21 192.74 60.21 192.74 58.5 197 58.5 197 57.07 191.1 57.07 191.1 65.12 197.2 65.12 197.2 63.67"/><path class="cls-1" d="M205,64.46a4.16,4.16,0,0,1,0-.75v-.54a2.74,2.74,0,0,0-.23-1.26,1.55,1.55,0,0,0-.79-.63,1.64,1.64,0,0,0,.95-.79,2.31,2.31,0,0,0,.29-1.12,2.26,2.26,0,0,0-.15-.85,2.41,2.41,0,0,0-.42-.68,2,2,0,0,0-.77-.56,3.58,3.58,0,0,0-1.3-.21h-3.95v8.05h1.64V62h1.74a1.48,1.48,0,0,1,1,.25,1.44,1.44,0,0,1,.28,1l0,.75a3.23,3.23,0,0,0,.07.69,3,3,0,0,0,.11.43h1.85v-.2A.7.7,0,0,1,205,64.46Zm-2-4a2.07,2.07,0,0,1-.85.13h-1.91V58.47h2a1.92,1.92,0,0,1,.82.14,1,1,0,0,1,.48,1A.88.88,0,0,1,203,60.5Z"/><polygon class="cls-1" points="445.52 89.09 439.04 89.09 439.04 82.76 435.61 82.76 435.61 99.35 439.04 99.35 439.04 91.95 445.52 91.95 445.52 99.35 448.96 99.35 448.96 82.76 445.52 82.76 445.52 89.09"/><path class="cls-1" d="M457,82.76,451.1,99.35h3.63l1.14-3.41H462l1.06,3.41h3.76l-5.87-16.59Zm-.21,10.32L459,86.56,461,93.08Z"/><path class="cls-1" d="M476.92,95.81l-3-13h-5V99.35h3.23V88.13c0-.32,0-.77,0-1.36s0-1,0-1.34l3.12,13.92h3.36l3.14-13.92c0,.31,0,.76,0,1.34s0,1,0,1.36V99.35h3.23V82.76h-5Z"/><path class="cls-1" d="M357.84,186.63A4.74,4.74,0,0,0,356,186l-1.87-.29a6,6,0,0,1-1.43-.33.92.92,0,0,1-.58-.81,1.1,1.1,0,0,1,.44-1,2.43,2.43,0,0,1,1.34-.47,2.85,2.85,0,0,1,1.32.17,1.52,1.52,0,0,1,1,1.3l2.14-.18a3.23,3.23,0,0,0-1.46-2.5,4.65,4.65,0,0,0-3-.65,4.41,4.41,0,0,0-3,1.2,3.07,3.07,0,0,0-.85,2.47,2.61,2.61,0,0,0,1.27,2.22,7.17,7.17,0,0,0,2.37.63l1.15.16a5,5,0,0,1,1.5.38.91.91,0,0,1,.53.78,1.25,1.25,0,0,1-.83,1.32,4.21,4.21,0,0,1-1.27.28,2.32,2.32,0,0,1-1.92-.51,2.18,2.18,0,0,1-.48-1.06l-2.13.18a3.17,3.17,0,0,0,1.41,2.52,5.17,5.17,0,0,0,3.36.68,4.67,4.67,0,0,0,3.08-1.23,3.09,3.09,0,0,0,.92-2.52A2.62,2.62,0,0,0,357.84,186.63Z"/><rect class="cls-1" x="360.27" y="180.94" width="2.22" height="10.72" transform="translate(-14.08 30.3) rotate(-4.71)"/><path class="cls-1" d="M373.24,183.28a4.88,4.88,0,0,0-.9-1.66,3.57,3.57,0,0,0-1.93-1.21,5.73,5.73,0,0,0-1.67-.1l-4.61.38.88,10.69,4.61-.38a3.88,3.88,0,0,0,3.41-2.29,7.08,7.08,0,0,0,.56-3.68A8.22,8.22,0,0,0,373.24,183.28Zm-2.08,4.15a2.21,2.21,0,0,1-2.07,1.74l-2.06.17-.58-7,2.06-.17a2.19,2.19,0,0,1,2.11.7,5.07,5.07,0,0,1,.71,2.47A5.39,5.39,0,0,1,371.16,187.43Z"/><polygon class="cls-1" points="377.82 188.39 377.59 185.64 382.78 185.21 382.63 183.36 377.44 183.78 377.25 181.52 382.91 181.05 382.75 179.16 374.92 179.81 375.8 190.49 383.89 189.82 383.73 187.9 377.82 188.39"/><path class="cls-1" d="M250.89,178a4,4,0,0,0-1.57-.49l-1.55-.21a4.94,4.94,0,0,1-1.19-.25.76.76,0,0,1-.49-.66.91.91,0,0,1,.35-.84,2,2,0,0,1,1.1-.4,2.22,2.22,0,0,1,1.09.11,1.25,1.25,0,0,1,.81,1.06l1.77-.18a2.66,2.66,0,0,0-1.25-2,3.85,3.85,0,0,0-2.45-.49,3.62,3.62,0,0,0-2.44,1,2.57,2.57,0,0,0-.66,2.06,2.13,2.13,0,0,0,1.08,1.81,5.72,5.72,0,0,0,2,.48l.95.12a4,4,0,0,1,1.24.29.75.75,0,0,1,.45.63,1,1,0,0,1-.67,1.1,3.17,3.17,0,0,1-1,.25,1.54,1.54,0,0,1-2-1.25l-1.75.17a2.6,2.6,0,0,0,1.2,2.06,4.22,4.22,0,0,0,2.79.51,3.82,3.82,0,0,0,2.52-1.06,2.54,2.54,0,0,0,.72-2.09A2.15,2.15,0,0,0,250.89,178Z"/><path class="cls-1" d="M258.65,173.38a3.13,3.13,0,0,0-2.18-.46l-3.84.39.89,8.8,1.83-.19-.32-3.16,1.87-.19a3.45,3.45,0,0,0,2.18-.88,3.35,3.35,0,0,0-.43-4.31Zm-1.08,3.27a1.56,1.56,0,0,1-1,.42l-1.71.17-.27-2.59,1.72-.17a1.49,1.49,0,0,1,1,.19,1.2,1.2,0,0,1,.46.94A1.26,1.26,0,0,1,257.57,176.65Z"/><path class="cls-1" d="M262.46,179.37l3.25-.33.75,1.76,2-.21-4-8.48-2.08.21-2.24,9.12,1.92-.2Zm1.13-5.14,1.45,3.35-2.23.23Z"/><path class="cls-1" d="M276.55,179a4.82,4.82,0,0,1-.14-.81l-.06-.59a2.85,2.85,0,0,0-.39-1.35,1.61,1.61,0,0,0-.93-.61,1.8,1.8,0,0,0,1-1,2.7,2.7,0,0,0,.19-1.27,2.43,2.43,0,0,0-.79-1.6,2.25,2.25,0,0,0-.91-.53,4,4,0,0,0-1.45-.08l-4.31.44.89,8.8,1.8-.19-.35-3.45,1.89-.19a1.66,1.66,0,0,1,1.14.17,1.57,1.57,0,0,1,.42,1.09l.1.82a4.74,4.74,0,0,0,.15.75c0,.11.09.27.17.46l2-.21,0-.22A.73.73,0,0,1,276.55,179Zm-2.64-4.1a2.44,2.44,0,0,1-.92.23l-2.08.22-.24-2.37,2.14-.22a2.07,2.07,0,0,1,.91.07,1.12,1.12,0,0,1,.64,1A1,1,0,0,1,273.91,174.94Z"/><polygon class="cls-1" points="284.96 177.32 280.09 177.81 279.86 175.55 284.13 175.12 283.98 173.59 279.7 174.02 279.51 172.16 284.17 171.68 284.01 170.12 277.56 170.78 278.45 179.58 285.12 178.9 284.96 177.32"/><path class="cls-1" d="M296.93,177a4.31,4.31,0,0,1-.13-.82l-.06-.59a3,3,0,0,0-.39-1.35,1.69,1.69,0,0,0-.94-.61,1.74,1.74,0,0,0,1-1,2.7,2.7,0,0,0,.19-1.27,2.31,2.31,0,0,0-.26-.9,3,3,0,0,0-.53-.7,2.37,2.37,0,0,0-.91-.53,4.16,4.16,0,0,0-1.44-.08l-4.32.44.89,8.8,1.8-.18-.35-3.45,1.9-.2a1.16,1.16,0,0,1,1.56,1.26l.09.82a3.7,3.7,0,0,0,.16.75c0,.12.09.27.16.46l2-.21,0-.22A.74.74,0,0,1,296.93,177Zm-2.64-4.11a2.19,2.19,0,0,1-.91.24l-2.09.21-.24-2.37,2.14-.21a2.08,2.08,0,0,1,.91.06,1.1,1.1,0,0,1,.64,1A1,1,0,0,1,294.29,172.87Z"/><rect class="cls-1" x="298.19" y="168.62" width="1.84" height="8.85" transform="translate(-15.93 31.06) rotate(-5.79)"/><path class="cls-1" d="M309,175.22a2.6,2.6,0,0,0,.25-1.44,2.29,2.29,0,0,0-.48-1.26,2,2,0,0,0-1.09-.67,2.17,2.17,0,0,0,.62-.57,2,2,0,0,0,.27-1.34,2.22,2.22,0,0,0-.54-1.3,2.73,2.73,0,0,0-2.39-.7l-4.27.43.89,8.8,4-.4a6.48,6.48,0,0,0,1.24-.25,2.54,2.54,0,0,0,.95-.54A2.63,2.63,0,0,0,309,175.22Zm-5.72-5.5,1.93-.2a3.66,3.66,0,0,1,1.07,0,.81.81,0,0,1,.56.77.83.83,0,0,1-.28.8,1.77,1.77,0,0,1-.93.32l-2.16.22Zm3.63,5.28a2.11,2.11,0,0,1-.89.24l-2.16.22-.24-2.34,2.19-.23a2.49,2.49,0,0,1,.91.06,1,1,0,0,1,.66.89A1.12,1.12,0,0,1,306.86,175Z"/></g></g></g></svg>