<?xml version="1.0" encoding="utf-8"?>
<!-- Generator: Adobe Illustrator 26.0.2, SVG Export Plug-In . SVG Version: 6.00 Build 0)  -->
<svg version="1.1" id="Layer_1" xmlns="http://www.w3.org/2000/svg" xmlns:xlink="http://www.w3.org/1999/xlink" x="0px" y="0px"
	 viewBox="0 0 137.8 255.95" style="enable-background:new 0 0 137.8 255.95;" xml:space="preserve">
<style type="text/css">
	.st0{fill:#AF8787;}
	.st1{fill:#6D5252;}
	.st2{fill:#8C8C8C;}
	.st3{fill:#D3BCBC;}
	.st4{fill:#B79A9A;}
	.st5{fill:#EFE8E8;}
	.st6{fill:#3F2222;}
	.st7{fill:#BC5E5E;}
	.st8{fill:#DBA2A2;}
	.st9{fill:#FFFBE9;}
</style>
<g>
	<g>
		<path class="st0" d="M104.68,242.19c-4.27-17.77-8.54-35.55-12.81-53.32l-27.31,6.56l12.8,53.29c4.15-0.13,8.99-0.66,14.26-1.94
			C96.63,245.56,100.99,243.92,104.68,242.19z"/>
		<path class="st1" d="M91.63,246.78c-5.28,1.28-10.12,1.81-14.26,1.94l1.23,5.12c3.99,0.37,8.47,0.27,13.24-0.76
			c5.57-1.21,10.24-3.43,14.06-5.87c-0.4-1.67-0.8-3.35-1.21-5.02C100.99,243.92,96.63,245.56,91.63,246.78z"/>
	</g>
	<g>
		<path class="st1" d="M93.21,38.37c-3.54-1.71-7.71-3.26-12.48-4.24c-5.58-1.15-10.72-1.24-15.14-0.88
			c-0.3,1.57-0.59,3.15-0.89,4.72l27.66,4.87L93.21,38.37z"/>
		<path class="st0" d="M64.71,37.97c-2.64,14.09-5.28,28.18-7.93,42.27l27.6,5.18l7.98-42.57L64.71,37.97z"/>
	</g>
	
		<rect x="102.38" y="-0.66" transform="matrix(0.9972 0.0753 -0.0753 0.9972 1.9125 -7.8114)" class="st2" width="4.42" height="44.26"/>
	<g>
		<path class="st3" d="M96.99,41.01c-4.77-0.77-9.37-1.36-13.79-1.81c-2.91,13.96-6.07,28.44-9.5,43.39
			c-2.75,11.98-5.52,23.52-8.27,34.63c4.25-2.47,8.66-4.79,13.2-6.87c6.77-3.09,13.1-5.31,19-6.91
			c3.85-20.04,7.71-40.09,11.56-60.13C105.29,42.46,101.22,41.69,96.99,41.01z"/>
		<path class="st1" d="M109.2,43.3c0.24-1.26,0.48-2.52,0.73-3.77c-3.58-2.42-7.8-4.44-12.68-5.42c-4.59-0.92-8.96-0.75-12.98-0.02
			c-0.35,1.69-0.7,3.4-1.06,5.11c4.42,0.45,9.02,1.04,13.79,1.81C101.22,41.69,105.29,42.46,109.2,43.3z"/>
	</g>
	<path class="st2" d="M88.48,42.7c-0.39,3.77,1.55,7.3,4.53,8.44c2.62,1,5.6-0.01,7.43-2.57c-0.12-1.32-0.23-2.63-0.35-3.95
		c-0.24,0.41-1.9,3.08-4.78,3.37C92.5,48.28,89.66,46.15,88.48,42.7z"/>
	<g>
		<path class="st4" d="M25.34,139.92c0.89-26.12,3.21-50.37,6.32-72.5c-10.76,5.05-19.7,13.82-24.9,25.07
			c-1.16,44.05-2.32,88.1-3.48,132.15c8.14,0.21,16.29,0.43,24.43,0.64C25.4,199.43,24.29,170.84,25.34,139.92z"/>
		<path class="st3" d="M100.34,106.57c-0.34-5.02-1.13-10.95-2.8-17.46c-1.14-4.45-2.5-8.44-3.89-11.92
			c-3.06-3.1-8.54-7.85-16.66-11.16c-10.15-4.14-19.18-3.88-23.77-3.43c-7.58,0-14.91,1.71-21.55,4.83
			c-3.11,22.12-5.43,46.37-6.32,72.5c-1.06,30.91,0.05,59.51,2.38,85.36c23.19,0.61,46.38,1.22,69.57,1.83
			C98.31,186.93,99.32,146.75,100.34,106.57z"/>
	</g>
	<g>
		<path class="st5" d="M6.76,92.49c-1.16,44.05-2.32,88.1-3.48,132.15c0.87,0.02,1.74,0.05,2.62,0.07l3.7-137.5
			C8.56,88.9,7.61,90.66,6.76,92.49z"/>
	</g>
	<g>
		<path class="st6" d="M48.71,214.96c23.33,0.3,48.82,7.04,48.58,12.16c-0.25,5.2-27.09,8.85-48.74,8.09
			c-19.99-0.7-45.3-5.5-45.27-10.56C3.31,219.71,27.45,214.69,48.71,214.96z"/>
		<path class="st7" d="M48.79,217.96c18.56,0.24,38.83,5.6,38.64,9.67c-0.2,4.14-21.55,7.04-38.76,6.44
			c-15.9-0.56-36.03-4.37-36.01-8.4C12.68,221.73,31.88,217.74,48.79,217.96z"/>
		<path class="st8" d="M75.42,224.58c0.01-0.54-0.38-1.03-0.97-1.15c-8.36-1.73-16.93-2.69-25.47-2.84
			c-7.92-0.14-15.9,0.41-23.73,1.65c-0.67,0.11-1.13,0.7-1.01,1.33c0.12,0.63,0.76,1.05,1.43,0.95c7.67-1.21,15.5-1.75,23.27-1.61
			c8.38,0.15,16.78,1.08,24.98,2.79c0.67,0.14,1.33-0.25,1.47-0.88C75.41,224.73,75.42,224.65,75.42,224.58z"/>
		<path class="st9" d="M45.84,225.81l-0.19,7.85c-0.06,0-0.12-0.01-0.18-0.01c-4.13-0.1-7.56,3.17-7.66,7.29
			c-0.1,4.13,3.17,7.56,7.29,7.66c1.75,0.04,3.37-0.52,4.67-1.5c1.25,1.04,2.84,1.68,4.59,1.72c4.13,0.1,7.56-3.17,7.66-7.29
			c0.1-4.13-3.17-7.56-7.29-7.66c-0.06,0-0.12,0-0.18,0l0.19-7.85c-1.07-0.32-2.54-0.65-4.3-0.7
			C48.55,225.26,46.97,225.53,45.84,225.81z"/>
	</g>
	<g>
		<path class="st7" d="M94.36,103.52c2.8,29.97,3.41,60.24,0,90.18c-0.63-14.82-0.59-30.24-0.64-45.09
			C93.67,133.56,93.41,118.57,94.36,103.52L94.36,103.52z"/>
	</g>
	<g>
		<path class="st1" d="M120.17,234.17c-4.49,2.88-8.8,5.1-12.68,6.82l2.5,3.7c4.49-0.68,9.22-2.08,13.73-4.72
			c4.66-2.73,8.16-6.25,10.81-9.87c-1.01-1.49-2.01-2.98-3.02-4.47C128.33,228.41,124.58,231.34,120.17,234.17z"/>
		<path class="st3" d="M131.5,225.63c-11.47-16.69-22.94-33.37-34.42-50.06c-1.43-2.31-5.86-8.96-10.66-8.54
			c-5.66,0.5-11.21,10.78-11.1,26.31c10.72,15.89,21.44,31.77,32.16,47.66c3.89-1.72,8.19-3.94,12.68-6.82
			C124.58,231.34,128.33,228.41,131.5,225.63z"/>
	</g>
</g>
</svg>
